<?xml version="1.0" standalone="no"?>
<!DOCTYPE svg PUBLIC "-//W3C//DTD SVG 1.1//EN" "http://www.w3.org/Graphics/SVG/1.1/DTD/svg11.dtd" >
<svg xmlns="http://www.w3.org/2000/svg" xmlns:xlink="http://www.w3.org/1999/xlink" version="1.1">
<metadata></metadata>
<defs>
<font id="nightclubsregular" horiz-adv-x="1202" >
<font-face units-per-em="2048" ascent="1638" descent="-410" />
<missing-glyph horiz-adv-x="597" />
<glyph horiz-adv-x="0" />
<glyph unicode="&#xd;" horiz-adv-x="597" />
<glyph unicode=" "  horiz-adv-x="597" />
<glyph unicode="&#x09;" horiz-adv-x="597" />
<glyph unicode="&#xa0;" horiz-adv-x="597" />
<glyph unicode="!" horiz-adv-x="401" d="M98 79q0 42 30 72t72 30t72 -30t30 -72t-30 -72t-72 -30t-72 30t-30 72zM101 1328v53q0 42 30 72t72 30t72 -30t30 -72v-49q-2 -81 -33 -99.5t-73 -16.5t-71 23t-26 87zM102 1069q-2 93 99 100q42 1 73 -17.5t33 -86.5l3 -677q0 -42 -30 -72t-72 -30t-72 30t-30 72z" />
<glyph unicode="&#x22;" horiz-adv-x="712" d="M100 1330q0 42 30 72t72 30t72 -30t30 -72l1 -129q0 -42 -30.5 -72t-72.5 -30t-71.5 30t-29.5 72zM399 1330q0 42 29.5 72t71.5 30t72.5 -30t30.5 -72l1 -129q0 -42 -30 -72t-72 -30t-72 30t-30 72z" />
<glyph unicode="#" horiz-adv-x="1603" d="M155 498q0 42 29.5 71.5t70.5 29.5l159 1l83 300l-142 -1q-41 0 -70.5 28.5t-29.5 70.5t29.5 71.5t70.5 29.5l198 1l67 248q5 31 31 57q25 26 67 26t71.5 -29t29.5 -57t-3 -41l-55 -204l26 -2q48 5 66.5 -26t16.5 -73t-23 -71t-87 -26l-55 -2l-84 -300h293l11 40 q11 73 44 88t75 8t68 -32t14 -92l-5 -12l155 4q42 0 71 -29t29 -71t-29 -71t-71 -29l-211 -4l-91 -318q-5 -30 -31 -56q-25 -26 -67 -26t-71 29.5t-29 60.5t7 49l75 261h-293l-91 -318q-5 -30 -31 -56q-25 -26 -67 -26t-71 29.5t-29 60.5t7 49l75 261l-103 -1 q-41 0 -70.5 28.5t-29.5 70.5zM890 996q-1 42 17.5 73t86.5 33l59 -2l67 248q5 31 31 57q25 26 67 26t71.5 -29t29.5 -57t-3 -41l-55 -204l115 4q42 0 71 -29t29 -71t-29 -71t-71 -29l-171 -4l-13 -63q-17 -65 -51 -77t-75 -3q-40 13 -64 39.5t-5 103.5h-10q-52 -4 -73 25 t-24 71z" />
<glyph unicode="$" d="M106 406q0 41 29 70.5t71 29.5t71 -29.5t29 -70.5q19 -44 82 -118q46 -47 104 -69v599q-138 -28 -290 82q-92 92 -92 222t92 223q168 99 290 82l4 12q0 42 24 72t66 30t78 -30t36 -72l-4 -8q183 -44 235 -90q40 -32 40 -77t-29.5 -74t-65.5 -29t-180 24v-193 q168 -29 280 -140q168 -145 168 -352t-168 -355q-112 -112 -280 -137v-35q0 -42 -30 -72t-72 -30t-72 30t-30 72v38q-139 29 -246 136q-146 146 -140 259zM309 1115q-13 -124 185 -107v222q-185 29 -185 -115zM696 215q86 19 138 71q110 90 110 214t-110 210q-52 52 -138 75 v-570z" />
<glyph unicode="%" horiz-adv-x="1610" d="M134 1070q0 73 28 137.5t76 112.5t112.5 76t137.5 28t137.5 -28t112.5 -76t76 -112.5t28 -137.5t-28 -137.5t-76 -112.5t-112.5 -76t-137.5 -28t-137.5 28t-112.5 76t-76 112.5t-28 137.5zM309 1062q0 -75 53.5 -128.5t128.5 -53.5t128.5 53.5t53.5 128.5t-53.5 128.5 t-128.5 53.5t-128.5 -53.5t-53.5 -128.5zM332 86q-8 42 16 76l630 910q37 57 73.5 56.5t70.5 -24.5t48 -56.5t-23 -88.5l-630 -910q-24 -36 -66 -44q-43 -9 -77 15t-42 66zM852 345q0 73 28 137.5t76 112.5t112.5 76t137.5 28t137.5 -28t112.5 -76t76 -112.5t28 -137.5 t-28 -137.5t-76 -112.5t-112.5 -76t-137.5 -28t-137.5 28t-112.5 76t-76 112.5t-28 137.5zM1027 337q0 -75 53.5 -128.5t128.5 -53.5t128.5 53.5t53.5 128.5t-53.5 128.5t-128.5 53.5t-128.5 -53.5t-53.5 -128.5zM1094.5 1194q-16.5 32 17.5 92l75 110q23 36 65 44t76 -16 t44 -64q8 -42 -16 -77l-68 -98q-32 -58 -67.5 -60.5t-72.5 17.5t-53.5 52z" />
<glyph unicode="&#x26;" horiz-adv-x="1399" d="M100 449q0 185 131 318q48 41 89 72l-40 40q-80 97 -80 221t88 212t212 88t212 -88t88 -212t-87 -212q-42 -45 -82 -78l319 -318l44 46h1q29 29 71 29t70.5 -29t28.5 -73t-41 -79l-33 -35l17 -17q53 -52 43 -86.5t-41 -62.5q-32 -27 -68 -31.5t-79 45.5l-2 -2l-12 12 l-82 -78q-135 -131 -319 -131t-316 132t-132 317zM300 448q0 -102 73.5 -175t174.5 -73t181 71l79 79l-347 348q-41 -31 -88 -72q-73 -76 -73 -178zM400 1100q0 -40 21 -80l49 -25q80 -9 101 34q29 30 29 71t-29 70.5t-71 29.5t-71 -30t-29 -70zM1098.5 92q9.5 35 41.5 62 t68 31.5t60 -23.5q32 -20 32 -62t-29 -71t-71 -29t-42 11l-20 12q-49 34 -39.5 69z" />
<glyph unicode="'" horiz-adv-x="401" d="M100 1330q0 42 30 72t72 30t72 -30t30 -72l2 -148q0 -42 -30 -72t-72 -30t-72 30t-30 72z" />
<glyph unicode="(" horiz-adv-x="619" d="M100 675q0 404 149 629q19 32 64 97q29 29 71 29t70.5 -29t28.5 -71t-29 -70q-39 -49 -64 -98q-90 -166 -90 -474t45 -374q32 -60 15 -91.5t-54 -51.5t-73 -16.5t-67 61.5q-66 153 -66 459zM266 73.5q16 46.5 53 66.5t73 16t80 -54q21 -20 21 -62t-29.5 -71t-71.5 -29 t-70 29q-72 58 -56 104.5z" />
<glyph unicode=")" horiz-adv-x="633" d="M132 40q0 42 21 62q44 50 80 54t73 -16t53 -66t-56 -105q-29 -29 -70 -29t-71 29q-29 29 -30 71zM142 1330q0 42 29 71t71 29q41 0 70 -29q45 -65 64 -97q149 -225 149 -629q0 -306 -66 -459q-31 -58 -67 -62t-73 17q-37 19 -54 51t15 92q45 66 45 374t-90 474 q-25 49 -64 98q-29 28 -29 70z" />
<glyph unicode="*" horiz-adv-x="801" d="M100 1135q0 67 56 95q23 12 43 12t35 -5l107 -77l-39 126q0 42 30 72t72 30t72 -30t30 -72l-41 -131l109 82q16 5 36 5t49 -15q49 -24 49 -88q0 -23 -16 -53t-55 -43l-131 -6l105 -75q20 -27 20 -47q-1 -64 -35 -90q-34 -25 -54 -25q-64 0 -96 43l-42 111l-42 -111 q-32 -43 -74 -43t-76 25t-35 68q0 42 20 69l74 62l-100 19q-40 12 -59 50q-12 22 -12 42z" />
<glyph unicode="+" horiz-adv-x="998" d="M166 694q0 42 29.5 72t72.5 30l129 2l1 150q0 42 30 72t72 30t72 -30t30 -72l-1 -150l129 -4q42 0 72 -30t30 -72t-30 -72t-72 -30l-129 4l2 -132q0 -42 -30.5 -72t-72.5 -30t-71.5 30t-29.5 72l-2 132l-129 -2q-43 0 -72.5 30t-29.5 72z" />
<glyph unicode="," horiz-adv-x="401" d="M48 -15q0 1 1 2q0 42 29 71l101 107q30 30 72 30t72 -30.5t30 -72.5t-30 -71l-100 -107q-31 -30 -73 -30t-72 30t-30 71z" />
<glyph unicode="-" horiz-adv-x="864" d="M158 673q0 42 30 72t72 30l369 1q42 0 72 -30t30 -72t-30 -72t-72 -30l-369 -1q-42 0 -72 30t-30 72z" />
<glyph unicode="." horiz-adv-x="401" d="M95 102q0 42 30.5 72t82.5 30t82 -30t30 -72t-30 -72t-82 -30t-82.5 30t-30.5 72z" />
<glyph unicode="/" horiz-adv-x="998" d="M0 20q0 25 14 49l607 1053q36 56 72 56.5t83 -24.5q35 -23 50 -55.5t-34 -90.5l-601 -1041q-30 -51 -96 -51q-19 0 -57 22t-38 82zM739.5 1275q-13.5 33 23.5 88l46 83q29 52 95 52q20 0 58 -22q38 -23 38 -82q0 -26 -14 -50l-53 -93q-38 -57 -74 -57t-71 24t-48.5 57z " />
<glyph unicode="0" horiz-adv-x="1534" d="M19 728q0 44 12 114t32 120q24 63 78 148q53 84 138 153q46 39 95 67q50 28 64 36t22 10q8 3 14 5q6 1 13 3t27 8t79 19q77 8 127 8h30q11 -3 29 -5q95 -8 169 -44q12 -6 24 -10q12 -6 16 -12t-2 -5q-11 0 -47 8t-109 15l-56 2q-42 2 -113 -9t-108 -24q-37 -14 -47 -18 t-23 -9t-20 -9q-7 -5 -16 -9q-58 -29 -135 -92q-89 -83 -123 -141q-98 -162 -98 -339q0 -76 8 -113q18 -112 65 -192q45 -90 107 -152l18 -18q3 -11 7 -25t4 -22q-6 -11 -15 -11h-18q-21 0 -31 10q-76 72 -132 180q-57 108 -77 226q-8 83 -8 127zM207 649l56 36l125 -205 q30 -53 18 -85q-11 -32 -51 -58q-45 -19 -57 -16q-32 8 -47 24q-17 12 -23 31l-8 12l55 33q8 -24 24 -36t33 -1q15 5 15 23q-3 5 -7 15t-8 22zM339 257l16 8l25 -30l-15 37l15 12l28 -33l-16 41l24 16l25 -36h4l-18 43l14 8l31 -31l-19 39l12 5l-1 1l16 8l25 -30l-13 38 l13 7l28 -29l-16 37l12 8l19 -57l-11 -7l-32 29l16 -37l-16 -8l-35 35l18 -51l-16 -8l-27 32l15 -39l-15 -10l-41 45l19 -57l-11 -8l-32 30l16 -41l-16 -8zM355 601q1 25 3 32t8 13t14 17q9 12 32 25q31 16 68 16q32 -16 41 -43l72 -113q3 -6 8 -12t9 -10t15 -17l-53 -29 q-3 2 -6 2t-6 3t-4 6t-4 6q0 -24 -11 -37q-6 -12 -32 -23q-10 -12 -30 -12t-35 14q-16 14 -21 24q-5 9 -9 15t-6 15v24q0 7 6 18t10 18t9 12l27 28q18 18 15 26q-4 7 -9 17t-17 10q-13 8 -25 -4t-12 -20t11 -29l-50 -31q-18 14 -18 39zM464 519q0 -17 11 -24t17 -12t13 -1 t10 6t6 5t4 6t4 6v19q0 12 -4 16l-25 41q-3 -3 -4 -7q-5 -16 -16 -16q-16 -21 -16 -39zM513 741l55 35l14 -23q0 25 11 33q9 25 47 36q10 3 18 3t17 -5l18 -10q-6 23 7 42q14 19 28 26q25 20 49 8q19 -5 41 -37l96 -160l-53 -36l-92 153q-6 6 -10 11t-9 8q-29 0 -38 -27 q0 -13 12 -29l86 -145l-57 -35l-91 152q-4 5 -8 11t-10 9q-30 0 -39 -28q0 -12 12 -33l88 -142l-57 -34zM518 69q7 3 19 1q13 -2 29 -4t37 -6t45 -4h41q21 -3 47 -3t71 5t69 12q26 8 34 10t14 4t12 2t12 4q14 7 44 16q31 10 90 41q85 55 125 96q67 60 104 122q85 146 97 274 q4 41 4 95t-6 86t-10 44q-2 12 -2 14v8q0 24 14 35q6 12 21 5t19 -12q5 -6 11 -9l4 -11q0 -14 11 -49q10 -87 10 -153t-21 -160q-32 -102 -81 -191q-99 -157 -277 -262q-134 -65 -191 -70q-58 -4 -92 -8t-94 3t-86 13q-26 7 -41 11t-27 8q-12 6 -22 10t-25 12q-15 9 -9 11z M537 407l15 6l8 -10l-16 -7zM548 388l16 11l29 -54q4 -4 4 -8v-4q0 -2 -4 -6q-3 -1 -5 -3t-3 -1v-4h-3l-2 12q2 0 2 1v3q0 2 -2 6zM552 341l12 8l8 -16l-12 -6zM576 396v7q11 11 17 14h8q4 0 12 -8l15 -25q4 -4 4 -8h4l-11 -8h-4q-3 -12 -12 -12l-4 -3q-4 0 -8 3h-4l-8 12v8 q-4 4 4 4l12 19v4q-5 -1 -5 1t-7 -1t-5 -5q1 -2 5 -2v-4l-9 -4q-4 4 -4 8zM597 380l4 -8q0 -8 4 -4h4q4 0 4 4v8l-4 12q-9 0 -7 -2q3 -6 1 -7q-3 1 -4 -1t-2 -2zM609 425l16 8v-4h3v8q12 9 16 11l8 -4v8q3 3 6 10t11 -2q4 0 12 -8l24 -39l-16 -6l-20 37q-3 0 -3 4 q-10 0 -10 -8v-2q0 -1 2 -5l19 -34l-11 -7l-22 37l-4 4q-3 -3 -9 -4t5 -12l20 -33l-12 -8zM669 485l12 8l12 -21l4 8l4 5q9 5 15 1t10 -6t10 -15q6 -12 6 -18t-8 -14q-6 0 -6 -4q-4 0 -8 4l4 -8l-15 -8zM701 468l3 -6l4 -8l4 -8q1 -3 4 -6q12 -9 12 6q0 6 -6 13t-6 10 q-2 3 -4 5t-3 1q-1 0 -4 -3q-8 0 -4 -4zM728 493q5 20 22 20h7l12 -8q0 -4 8 -12l4 -12q4 -1 4 -9l-4 -8l-8 -8l-12 -4h-8l-7 8l-12 12l-4 9zM742 489q-4 -4 4 -4q0 -4 4 -5l3 -8l8 -8h4q2 2 2 3t1 5q2 4 -4 12q-6 7 -7 10q-2 5 -5 5q-4 0 -6 2l-4 -4v-8zM761 521l8 3l-4 8 q-8 0 -4 4v8q4 -4 4 4q4 -4 4 4l8 4l8 -12h-4q-4 0 -4 -4v-4l4 -4l8 4l4 -8l-8 -4l25 -43l-10 -5l-27 41l-8 -4zM765 993l57 33l58 -91q0 19 6 31q6 17 24 23q65 45 135 -70q37 -61 37 -99t-50 -64q-6 -3 -16 -3t-34 8l16 -24l-53 -31zM800 524q-10 10 0 20q0 3 2 4q2 0 5 4 t11 4h8q15 -15 15 -20q8 -8 8 -12v-19l-19 -12h-12q0 3 -2 4t-6 4t-4 6t-3 7t-3 10zM810 528q4 -4 4 -7l8 -8q-4 -4 4 -4q0 -8 4 -4h4l3 5v3q0 8 -7 15q-6 12 -12 12q0 4 -8 4v-16zM834 565l11 8l4 -8v8q12 12 20 12q3 -3 6 -5t5 -7l22 -33l-16 -8l-17 33l-8 4l-4 -4 q-6 0 0 -9l20 -32l-12 -11zM869 608l13 8l8 -15l8 4l8 -8v8q0 7 4 7q0 3 2 4q2 0 6 4q3 4 11 4t16 -8v-4l-12 -7q-7 4 -4 7h-8l-3 -7l3 -4v-4h8l8 4h12q6 0 10 -8v-19q1 -7 -7 -7l-9 -5h-10q-5 0 -12 7v4l12 4q0 -8 4 -4h8q0 1 2 3q1 0 2 1v8q-8 0 -4 4h-8l-8 -4h-11 q-4 0 -12 8v4l-8 -4l16 -28q0 -3 2 -3h5l4 3l4 -9h-4q0 -8 -4 -4l-7 -4h-4q-4 -4 -4 4l-4 4l-20 29l-2 -4l-7 8l7 4zM907 902q6 -24 22 -48q17 -22 25 -36t20 -26t32 2q18 12 12 33t-24 47q-16 26 -25 39q-25 39 -47 26t-15 -37zM945 628q0 6 8 14h13l-9 19l9 12l43 -68 l-11 -8l-4 8l-5 -14q-10 -10 -19 -2q-8 0 -13 16q-12 17 -12 23zM962 634q-5 -4 1 -14q7 -12 9 -14t2 -5h8q4 4 4 7l-8 16q0 6 -8 10h-8zM990 652q0 6 4 9q0 4 8 12q7 0 11 4q0 -4 8 -4l14 -16v-4l-22 -15v-4q2 0 2 -1t2 -1l4 -4h8l2 4v4t-2 2l10 8q4 -4 4 -12 q0 -18 -22 -18h-8q-15 15 -15 18q-4 0 -4 8q-4 4 -4 10zM1002 653l3 -4v-3l16 7q0 1 -2 3q-1 0 -2 1q0 1 -2 3q-1 0 -2 1h-8v-4q-3 0 -3 -4zM1029 677v4q0 5 8 12t15 7q6 0 14 -8v-3l-12 -4l-4 4h-4l-3 -4v-8h3q0 -3 2 -3t2 3h24q3 0 4 -3t5 -8q3 -4 3 -5v-8l-8 -4l-4 -7 l-12 -4h-8q-4 -4 -4 4l-7 4v3l11 8v-4l8 -4h4q4 4 4 8v4l-4 4h-4l-12 -4h-11q-8 0 -8 8zM1029 1019q0 53 49 72q23 19 39 21t45 -5q39 -29 58 -60q18 -31 26 -43t9 -26q8 -16 8 -40q0 -46 -39 -68q-66 -36 -94 -17q-24 8 -41 35q-18 26 -27 41q-33 37 -33 90zM1035 1290 q0 33 27 45h4q16 -5 41 -27q50 -28 77 -56q26 -28 46 -48t30 -32q10 -14 16 -20l8 -12t6 -10l4 -8q3 -4 21 -37t16 -53q-3 -21 -7 -21q-11 0 -26 19q-14 19 -18 25t-9 14q-20 17 -25 30l-28 35q-14 14 -30 32q-69 78 -143 117q-7 3 -8 5t-2 2zM1054 726l12 7l8 -11l-16 -8z M1062 706l16 8l29 -49l-14 -8zM1086 1038q0 -23 8 -38t12 -24q3 -9 12 -20t21 -31q22 -34 52 -24q18 12 14 32t-28 64q-32 46 -43 53q-16 18 -33 4q-11 -6 -15 -16zM1089 714v8l8 8l8 3h1q1 0 2 -1t3 -2l-4 7l12 8l31 -49q4 -7 4 -16q0 -10 -9 -14t-13 -6t-6 0t-5 2t-6 3 l12 8h11q4 0 4 8l-4 4l-4 7v-7q-14 -8 -23 -8l-14 19zM1105 712q0 -8 5 -14t9 -6h8v4q2 0 2 2t-2 2v4l-12 18q-3 3 -7 3t-3 -7v-6zM1127 749l11 8l4 -8q0 9 2 9t5 6q4 6 13 5q3 -3 6 -5t5 -7l22 -35l-12 -8l-21 35l-4 4h-4q-10 -5 -4 -16l23 -31l-15 -6zM1195 741l12 8 l7 -16l-11 -7zM1195 786q5 0 5 4q1 4 10 10q10 6 16 2q6 0 12 -12l-12 -8q0 4 -4 4v4h-8l-3 -4v-4q0 -10 19 -29l4 4q1 1 4 5t-4 11l12 7q8 -13 8 -19q-8 -8 -12 -16q-8 0 -12 -2q-6 -3 -27 18l-4 15q-4 4 -4 10zM1236 810q2 2 4 6t4 5t6 5t9 3h8q24 -24 24 -31v-18l-20 -11 h-12l-5 7q0 3 -6 8t-6 14q-8 9 -6 12zM1254 802q1 -4 1 -8l8 -8q-6 -6 6 -6h6q4 2 4 6q-1 4 -3 6q-2 4 -6 13q-6 12 -16 12v-15zM1275 837l12 8l4 -4v8q5 5 7 8l8 1l5 -1h3q0 5 8 13t10 0q3 0 11 -8l24 -37l-16 -8l-19 40h-10v-4q-4 -1 -2 -3t2 -5l17 -35l-9 -8l-24 39l-4 4 q-5 -5 -6 -5q-1 -1 -1 -3v-3q0 -2 3 -5l20 -35l-12 -8zM1326 993v4q6 4 49 18h4l3 -8l4 -18q3 -5 5 -9t4 -9q2 -4 3 -9l-8 -16q-26 -32 -47 0q-1 2 -2 6t-3 8t-4 14q-4 8 -4 11z" />
<glyph unicode="1" horiz-adv-x="1584" d="M51 721q0 44 12 114t32 120q24 63 78 148q53 84 138 153q46 39 95 67q50 28 64 36t22 10q8 3 14 5t13 4t27 7q20 6 79 19q77 8 127 8h30q11 -4 29 -6q95 -8 169 -42l24 -12t16 -10q4 -6 -2 -6q-11 0 -47 8t-109 15l-56 3q-42 2 -113 -10q-71 -11 -108 -24 q-37 -14 -47 -18q-9 -4 -22 -9q-14 -5 -21 -9t-16 -8q-58 -29 -135 -93q-89 -83 -123 -141q-98 -162 -98 -339q0 -76 8 -113q18 -112 65 -192q45 -90 107 -152l18 -18q3 -10 7 -24t4 -23q-6 -11 -15 -11h-18q-21 0 -31 10q-76 72 -132 180q-57 108 -77 226q-8 83 -8 127z M239 642l56 36l125 -205q30 -53 18 -85q-11 -32 -51 -58q-45 -19 -57 -16q-31 8 -47 24q-17 12 -23 31l-8 12l55 33q8 -24 24 -36t33 -1q15 5 15 23q-3 6 -7 16t-8 21zM371 250l16 8l25 -30l-15 37l15 12l28 -33l-16 41l24 16l25 -36h4l-18 43l14 8l31 -31l-19 39l12 5l-1 1 l16 8l25 -30l-13 38l13 7l28 -29l-16 37l12 8l19 -57l-11 -7l-32 29l16 -37l-16 -8l-35 35l18 -51l-16 -8l-27 32l15 -39l-15 -10l-41 45l19 -57l-11 -8l-32 30l16 -41l-16 -8zM387 594q1 25 3 32q2 6 8 12t14 18q9 12 32 25q31 16 68 16q32 -16 41 -43l72 -113q3 -6 8 -12 q5 -7 9 -11t15 -16l-53 -29q-3 1 -6 1t-6 4q-3 3 -4 6t-4 6q0 -24 -11 -37q-6 -12 -32 -23q-10 -12 -30 -12t-35 14q-16 14 -21 24t-9 16t-6 14v24q0 7 6 18t10 18t9 12l27 28q18 18 15 26q-4 7 -9 17t-17 10q-13 8 -25 -4q-12 -11 -12 -19t11 -30l-50 -31q-18 14 -18 39z M496 512q0 -17 11 -24t17 -12q6 -6 13 -2t10 6t6 6q3 3 4 6t4 6v19q0 12 -4 16l-25 41q-3 -2 -4 -6q-5 -16 -16 -17q-16 -21 -16 -39zM545 734l55 35l14 -23q0 25 11 33q9 25 47 36q10 3 18 3t17 -5l18 -10q-6 23 7 42q14 19 28 26q25 20 49 8q19 -5 41 -37l96 -160l-53 -36 l-92 153q-6 6 -10 11t-9 8q-29 0 -38 -27q0 -13 12 -29l86 -145l-57 -35l-91 152l-8 12t-10 8q-30 0 -39 -28q0 -12 12 -33l88 -142l-57 -34zM550 62q7 4 19 2q13 -2 29 -4t37 -6t45 -5h41q21 -3 47 -3t71 5t69 12q26 8 34 10t14 4q6 3 12 3t12 2q14 7 44 17q31 10 90 41 q85 55 125 96q67 60 104 122q85 146 97 274q4 40 4 94t-6 86t-10 44q-2 12 -2 15v8q0 24 14 35q6 12 21 5t19 -12q5 -6 11 -9l4 -11q0 -14 11 -49q10 -87 10 -153t-21 -160q-32 -102 -81 -191q-99 -157 -277 -262q-134 -65 -191 -70q-58 -4 -92 -8t-94 3t-86 13t-41 10 t-27 10t-22 8q-10 4 -25 13t-9 11zM569 400l15 6l8 -10l-16 -7zM580 381l16 11l29 -54q4 -4 4 -8v-4q0 -2 -4 -6q-3 0 -5 -2t-3 -2v-4h-3l-2 12q2 0 2 1v3q0 2 -2 6zM584 334l12 8l8 -16l-12 -6zM608 389v7q11 11 17 14h8q4 0 12 -8l15 -25q4 -4 4 -8h4l-11 -8h-4 q-3 -12 -12 -12l-4 -3q-4 0 -8 3h-4l-8 12v8q-4 4 4 4l12 19v4q-5 0 -5 2t-7 -2q-7 -3 -5 -5q1 -2 5 -2v-4l-9 -4q-4 4 -4 8zM629 373l4 -8q0 -8 4 -4h4q4 0 4 4v8l-4 12q-9 -1 -7 -3q3 -6 1 -6q-3 0 -4 -2t-2 -1zM641 418l16 8v-4h3v8q12 9 16 11l8 -4v8q3 3 6 10t11 -2 q4 0 12 -8l24 -39l-16 -6l-20 37q-3 0 -3 4q-10 0 -10 -8v-2q0 -1 2 -5l19 -34l-11 -7l-22 37l-4 4q-3 -3 -9 -4t5 -12l20 -33l-12 -8zM701 478l12 8l12 -21l4 8l4 5q9 5 15 1q6 -5 10 -7t10 -14t6 -18t-8 -14q-6 0 -6 -4q-4 0 -8 4l4 -8l-15 -8zM733 461q1 -3 3 -7l4 -8 t4 -7q1 -3 4 -6q12 -9 12 6q0 6 -6 13t-6 10l-4 4t-3 2t-4 -3q-8 0 -4 -4zM760 486q5 20 22 20h7l12 -8q0 -4 8 -12l4 -12q4 -1 4 -9l-4 -8l-8 -8l-12 -4h-8l-7 8l-12 12l-4 9zM774 482q-4 -4 4 -4q0 -4 4 -5l3 -8l8 -8h4q2 2 2 3q0 2 1 6q2 4 -4 11t-7 10q-2 5 -5 5 q-4 0 -6 2l-4 -4v-8zM793 514l8 3l-4 8q-8 0 -4 4v8q4 -4 4 4q4 -4 4 4l8 4l8 -12h-4q-4 0 -4 -4v-4l4 -4l8 4l4 -8l-8 -4l25 -43l-10 -5l-27 41l-8 -4zM797 986l57 33l58 -91q0 19 6 31q6 17 24 23q65 45 135 -70q37 -62 37 -100t-50 -63q-6 -3 -16 -3t-34 8l16 -24 l-53 -31zM832 517q-10 10 0 20q0 3 2 4t5 5q3 3 11 3h8q15 -15 15 -20q8 -8 8 -12v-19l-19 -12h-12q0 3 -2 4t-6 4t-4 6q0 2 -3 6t-3 11zM842 521q4 -4 4 -7l8 -8q-4 -4 4 -4q0 -8 4 -4h4l3 5v3q0 8 -7 15q-6 12 -12 12q0 4 -8 4v-16zM866 558l11 8l4 -8v8q12 12 20 12l6 -4 t5 -8l22 -33l-16 -8l-17 33l-8 4l-4 -4q-6 0 0 -9l20 -32l-12 -11zM901 601l13 8l8 -15l8 4l8 -8v8q0 7 4 7q0 3 2 4t6 5q3 3 11 3t16 -8v-4l-12 -7q-7 4 -4 7h-8l-3 -7l3 -4v-4h8l8 4h12q6 0 10 -8v-19q1 -7 -7 -7l-9 -5h-10q-5 0 -12 7v4l12 4q0 -8 4 -4h8q0 1 2 3 q1 0 2 1v8q-8 0 -4 4h-8l-8 -4h-11q-4 0 -12 8v4l-8 -4l16 -28q0 -3 2 -3h5l4 3l4 -9h-4q0 -8 -4 -4l-7 -4h-4q-4 -4 -4 4l-4 4l-20 29l-2 -4l-7 8l7 4zM939 895q6 -24 22 -48q17 -23 25 -37t20 -24q12 -12 32 0q18 12 12 34q-6 20 -24 46q-16 26 -25 40q-25 39 -47 26 t-15 -37zM977 620q0 6 8 15h13l-9 19l9 12l43 -68l-11 -8l-4 8l-5 -14q-10 -10 -19 -2q-8 0 -13 16q-12 16 -12 22zM994 627q-5 -4 1 -14q7 -11 9 -13t2 -6h8q4 4 4 7l-8 16q0 6 -8 10h-8zM1022 644q0 6 4 10q0 4 8 12q7 0 11 4q0 -4 8 -4l14 -16v-4l-22 -15v-4q2 0 2 -1 t2 -1l4 -4h8l2 4v4t-2 2l10 8q4 -4 4 -12q0 -18 -22 -18h-8q-15 15 -15 18q-4 0 -4 8q-4 3 -4 9zM1034 646l3 -4v-3l16 7q0 1 -2 3q-1 0 -2 1q0 1 -2 3q-1 0 -2 1h-8v-4q-3 0 -3 -4zM1061 670v4q0 5 8 12t15 7q6 0 14 -8v-3l-12 -4l-4 4h-4l-3 -4v-8h3q0 -3 2 -3t2 3h24 q3 0 4 -3t5 -8q3 -4 3 -5v-8l-8 -4l-4 -7l-12 -4h-8q-4 -4 -4 4l-7 4v3l11 8v-4l8 -4h4q4 4 4 8v4l-4 4h-4l-12 -4h-11q-8 0 -8 8zM1061 1012q0 53 49 72q23 19 39 21t45 -5q39 -29 58 -60q18 -31 26 -43t9 -26q8 -16 8 -40q0 -46 -39 -68q-66 -36 -94 -17q-24 8 -41 35 q-18 26 -27 41q-33 37 -33 90zM1067 1283q0 33 27 45h4q16 -5 41 -27q50 -28 77 -56q26 -27 46 -47t30 -33t16 -19l8 -12t6 -10t4 -9q2 -4 21 -37q18 -33 16 -53q-3 -21 -7 -21q-11 0 -26 19q-14 19 -18 25t-9 14q-20 17 -25 30l-28 35q-14 15 -30 33q-69 78 -143 116 q-7 4 -8 6t-2 1zM1086 719l12 7l8 -11l-16 -8zM1094 699l16 8l29 -49l-14 -8zM1118 1031q0 -23 8 -38t12 -24q3 -9 12 -21t21 -30q22 -34 52 -24q18 12 14 32t-28 64q-32 46 -43 53q-16 18 -33 4q-11 -6 -15 -16zM1121 707v8l8 8l8 3h1q1 0 2 -1t3 -2l-4 7l12 8l31 -49 q4 -7 4 -16t-9 -13t-13 -7t-6 -1t-5 2t-6 4l12 8h11q4 0 4 8l-4 4l-4 7v-7q-14 -8 -23 -8l-14 19zM1137 705q0 -8 5 -14t9 -6h8v4q2 0 2 2t-2 2v4l-12 18q-3 3 -7 3t-3 -7v-6zM1159 742l11 8l4 -8q0 8 2 8t5 7q4 5 13 5l6 -4t5 -8l22 -35l-12 -8l-21 35l-4 4h-4 q-10 -5 -4 -16l23 -31l-15 -6zM1227 734l12 8l7 -16l-11 -7zM1227 779q5 0 5 4q1 4 10 10q10 6 16 2q6 0 12 -12l-12 -8q0 4 -4 4v4h-8l-3 -4v-4q0 -10 19 -29l4 4q1 0 4 4t-4 12l12 7q8 -13 8 -19q-8 -8 -12 -16q-8 0 -12 -2q-6 -3 -27 18l-4 15q-4 4 -4 10zM1268 803 q2 3 4 7t4 4t6 4t9 4h8q24 -24 24 -31v-18l-20 -11h-12l-5 7q0 3 -6 8t-6 14q-8 9 -6 12zM1286 795q1 -4 1 -8l8 -8q-6 -6 6 -6h6q4 1 4 5q-1 4 -3 8l-6 12q-6 12 -16 12v-15zM1307 830l12 8l4 -4v8q5 5 7 8l8 1l5 -1h3q0 4 8 12t10 1q3 0 11 -8l24 -37l-16 -8l-19 40h-10 v-4q-4 0 -2 -2t2 -6l17 -35l-9 -8l-24 39l-4 4q-5 -5 -6 -5q-1 -1 -1 -3v-3q0 -2 3 -5l20 -35l-12 -8zM1358 986v4q6 4 49 18h4l3 -8l4 -18l5 -10l4 -8t3 -9l-8 -16q-26 -32 -47 0q-1 3 -2 7t-3 8t-4 12q-4 8 -4 12z" />
<glyph unicode="2" horiz-adv-x="1588" d="M60 728q0 44 12 114t32 120q24 63 78 148q53 84 138 153q46 39 95 67q50 28 64 36t22 10l15 5q6 1 12 3q7 2 27 8t79 19q77 8 127 8h30q11 -3 29 -5q94 -8 168 -44q12 -6 24 -10q12 -6 17 -12q4 -6 -2 -5q-11 0 -47 8t-109 15l-56 2q-42 2 -113 -9t-108 -24 q-36 -14 -46 -18t-24 -9q-13 -5 -20 -9q-7 -5 -16 -9q-58 -29 -135 -92q-89 -83 -123 -141q-98 -162 -98 -339q0 -76 8 -113q18 -112 65 -192q45 -90 107 -152l18 -18q2 -11 6 -25t5 -22q-6 -11 -15 -11h-18q-20 0 -30 10q-76 72 -133 180t-77 226q-8 83 -8 127zM248 649 l56 36l125 -205q30 -53 18 -85q-11 -32 -51 -58q-44 -19 -56 -16q-31 8 -48 24q-17 12 -23 31l-8 12l55 33q8 -24 24 -36t33 -1q15 5 15 23l-6 15t-9 22zM380 257l16 8l25 -30l-15 37l15 12l28 -33l-16 41l24 16l25 -36h4l-18 43l14 8l31 -31l-19 39l12 5l-1 1l16 8l25 -30 l-13 38l13 7l28 -29l-16 37l12 8l19 -57l-11 -7l-32 29l16 -37l-16 -8l-35 35l18 -51l-16 -8l-27 32l15 -39l-15 -10l-41 45l19 -57l-11 -8l-32 30l16 -41l-16 -8zM396 601q0 25 2 32t8 13t15 17q9 12 32 25q31 16 68 16q32 -16 41 -43l72 -113q3 -6 8 -12q4 -6 8 -10 t16 -17l-53 -29q-3 2 -6 2t-6 3t-4 6t-4 6q0 -24 -11 -37q-6 -12 -32 -23q-10 -12 -30 -12t-35 14q-16 14 -21 24q-4 9 -8 15t-7 15v24q1 7 7 18t10 18t8 12l27 28q18 18 15 26q-4 7 -9 17t-17 10q-13 8 -25 -4t-12 -20t11 -29l-50 -31q-18 14 -18 39zM505 519q0 -17 11 -24 t17 -12t13 -1t10 6t6 5t4 6t4 6v19q0 12 -4 16l-25 41q-3 -3 -4 -7q-5 -16 -16 -16q-16 -21 -16 -39zM554 741l55 35l14 -23q0 25 11 33q8 25 46 36q10 3 19 3q8 0 17 -5l18 -10q-6 23 7 42q14 19 28 26q25 20 49 8q19 -5 41 -37l96 -160l-53 -36l-92 153q-6 6 -10 11t-9 8 q-29 0 -38 -27q0 -13 12 -29l86 -145l-57 -35l-91 152q-5 5 -9 11t-9 9q-30 0 -39 -28q0 -12 12 -33l88 -142l-57 -34zM559 69q7 3 19 1t28 -4t38 -6q21 -4 45 -4h41q20 -3 46 -3t72 5q45 5 69 12q25 8 33 10l16 4q6 2 12 2t10 4q14 7 45 16q31 10 90 41q85 55 125 96 q67 60 104 122q86 146 98 274q4 41 3 95t-7 86t-8 44t-3 14v8q0 24 14 35q6 12 21 5t19 -12q5 -6 11 -9l4 -11q0 -14 11 -49q10 -87 10 -153t-21 -160q-32 -102 -81 -191q-99 -157 -277 -262q-134 -65 -191 -70q-57 -4 -91 -8t-95 3q-60 7 -86 13q-26 7 -41 11q-16 4 -28 8 q-12 6 -22 10t-24 12q-15 9 -9 11zM578 407l15 6l8 -10l-16 -7zM589 388l16 11l29 -54q4 -4 4 -8v-4q0 -2 -4 -6q-2 -1 -4 -3t-4 -1v-4h-3l-2 12q2 0 2 1v3q0 2 -2 6zM593 341l12 8l8 -16l-12 -6zM617 396v7q11 11 17 14h8q4 0 12 -8l15 -25q4 -4 4 -8h4l-11 -8h-4 q-3 -12 -12 -12l-4 -3q-4 0 -8 3h-4l-8 12v8q-4 4 4 4l12 19v4q-4 -1 -4 1t-8 -1q-7 -3 -5 -5q1 -2 5 -2v-4l-9 -4q-4 4 -4 8zM638 380l4 -8q0 -8 4 -4h4q4 0 4 4v8l-4 12q-8 0 -6 -2q3 -4 0 -6q-3 0 -4 -2t-2 -2zM650 425l16 8v-4h3v8q12 9 16 11l8 -4v8q3 3 6 10t11 -2 q4 0 12 -8l24 -39l-16 -6l-20 37q-3 0 -3 4q-10 0 -10 -8v-2q0 -1 2 -5l19 -34l-11 -7l-22 37l-4 4q-3 -3 -9 -4t5 -12l20 -33l-12 -8zM710 485l12 8l12 -21l4 8l4 5q10 5 16 1t8 -6q4 -2 10 -15q6 -12 7 -18q0 -6 -8 -14q-6 0 -6 -4q-4 0 -8 4l4 -8l-15 -8zM742 468 q0 -2 2 -6t6 -8q2 -4 3 -8q1 -3 4 -6q12 -9 12 6q1 6 -5 13t-7 10t-3 5t-4 1q-1 0 -4 -3q-8 0 -4 -4zM769 493q5 20 22 20h7l12 -8q0 -4 8 -12l4 -12q4 -1 4 -9l-4 -8l-8 -8l-12 -4h-8l-7 8l-12 12l-4 9zM783 489q-4 -4 4 -4q0 -4 4 -5l3 -8l8 -8h4q2 2 2 3t1 5t-5 12 q-6 7 -6 10q-2 5 -5 5q-4 0 -6 2l-4 -4v-8zM802 521l8 3l-4 8q-8 0 -4 4v8q4 -4 4 4q4 -4 4 4l8 4l8 -12h-4q-4 0 -4 -4v-4l4 -4l8 4l4 -8l-8 -4l25 -43l-10 -5l-27 41l-8 -4zM806 993l57 33l58 -91q0 19 6 31q6 17 24 23q65 45 135 -70q37 -61 37 -99t-50 -64q-6 -3 -16 -3 t-34 8l16 -24l-53 -31zM841 524q-10 10 0 20q0 3 2 4q2 0 5 4t11 4h8q15 -15 15 -20q8 -8 8 -12v-19l-19 -12h-12q-1 3 -3 4t-5 4t-3 6t-4 7q-3 4 -3 10zM851 528q4 -4 4 -7l8 -8q-4 -4 4 -4q0 -8 4 -4h4l3 5v3q0 8 -7 15q-6 12 -12 12q0 4 -8 4v-16zM875 565l11 8l4 -8v8 q12 12 20 12q3 -3 6 -5t5 -7l22 -33l-16 -8l-17 33l-8 4l-4 -4q-6 0 0 -9l20 -32l-12 -11zM910 608l13 8l8 -15l8 4l8 -8v8q0 7 4 7q1 3 3 4q2 0 5 4t11 4t16 -8v-4l-12 -7q-7 4 -4 7h-8l-3 -7l3 -4v-4h8l8 4h12q6 0 10 -8v-19q0 -7 -8 -7l-8 -5h-10q-5 0 -12 7v4l12 4 q0 -8 4 -4h8q0 1 2 3q1 0 2 1v8q-8 0 -4 4h-8l-8 -4h-11q-4 0 -12 8v4l-8 -4l16 -28q0 -3 2 -3h5l4 3l4 -9h-4q0 -8 -4 -4l-7 -4h-4q-4 -4 -4 4l-4 4l-20 29l-2 -4l-7 8l7 4zM948 902q6 -24 22 -48q16 -22 24 -36t22 -26q12 -12 30 2q18 12 12 33t-22 47t-26 39 q-25 39 -47 26t-15 -37zM986 628q0 6 8 14h13l-9 19l9 12l43 -68l-11 -8l-4 8l-5 -14q-10 -10 -19 -2q-8 0 -13 16q-12 17 -12 23zM1003 634q-5 -4 1 -14q6 -12 8 -14t3 -5h8q4 4 4 7l-8 16q0 6 -8 10h-8zM1031 652q0 6 4 9q0 4 8 12q7 0 11 4q0 -4 8 -4l14 -16v-4l-22 -15 v-4q2 0 2 -1t2 -1l4 -4h8l2 4v4t-2 2l10 8q4 -4 4 -12q0 -18 -22 -18h-8q-15 15 -15 18q-4 0 -4 8q-4 4 -4 10zM1043 653l3 -4v-3l16 7q0 1 -2 3q-1 0 -2 1q0 1 -2 3q-1 0 -2 1h-8v-4q-3 0 -3 -4zM1070 677v4q0 5 8 12t15 7q6 0 14 -8v-3l-12 -4l-4 4h-4l-3 -4v-8h3 q0 -3 2 -3t2 3h24q3 0 4 -3t5 -8q3 -4 3 -5v-8l-8 -4l-4 -7l-12 -4h-8q-4 -4 -4 4l-7 4v3l11 8v-4l8 -4h4q4 4 4 8v4l-4 4h-4l-12 -4h-11q-8 0 -8 8zM1070 1019q0 53 49 72q23 19 39 21t45 -5q39 -29 58 -60t27 -43t8 -26q8 -16 8 -40q0 -46 -39 -68q-66 -36 -94 -17 q-24 8 -41 35q-18 26 -27 41q-33 37 -33 90zM1076 1290q0 33 27 45h4q16 -5 41 -27q50 -28 77 -56t47 -48t30 -32q10 -14 14 -20t9 -12q4 -6 6 -10q3 -4 5 -8t20 -37t16 -53q-2 -21 -6 -21q-11 0 -27 19q-15 19 -19 25t-8 14q-20 17 -25 30l-28 35q-15 14 -31 32 q-69 78 -142 117q-7 3 -8 5t-2 2zM1095 726l12 7l8 -11l-16 -8zM1103 706l16 8l29 -49l-14 -8zM1127 1038q1 -23 9 -38t11 -24q3 -8 12 -20t21 -31q22 -34 52 -24q18 12 14 32t-28 64q-32 46 -43 53q-16 18 -33 4q-11 -6 -15 -16zM1130 714v8l8 8l8 3h1q1 0 2 -1t3 -2l-4 7 l12 8l31 -49q4 -7 4 -16q0 -10 -9 -14l-12 -6t-6 0t-6 2q-3 0 -6 3l12 8h11q4 0 4 8l-4 4l-4 7v-7q-14 -8 -23 -8l-14 19zM1146 712q0 -8 5 -14t9 -6h8v4q2 0 2 2t-2 2v4l-12 18q-2 3 -6 3t-4 -7v-6zM1168 749l11 8l4 -8q0 9 2 9t5 6q4 5 13 5q3 -3 6 -5t5 -7l22 -35l-12 -8 l-21 35l-4 4h-4q-10 -5 -4 -16l23 -31l-15 -6zM1236 741l12 8l7 -16l-11 -7zM1236 786q4 0 4 4q1 4 11 10t16 2q6 0 12 -12l-12 -8q0 4 -4 4v4h-8l-3 -4v-4q0 -10 19 -29l4 4q1 1 4 5t-4 11l12 7q8 -13 8 -19q-8 -8 -12 -16q-8 0 -12 -2q-6 -3 -27 18l-4 15q-4 4 -4 10z M1276 810q2 2 5 6t5 5t6 5t8 3h8q24 -24 24 -31v-18l-20 -11h-12l-5 7q0 3 -6 8t-6 14q-9 9 -7 12zM1295 802q1 -4 1 -8l8 -8q-6 -6 6 -6h6q4 2 4 6t-2 6q-2 4 -8 13q-6 12 -15 12v-15zM1316 837l12 8l4 -4v8q5 5 7 8l8 1l5 -1h3q-1 5 7 13t11 0q3 0 11 -8l24 -37l-16 -8 l-19 40h-10v-4q-3 -1 -1 -3t1 -5l17 -35l-9 -8l-24 39l-4 4q-5 -5 -6 -5q-1 -1 -1 -3v-3q0 -2 3 -5l20 -35l-12 -8zM1367 993v4q6 4 49 18h4l3 -8l4 -18q3 -5 5 -9t4 -9q2 -4 3 -9l-8 -16q-26 -32 -47 0q-1 2 -2 6q0 4 -2 8t-6 14q-4 8 -3 11z" />
<glyph unicode="3" horiz-adv-x="1575" d="M43 728q0 44 12 114t32 120q24 63 78 148q53 84 138 153q46 39 95 67q50 28 64 36t22 10q8 3 14 5q6 1 13 3t27 8t79 19q77 8 127 8h30q11 -3 29 -5q95 -8 169 -44q12 -6 24 -10q12 -6 16 -12t-2 -5q-11 0 -47 8t-109 15l-56 2q-42 2 -113 -9t-108 -24q-37 -14 -47 -18 q-9 -4 -22 -9q-14 -5 -21 -9q-7 -5 -16 -9q-58 -29 -135 -92q-89 -83 -123 -141q-98 -162 -98 -339q0 -76 8 -113q18 -112 65 -192q45 -90 107 -152l18 -18q3 -11 7 -25t4 -22q-6 -11 -15 -11h-18q-21 0 -31 10q-76 72 -132 180q-57 108 -77 226q-8 83 -8 127zM231 649 l56 36l125 -205q30 -53 18 -85q-11 -32 -51 -58q-45 -19 -57 -16q-31 8 -47 24q-17 12 -23 31l-8 12l55 33q8 -24 24 -36t33 -1q15 5 15 23q-3 5 -7 15t-8 22zM363 257l16 8l25 -30l-15 37l15 12l28 -33l-16 41l24 16l25 -36h4l-18 43l14 8l31 -31l-19 39l12 5l-1 1l16 8 l25 -30l-13 38l13 7l28 -29l-16 37l12 8l19 -57l-11 -7l-32 29l16 -37l-16 -8l-35 35l18 -51l-16 -8l-27 32l15 -39l-15 -10l-41 45l19 -57l-11 -8l-32 30l16 -41l-16 -8zM379 601q1 25 3 32t8 13t14 17q9 12 32 25q31 16 68 16q32 -16 41 -43l72 -113q3 -6 8 -12t9 -10 t15 -17l-53 -29q-3 2 -6 2t-6 3t-4 6t-4 6q0 -24 -11 -37q-6 -12 -32 -23q-10 -12 -30 -12t-35 14q-16 14 -21 24q-5 9 -9 15t-6 15v24q0 7 6 18t10 18t9 12l27 28q18 18 15 26q-4 7 -9 17t-17 10q-13 8 -25 -4t-12 -20t11 -29l-50 -31q-18 14 -18 39zM488 519q0 -17 11 -24 t17 -12t13 -1t10 6t6 5t4 6t4 6v19q0 12 -4 16l-25 41q-3 -3 -4 -7q-5 -16 -16 -16q-16 -21 -16 -39zM537 741l55 35l14 -23q0 25 11 33q9 25 47 36q10 3 18 3t17 -5l18 -10q-6 23 7 42q14 19 28 26q25 20 49 8q19 -5 41 -37l96 -160l-53 -36l-92 153q-6 6 -10 11t-9 8 q-29 0 -38 -27q0 -13 12 -29l86 -145l-57 -35l-91 152q-4 5 -8 11t-10 9q-30 0 -39 -28q0 -12 12 -33l88 -142l-57 -34zM542 69q7 3 19 1q13 -2 29 -4t37 -6t45 -4h41q21 -3 47 -3t71 5t69 12q26 8 34 10t14 4t12 2t12 4q14 7 44 16q31 10 90 41q85 55 125 96q67 60 104 122 q85 146 97 274q4 41 4 95t-6 86t-10 44q-2 12 -2 14v8q0 24 14 35q6 12 21 5t19 -12q5 -6 11 -9l4 -11q0 -14 11 -49q10 -87 10 -153t-21 -160q-32 -102 -81 -191q-99 -157 -277 -262q-134 -65 -191 -70q-58 -4 -92 -8t-94 3t-86 13q-26 7 -41 11t-27 8q-12 6 -22 10t-25 12 q-15 9 -9 11zM561 407l15 6l8 -10l-16 -7zM572 388l16 11l29 -54q4 -4 4 -8v-4q0 -2 -4 -6q-3 -1 -5 -3t-3 -1v-4h-3l-2 12q2 0 2 1v3q0 2 -2 6zM576 341l12 8l8 -16l-12 -6zM600 396v7q11 11 17 14h8q4 0 12 -8l15 -25q4 -4 4 -8h4l-11 -8h-4q-3 -12 -12 -12l-4 -3 q-4 0 -8 3h-4l-8 12v8q-4 4 4 4l12 19v4q-5 -1 -5 1t-7 -1t-5 -5q1 -2 5 -2v-4l-9 -4q-4 4 -4 8zM621 380l4 -8q0 -8 4 -4h4q4 0 4 4v8l-4 12q-9 0 -7 -2q3 -6 1 -7q-3 1 -4 -1t-2 -2zM633 425l16 8v-4h3v8q12 9 16 11l8 -4v8q3 3 6 10t11 -2q4 0 12 -8l24 -39l-16 -6 l-20 37q-3 0 -3 4q-10 0 -10 -8v-2q0 -1 2 -5l19 -34l-11 -7l-22 37l-4 4q-3 -3 -9 -4t5 -12l20 -33l-12 -8zM693 485l12 8l12 -21l4 8l4 5q9 5 15 1t10 -6t10 -15q6 -12 6 -18t-8 -14q-6 0 -6 -4q-4 0 -8 4l4 -8l-15 -8zM725 468l3 -6l4 -8l4 -8q1 -3 4 -6q12 -9 12 6 q0 6 -6 13t-6 10q-2 3 -4 5t-3 1q-1 0 -4 -3q-8 0 -4 -4zM752 493q5 20 22 20h7l12 -8q0 -4 8 -12l4 -12q4 -1 4 -9l-4 -8l-8 -8l-12 -4h-8l-7 8l-12 12l-4 9zM766 489q-4 -4 4 -4q0 -4 4 -5l3 -8l8 -8h4q2 2 2 3t1 5q2 4 -4 12q-6 7 -7 10q-2 5 -5 5q-4 0 -6 2l-4 -4v-8z M785 521l8 3l-4 8q-8 0 -4 4v8q4 -4 4 4q4 -4 4 4l8 4l8 -12h-4q-4 0 -4 -4v-4l4 -4l8 4l4 -8l-8 -4l25 -43l-10 -5l-27 41l-8 -4zM789 993l57 33l58 -91q0 19 6 31q6 17 24 23q65 45 135 -70q37 -61 37 -99t-50 -64q-6 -3 -16 -3t-34 8l16 -24l-53 -31zM824 524 q-10 10 0 20q0 3 2 4q2 0 5 4q3 3 11 4h8q15 -15 15 -20q8 -8 8 -12v-19l-19 -12h-12q0 3 -2 4t-6 4t-4 6t-3 7t-3 10zM834 528q4 -4 4 -7l8 -8q-4 -4 4 -4q0 -8 4 -4h4l3 5v3q0 8 -7 15q-6 12 -12 12q0 4 -8 4v-16zM858 565l11 8l4 -8v8q12 12 20 12q3 -3 6 -5t5 -7l22 -33 l-16 -8l-17 33l-8 4l-4 -4q-6 0 0 -9l20 -32l-12 -11zM893 608l13 8l8 -15l8 4l8 -8v8q0 7 4 7q0 3 2 4q2 0 6 4q3 4 11 4t16 -8v-4l-12 -7q-7 4 -4 7h-8l-3 -7l3 -4v-4h8l8 4h12q6 0 10 -8v-19q1 -7 -7 -7l-9 -5h-10q-5 0 -12 7v4l12 4q0 -8 4 -4h8q0 1 2 3q1 0 2 1v8 q-8 0 -4 4h-8l-8 -4h-11q-4 0 -12 8v4l-8 -4l16 -28q0 -3 2 -3h5l4 3l4 -9h-4q0 -8 -4 -4l-7 -4h-4q-4 -4 -4 4l-4 4l-20 29l-2 -4l-7 8l7 4zM931 902q6 -24 22 -48q17 -22 25 -36t20 -26t32 2q18 12 12 33t-24 47q-16 26 -25 39q-25 39 -47 26t-15 -37zM969 628q0 6 8 14 h13l-9 19l9 12l43 -68l-11 -8l-4 8l-5 -14q-10 -10 -19 -2q-8 0 -13 16q-12 17 -12 23zM986 634q-5 -4 1 -14q7 -12 9 -14t2 -5h8q4 4 4 7l-8 16q0 6 -8 10h-8zM1014 652q0 6 4 9q0 4 8 12q7 0 11 4q0 -4 8 -4l14 -16v-4l-22 -15v-4q2 0 2 -1t2 -1l4 -4h8l2 4v4t-2 2l10 8 q4 -4 4 -12q0 -18 -22 -18h-8q-15 15 -15 18q-4 0 -4 8q-4 4 -4 10zM1026 653l3 -4v-3l16 7q0 1 -2 3q-1 0 -2 1q0 1 -2 3q-1 0 -2 1h-8v-4q-3 0 -3 -4zM1053 677v4q0 5 8 12t15 7q6 0 14 -8v-3l-12 -4l-4 4h-4l-3 -4v-8h3q0 -3 2 -3t2 3h24q3 0 4 -3t5 -8q3 -4 3 -5v-8 l-8 -4l-4 -7l-12 -4h-8q-4 -4 -4 4l-7 4v3l11 8v-4l8 -4h4q4 4 4 8v4l-4 4h-4l-12 -4h-11q-8 0 -8 8zM1053 1019q0 53 49 72q23 19 39 21t45 -5q39 -29 58 -60q18 -31 26 -43t9 -26q8 -16 8 -40q0 -46 -39 -68q-66 -36 -94 -17q-24 8 -41 35q-18 26 -27 41q-33 37 -33 90z M1059 1290q0 33 27 45h4q16 -5 41 -27q50 -28 77 -56q26 -28 46 -48t30 -32q10 -14 16 -20l8 -12t6 -10l4 -8q3 -4 21 -37t16 -53q-3 -21 -7 -21q-11 0 -26 19q-14 19 -18 25t-9 14q-20 17 -25 30l-28 35q-14 14 -30 32q-69 78 -143 117q-7 3 -8 5t-2 2zM1078 726l12 7 l8 -11l-16 -8zM1086 706l16 8l29 -49l-14 -8zM1110 1038q0 -23 8 -38t12 -24q3 -9 12 -20t21 -31q22 -34 52 -24q18 12 14 32t-28 64q-32 46 -43 53q-16 18 -33 4q-11 -6 -15 -16zM1113 714v8l8 8l8 3h1q1 0 2 -1t3 -2l-4 7l12 8l31 -49q4 -7 4 -16q0 -10 -9 -14t-13 -6 t-6 0t-5 2t-6 3l12 8h11q4 0 4 8l-4 4l-4 7v-7q-14 -8 -23 -8l-14 19zM1129 712q0 -8 5 -14t9 -6h8v4q2 0 2 2t-2 2v4l-12 18q-3 3 -7 3t-3 -7v-6zM1151 749l11 8l4 -8q0 9 2 9t5 6q4 6 13 5q3 -3 6 -5t5 -7l22 -35l-12 -8l-21 35l-4 4h-4q-10 -5 -4 -16l23 -31l-15 -6z M1219 741l12 8l7 -16l-11 -7zM1219 786q5 0 5 4q1 4 10 10q10 6 16 2q6 0 12 -12l-12 -8q0 4 -4 4v4h-8l-3 -4v-4q0 -10 19 -29l4 4q1 1 4 5t-4 11l12 7q8 -13 8 -19q-8 -8 -12 -16q-8 0 -12 -2q-6 -3 -27 18l-4 15q-4 4 -4 10zM1260 810q2 2 4 6t4 5t6 5t9 3h8 q24 -24 24 -31v-18l-20 -11h-12l-5 7q0 3 -6 8t-6 14q-8 9 -6 12zM1278 802q1 -4 1 -8l8 -8q-6 -6 6 -6h6q4 2 4 6q-1 4 -3 6q-2 4 -6 13q-6 12 -16 12v-15zM1299 837l12 8l4 -4v8q5 5 7 8l8 1l5 -1h3q0 5 8 13t10 0q3 0 11 -8l24 -37l-16 -8l-19 40h-10v-4q-4 -1 -2 -3 t2 -5l17 -35l-9 -8l-24 39l-4 4q-5 -5 -6 -5q-1 -1 -1 -3v-3q0 -2 3 -5l20 -35l-12 -8zM1350 993v4q6 4 49 18h4l3 -8l4 -18q3 -5 5 -9t4 -9q2 -4 3 -9l-8 -16q-26 -32 -47 0q-1 2 -2 6t-3 8t-4 14q-4 8 -4 11z" />
<glyph unicode="4" horiz-adv-x="1600" d="M52 728q0 44 12 114t32 120q24 63 78 148q53 84 138 153q46 39 95 67q50 28 64 36t22 10l15 5q6 1 12 3q7 2 27 8t79 19q77 8 127 8h30q11 -3 29 -5q94 -8 168 -44q12 -6 24 -10q12 -6 17 -12q4 -6 -2 -5q-11 0 -47 8t-109 15l-56 2q-42 2 -113 -9t-108 -24 q-36 -14 -46 -18t-24 -9q-13 -5 -20 -9q-7 -5 -16 -9q-58 -29 -135 -92q-89 -83 -123 -141q-98 -162 -98 -339q0 -76 8 -113q18 -112 65 -192q45 -90 107 -152l18 -18q2 -11 6 -25t5 -22q-6 -11 -15 -11h-18q-20 0 -30 10q-76 72 -133 180t-77 226q-8 83 -8 127zM240 649 l56 36l125 -205q30 -53 18 -85q-11 -32 -51 -58q-44 -19 -56 -16q-31 8 -48 24q-17 12 -23 31l-8 12l55 33q8 -24 24 -36t33 -1q15 5 15 23l-6 15t-9 22zM372 257l16 8l25 -30l-15 37l15 12l28 -33l-16 41l24 16l25 -36h4l-18 43l14 8l31 -31l-19 39l12 5l-1 1l16 8l25 -30 l-13 38l13 7l28 -29l-16 37l12 8l19 -57l-11 -7l-32 29l16 -37l-16 -8l-35 35l18 -51l-16 -8l-27 32l15 -39l-15 -10l-41 45l19 -57l-11 -8l-32 30l16 -41l-16 -8zM388 601q0 25 2 32t8 13t15 17q9 12 32 25q31 16 68 16q32 -16 41 -43l72 -113q3 -6 8 -12q4 -6 8 -10 t16 -17l-53 -29q-3 2 -6 2t-6 3t-4 6t-4 6q0 -24 -11 -37q-6 -12 -32 -23q-10 -12 -30 -12t-35 14q-16 14 -21 24q-4 9 -8 15t-7 15v24q1 7 7 18t10 18t8 12l27 28q18 18 15 26q-4 7 -9 17t-17 10q-13 8 -25 -4t-12 -20t11 -29l-50 -31q-18 14 -18 39zM497 519q0 -17 11 -24 t17 -12t13 -1t10 6t6 5t4 6t4 6v19q0 12 -4 16l-25 41q-3 -3 -4 -7q-5 -16 -16 -16q-16 -21 -16 -39zM546 741l55 35l14 -23q0 25 11 33q8 25 46 36q10 3 19 3q8 0 17 -5l18 -10q-6 23 7 42q14 19 28 26q25 20 49 8q19 -5 41 -37l96 -160l-53 -36l-92 153q-6 6 -10 11t-9 8 q-29 0 -38 -27q0 -13 12 -29l86 -145l-57 -35l-91 152q-5 5 -9 11t-9 9q-30 0 -39 -28q0 -12 12 -33l88 -142l-57 -34zM551 69q7 3 19 1t28 -4t38 -6q21 -4 45 -4h41q20 -3 46 -3t72 5q45 5 69 12q25 8 33 10l16 4q6 2 12 2t10 4q14 7 45 16q31 10 90 41q85 55 125 96 q67 60 104 122q86 146 98 274q4 41 3 95t-7 86t-8 44t-3 14v8q0 24 14 35q6 12 21 5t19 -12q5 -6 11 -9l4 -11q0 -14 11 -49q10 -87 10 -153t-21 -160q-32 -102 -81 -191q-99 -157 -277 -262q-134 -65 -191 -70q-57 -4 -91 -8t-95 3q-60 7 -86 13q-26 7 -41 11q-16 4 -28 8 q-12 6 -22 10t-24 12q-15 9 -9 11zM570 407l15 6l8 -10l-16 -7zM581 388l16 11l29 -54q4 -4 4 -8v-4q0 -2 -4 -6q-2 -1 -4 -3t-4 -1v-4h-3l-2 12q2 0 2 1v3q0 2 -2 6zM585 341l12 8l8 -16l-12 -6zM609 396v7q11 11 17 14h8q4 0 12 -8l15 -25q4 -4 4 -8h4l-11 -8h-4 q-3 -12 -12 -12l-4 -3q-4 0 -8 3h-4l-8 12v8q-4 4 4 4l12 19v4q-4 -1 -4 1t-8 -1q-7 -3 -5 -5q1 -2 5 -2v-4l-9 -4q-4 4 -4 8zM630 380l4 -8q0 -8 4 -4h4q4 0 4 4v8l-4 12q-8 0 -6 -2q3 -6 0 -7q-3 1 -4 -1t-2 -2zM642 425l16 8v-4h3v8q12 9 16 11l8 -4v8q3 3 6 10t11 -2 q4 0 12 -8l24 -39l-16 -6l-20 37q-3 0 -3 4q-10 0 -10 -8v-2q0 -1 2 -5l19 -34l-11 -7l-22 37l-4 4q-3 -3 -9 -4t5 -12l20 -33l-12 -8zM702 485l12 8l12 -21l4 8l4 5q10 5 16 1t8 -6q4 -2 10 -15q6 -12 7 -18q0 -6 -8 -14q-6 0 -6 -4q-4 0 -8 4l4 -8l-15 -8zM734 468 q0 -2 2 -6t6 -8q2 -4 3 -8q1 -3 4 -6q12 -9 12 6q1 6 -5 13t-7 10t-3 5t-4 1q-1 0 -4 -3q-8 0 -4 -4zM761 493q5 20 22 20h7l12 -8q0 -4 8 -12l4 -12q4 -1 4 -9l-4 -8l-8 -8l-12 -4h-8l-7 8l-12 12l-4 9zM775 489q-4 -4 4 -4q0 -4 4 -5l3 -8l8 -8h4q2 2 2 3t1 5t-5 12 q-6 7 -6 10q-2 5 -5 5q-4 0 -6 2l-4 -4v-8zM794 521l8 3l-4 8q-8 0 -4 4v8q4 -4 4 4q4 -4 4 4l8 4l8 -12h-4q-4 0 -4 -4v-4l4 -4l8 4l4 -8l-8 -4l25 -43l-10 -5l-27 41l-8 -4zM798 993l57 33l58 -91q0 19 6 31q6 17 24 23q65 45 135 -70q37 -61 37 -99t-50 -64q-6 -3 -16 -3 t-34 8l16 -24l-53 -31zM833 524q-10 10 0 20q0 3 2 4q2 0 5 4t11 4h8q15 -15 15 -20q8 -8 8 -12v-19l-19 -12h-12q-1 3 -3 4t-5 4t-3 6t-4 7q-3 4 -3 10zM843 528q4 -4 4 -7l8 -8q-4 -4 4 -4q0 -8 4 -4h4l3 5v3q0 8 -7 15q-6 12 -12 12q0 4 -8 4v-16zM867 565l11 8l4 -8v8 q12 12 20 12q3 -3 6 -5t5 -7l22 -33l-16 -8l-17 33l-8 4l-4 -4q-6 0 0 -9l20 -32l-12 -11zM902 608l13 8l8 -15l8 4l8 -8v8q0 7 4 7q1 3 3 4q2 0 5 4q3 3 11 4q8 0 16 -8v-4l-12 -7q-7 4 -4 7h-8l-3 -7l3 -4v-4h8l8 4h12q6 0 10 -8v-19q0 -7 -8 -7l-8 -5h-10q-5 0 -12 7v4 l12 4q0 -8 4 -4h8q0 1 2 3q1 0 2 1v8q-8 0 -4 4h-8l-8 -4h-11q-4 0 -12 8v4l-8 -4l16 -28q0 -3 2 -3h5l4 3l4 -9h-4q0 -8 -4 -4l-7 -4h-4q-4 -4 -4 4l-4 4l-20 29l-2 -4l-7 8l7 4zM940 902q6 -24 22 -48q16 -22 24 -36t22 -26q12 -12 30 2q18 12 12 33t-22 47t-26 39 q-25 39 -47 26t-15 -37zM978 628q0 6 8 14h13l-9 19l9 12l43 -68l-11 -8l-4 8l-5 -14q-10 -10 -19 -2q-8 0 -13 16q-12 17 -12 23zM995 634q-5 -4 1 -14q6 -12 8 -14t3 -5h8q4 4 4 7l-8 16q0 6 -8 10h-8zM1023 652q0 6 4 9q0 4 8 12q7 0 11 4q0 -4 8 -4l14 -16v-4l-22 -15 v-4q2 0 2 -1t2 -1l4 -4h8l2 4v4t-2 2l10 8q4 -4 4 -12q0 -18 -22 -18h-8q-15 15 -15 18q-4 0 -4 8q-4 4 -4 10zM1035 653l3 -4v-3l16 7q0 1 -2 3q-1 0 -2 1q0 1 -2 3q-1 0 -2 1h-8v-4q-3 0 -3 -4zM1062 677v4q0 5 8 12t15 7q6 0 14 -8v-3l-12 -4l-4 4h-4l-3 -4v-8h3 q0 -3 2 -3t2 3h24q3 0 4 -3t5 -8q3 -4 3 -5v-8l-8 -4l-4 -7l-12 -4h-8q-4 -4 -4 4l-7 4v3l11 8v-4l8 -4h4q4 4 4 8v4l-4 4h-4l-12 -4h-11q-8 0 -8 8zM1062 1019q0 53 49 72q23 19 39 21t45 -5q39 -29 58 -60t27 -43t8 -26q8 -16 8 -40q0 -46 -39 -68q-66 -36 -94 -17 q-24 8 -41 35q-18 26 -27 41q-33 37 -33 90zM1068 1290q0 33 27 45h4q16 -5 41 -27q50 -28 77 -56t47 -48t30 -32q10 -14 14 -20t9 -12q4 -6 6 -10q3 -4 5 -8q3 -4 20 -37q18 -33 16 -53q-2 -21 -6 -21q-11 0 -27 19q-15 19 -19 25t-8 14q-20 17 -25 30l-28 35 q-15 14 -31 32q-69 78 -142 117q-7 3 -8 5t-2 2zM1087 726l12 7l8 -11l-16 -8zM1095 706l16 8l29 -49l-14 -8zM1119 1038q1 -23 9 -38t11 -24t12 -20t21 -31q22 -34 52 -24q18 12 14 32t-28 64q-32 46 -43 53q-16 18 -33 4q-11 -6 -15 -16zM1122 714v8l8 8l8 3h1q1 0 2 -1 t3 -2l-4 7l12 8l31 -49q4 -7 4 -16q0 -10 -9 -14l-12 -6t-6 0t-6 2q-3 0 -6 3l12 8h11q4 0 4 8l-4 4l-4 7v-7q-14 -8 -23 -8l-14 19zM1138 712q0 -8 5 -14t9 -6h8v4q2 0 2 2t-2 2v4l-12 18q-2 3 -6 3t-4 -7v-6zM1160 749l11 8l4 -8q0 9 2 9t5 6q4 6 13 5q3 -3 6 -5t5 -7 l22 -35l-12 -8l-21 35l-4 4h-4q-10 -5 -4 -16l23 -31l-15 -6zM1228 741l12 8l7 -16l-11 -7zM1228 786q4 0 4 4q1 4 11 10t16 2q6 0 12 -12l-12 -8q0 4 -4 4v4h-8l-3 -4v-4q0 -10 19 -29l4 4q1 1 4 5t-4 11l12 7q8 -13 8 -19q-8 -8 -12 -16q-8 0 -12 -2q-6 -3 -27 18l-4 15 q-4 4 -4 10zM1268 810q2 2 5 6t5 5t6 5t8 3h8q24 -24 24 -31v-18l-20 -11h-12l-5 7q0 3 -6 8t-6 14q-9 9 -7 12zM1287 802q1 -4 1 -8l8 -8q-6 -6 6 -6h6q4 2 4 6t-2 6q-2 4 -8 13q-6 12 -15 12v-15zM1308 837l12 8l4 -4v8q5 5 7 8l8 1l5 -1h3q-1 5 7 13t11 0q3 0 11 -8 l24 -37l-16 -8l-19 40h-10v-4q-3 -1 -1 -3t1 -5l17 -35l-9 -8l-24 39l-4 4q-5 -5 -6 -5q-1 -1 -1 -3v-3q0 -2 3 -5l20 -35l-12 -8zM1359 993v4q6 4 49 18h4l3 -8l4 -18q3 -5 5 -9t4 -9q2 -4 3 -9l-8 -16q-26 -32 -47 0q-1 2 -2 6q0 4 -2 8t-6 14q-4 8 -3 11z" />
<glyph unicode="5" horiz-adv-x="1563" d="M35 728q0 44 12 114t32 120q24 63 78 148q53 84 138 153q46 39 95 67q50 28 64 36t22 10q8 3 14 5q6 1 13 3t27 8t79 19q77 8 127 8h30q11 -3 29 -5q95 -8 169 -44q12 -6 24 -10q12 -6 16 -12t-2 -5q-11 0 -47 8t-109 15l-56 2q-42 2 -113 -9t-108 -24q-37 -14 -47 -18 t-22 -9q-14 -5 -21 -9q-7 -5 -16 -9q-58 -29 -135 -92q-89 -83 -123 -141q-98 -162 -98 -339q0 -76 8 -113q18 -112 65 -192q45 -90 107 -152l18 -18q3 -11 7 -25t4 -22q-6 -11 -15 -11h-18q-21 0 -31 10q-76 72 -132 180q-57 108 -77 226q-8 83 -8 127zM223 649l56 36 l125 -205q30 -53 18 -85q-11 -32 -51 -58q-45 -19 -57 -16q-31 8 -47 24q-17 12 -23 31l-8 12l55 33q8 -24 24 -36t33 -1q15 5 15 23q-3 5 -7 15t-8 22zM355 257l16 8l25 -30l-15 37l15 12l28 -33l-16 41l24 16l25 -36h4l-18 43l14 8l31 -31l-19 39l12 5l-1 1l16 8l25 -30 l-13 38l13 7l28 -29l-16 37l12 8l19 -57l-11 -7l-32 29l16 -37l-16 -8l-35 35l18 -51l-16 -8l-27 32l15 -39l-15 -10l-41 45l19 -57l-11 -8l-32 30l16 -41l-16 -8zM371 601q1 25 3 32t8 13t14 17q9 12 32 25q31 16 68 16q32 -16 41 -43l72 -113q3 -6 8 -12t9 -10t15 -17 l-53 -29q-3 2 -6 2t-6 3t-4 6t-4 6q0 -24 -11 -37q-6 -12 -32 -23q-10 -12 -30 -12t-35 14q-16 14 -21 24q-5 9 -9 15t-6 15v24q0 7 6 18t10 18t9 12l27 28q18 18 15 26q-4 7 -9 17t-17 10q-13 8 -25 -4t-12 -20t11 -29l-50 -31q-18 14 -18 39zM480 519q0 -17 11 -24t17 -12 t13 -1t10 6t6 5t4 6t4 6v19q0 12 -4 16l-25 41q-3 -3 -4 -7q-5 -16 -16 -16q-16 -21 -16 -39zM529 741l55 35l14 -23q0 25 11 33q9 25 47 36q10 3 18 3t17 -5l18 -10q-6 23 7 42q14 19 28 26q25 20 49 8q19 -5 41 -37l96 -160l-53 -36l-92 153q-6 6 -10 11t-9 8 q-29 0 -38 -27q0 -13 12 -29l86 -145l-57 -35l-91 152q-4 5 -8 11t-10 9q-30 0 -39 -28q0 -12 12 -33l88 -142l-57 -34zM534 69q7 3 19 1q13 -2 29 -4t37 -6t45 -4h41q21 -3 47 -3t71 5t69 12q26 8 34 10t14 4t12 2t12 4q14 7 44 16q31 10 90 41q85 55 125 96q67 60 104 122 q85 146 97 274q4 41 4 95t-6 86t-10 44q-2 12 -2 14v8q0 24 14 35q6 12 21 5t19 -12q5 -6 11 -9l4 -11q0 -14 11 -49q10 -87 10 -153t-21 -160q-32 -102 -81 -191q-99 -157 -277 -262q-134 -65 -191 -70q-58 -4 -92 -8t-94 3t-86 13q-26 7 -41 11t-27 8q-12 6 -22 10t-25 12 q-15 9 -9 11zM553 407l15 6l8 -10l-16 -7zM564 388l16 11l29 -54q4 -4 4 -8v-4q0 -2 -4 -6q-3 -1 -5 -3t-3 -1v-4h-3l-2 12q2 0 2 1v3q0 2 -2 6zM568 341l12 8l8 -16l-12 -6zM592 396v7q11 11 17 14h8q4 0 12 -8l15 -25q4 -4 4 -8h4l-11 -8h-4q-3 -12 -12 -12l-4 -3 q-4 0 -8 3h-4l-8 12v8q-4 4 4 4l12 19v4q-5 -1 -5 1t-7 -1t-5 -5q1 -2 5 -2v-4l-9 -4q-4 4 -4 8zM613 380l4 -8q0 -8 4 -4h4q4 0 4 4v8l-4 12q-9 0 -7 -2q3 -6 1 -7q-3 1 -4 -1t-2 -2zM625 425l16 8v-4h3v8q12 9 16 11l8 -4v8q3 3 6 10t11 -2q4 0 12 -8l24 -39l-16 -6 l-20 37q-3 0 -3 4q-10 0 -10 -8v-2q0 -1 2 -5l19 -34l-11 -7l-22 37l-4 4q-3 -3 -9 -4t5 -12l20 -33l-12 -8zM685 485l12 8l12 -21l4 8l4 5q9 5 15 1t10 -6t10 -15q6 -12 6 -18t-8 -14q-6 0 -6 -4q-4 0 -8 4l4 -8l-15 -8zM717 468l3 -6l4 -8l4 -8q1 -3 4 -6q12 -9 12 6 q0 6 -6 13t-6 10q-2 3 -4 5t-3 1q-1 0 -4 -3q-8 0 -4 -4zM744 493q5 20 22 20h7l12 -8q0 -4 8 -12l4 -12q4 -1 4 -9l-4 -8l-8 -8l-12 -4h-8l-7 8l-12 12l-4 9zM758 489q-4 -4 4 -4q0 -4 4 -5l3 -8l8 -8h4q2 2 2 3t1 5q2 4 -4 12q-6 7 -7 10q-2 5 -5 5q-4 0 -6 2l-4 -4v-8z M777 521l8 3l-4 8q-8 0 -4 4v8q4 -4 4 4q4 -4 4 4l8 4l8 -12h-4q-4 0 -4 -4v-4l4 -4l8 4l4 -8l-8 -4l25 -43l-10 -5l-27 41l-8 -4zM781 993l57 33l58 -91q0 19 6 31q6 17 24 23q65 45 135 -70q37 -61 37 -99t-50 -64q-6 -3 -16 -3t-34 8l16 -24l-53 -31zM816 524 q-10 10 0 20q0 3 2 4q2 0 5 4t11 4h8q15 -15 15 -20q8 -8 8 -12v-19l-19 -12h-12q0 3 -2 4t-6 4t-4 6t-3 7t-3 10zM826 528q4 -4 4 -7l8 -8q-4 -4 4 -4q0 -8 4 -4h4l3 5v3q0 8 -7 15q-6 12 -12 12q0 4 -8 4v-16zM850 565l11 8l4 -8v8q12 12 20 12q3 -3 6 -5t5 -7l22 -33 l-16 -8l-17 33l-8 4l-4 -4q-6 0 0 -9l20 -32l-12 -11zM885 608l13 8l8 -15l8 4l8 -8v8q0 7 4 7q0 3 2 4q2 0 6 4q3 4 11 4t16 -8v-4l-12 -7q-7 4 -4 7h-8l-3 -7l3 -4v-4h8l8 4h12q6 0 10 -8v-19q1 -7 -7 -7l-9 -5h-10q-5 0 -12 7v4l12 4q0 -8 4 -4h8q0 1 2 3q1 0 2 1v8 q-8 0 -4 4h-8l-8 -4h-11q-4 0 -12 8v4l-8 -4l16 -28q0 -3 2 -3h5l4 3l4 -9h-4q0 -8 -4 -4l-7 -4h-4q-4 -4 -4 4l-4 4l-20 29l-2 -4l-7 8l7 4zM923 902q6 -24 22 -48q17 -22 25 -36t20 -26t32 2q18 12 12 33t-24 47q-16 26 -25 39q-25 39 -47 26t-15 -37zM961 628q0 6 8 14 h13l-9 19l9 12l43 -68l-11 -8l-4 8l-5 -14q-10 -10 -19 -2q-8 0 -13 16q-12 17 -12 23zM978 634q-5 -4 1 -14q7 -12 9 -14t2 -5h8q4 4 4 7l-8 16q0 6 -8 10h-8zM1006 652q0 6 4 9q0 4 8 12q7 0 11 4q0 -4 8 -4l14 -16v-4l-22 -15v-4q2 0 2 -1t2 -1l4 -4h8l2 4v4t-2 2l10 8 q4 -4 4 -12q0 -18 -22 -18h-8q-15 15 -15 18q-4 0 -4 8q-4 4 -4 10zM1018 653l3 -4v-3l16 7q0 1 -2 3q-1 0 -2 1q0 1 -2 3q-1 0 -2 1h-8v-4q-3 0 -3 -4zM1045 677v4q0 5 8 12t15 7q6 0 14 -8v-3l-12 -4l-4 4h-4l-3 -4v-8h3q0 -3 2 -3t2 3h24q3 0 4 -3t5 -8q3 -4 3 -5v-8 l-8 -4l-4 -7l-12 -4h-8q-4 -4 -4 4l-7 4v3l11 8v-4l8 -4h4q4 4 4 8v4l-4 4h-4l-12 -4h-11q-8 0 -8 8zM1045 1019q0 53 49 72q23 19 39 21t45 -5q39 -29 58 -60q18 -31 26 -43t9 -26q8 -16 8 -40q0 -46 -39 -68q-66 -36 -94 -17q-24 8 -41 35q-18 26 -27 41q-33 37 -33 90z M1051 1290q0 33 27 45h4q16 -5 41 -27q50 -28 77 -56q26 -28 46 -48t30 -32q10 -14 16 -20l8 -12t6 -10l4 -8t21 -37q18 -33 16 -53q-3 -21 -7 -21q-11 0 -26 19q-14 19 -18 25t-9 14q-20 17 -25 30l-28 35q-14 14 -30 32q-69 78 -143 117q-7 3 -8 5t-2 2zM1070 726l12 7 l8 -11l-16 -8zM1078 706l16 8l29 -49l-14 -8zM1102 1038q0 -23 8 -38t12 -24q3 -8 12 -20t21 -31q22 -34 52 -24q18 12 14 32t-28 64q-32 46 -43 53q-16 18 -33 4q-11 -6 -15 -16zM1105 714v8l8 8l8 3h1q1 0 2 -1t3 -2l-4 7l12 8l31 -49q4 -7 4 -16q0 -10 -9 -14t-13 -6 t-6 0t-5 2t-6 3l12 8h11q4 0 4 8l-4 4l-4 7v-7q-14 -8 -23 -8l-14 19zM1121 712q0 -8 5 -14t9 -6h8v4q2 0 2 2t-2 2v4l-12 18q-3 3 -7 3t-3 -7v-6zM1143 749l11 8l4 -8q0 9 2 9t5 6q4 6 13 5q3 -3 6 -5t5 -7l22 -35l-12 -8l-21 35l-4 4h-4q-10 -5 -4 -16l23 -31l-15 -6z M1211 741l12 8l7 -16l-11 -7zM1211 786q5 0 5 4q1 4 10 10q10 6 16 2q6 0 12 -12l-12 -8q0 4 -4 4v4h-8l-3 -4v-4q0 -10 19 -29l4 4q1 1 4 5t-4 11l12 7q8 -13 8 -19q-8 -8 -12 -16q-8 0 -12 -2q-6 -3 -27 18l-4 15q-4 4 -4 10zM1252 810q2 2 4 6t4 5t6 5t9 3h8 q24 -24 24 -31v-18l-20 -11h-12l-5 7q0 3 -6 8t-6 14q-8 9 -6 12zM1270 802q1 -4 1 -8l8 -8q-6 -6 6 -6h6q4 2 4 6q-1 4 -3 6q-2 4 -6 13q-6 12 -16 12v-15zM1291 837l12 8l4 -4v8q5 5 7 8l8 1l5 -1h3q0 5 8 13t10 0q3 0 11 -8l24 -37l-16 -8l-19 40h-10v-4q-4 -1 -2 -3 t2 -5l17 -35l-9 -8l-24 39l-4 4q-5 -5 -6 -5q-1 -1 -1 -3v-3q0 -2 3 -5l20 -35l-12 -8zM1342 993v4q6 4 49 18h4l3 -8l4 -18q3 -5 5 -9t4 -9q2 -4 3 -9l-8 -16q-26 -32 -47 0q-1 2 -2 6t-3 8t-4 14q-4 8 -4 11z" />
<glyph unicode="6" horiz-adv-x="1608" d="M60 728q0 44 12 114t32 120q24 63 78 148q53 84 138 153q46 39 95 67q50 28 64 36t22 10l15 5q6 1 12 3q7 2 27 8t79 19q77 8 127 8h30q11 -3 29 -5q94 -8 168 -44q12 -6 24 -10q12 -6 17 -12q4 -6 -2 -5q-11 0 -47 8t-109 15l-56 2q-42 2 -113 -9t-108 -24 q-36 -14 -46 -18t-24 -9q-13 -5 -20 -9q-7 -5 -16 -9q-58 -29 -135 -92q-89 -83 -123 -141q-98 -162 -98 -339q0 -76 8 -113q18 -112 65 -192q45 -90 107 -152l18 -18q2 -11 6 -25t5 -22q-6 -11 -15 -11h-18q-20 0 -30 10q-76 72 -133 180t-77 226q-8 83 -8 127zM248 649 l56 36l125 -205q30 -53 18 -85q-11 -32 -51 -58q-44 -19 -56 -16q-31 8 -48 24q-17 12 -23 31l-8 12l55 33q8 -24 24 -36t33 -1q15 5 15 23l-6 15t-9 22zM380 257l16 8l25 -30l-15 37l15 12l28 -33l-16 41l24 16l25 -36h4l-18 43l14 8l31 -31l-19 39l12 5l-1 1l16 8l25 -30 l-13 38l13 7l28 -29l-16 37l12 8l19 -57l-11 -7l-32 29l16 -37l-16 -8l-35 35l18 -51l-16 -8l-27 32l15 -39l-15 -10l-41 45l19 -57l-11 -8l-32 30l16 -41l-16 -8zM396 601q0 25 2 32t8 13t15 17q9 12 32 25q31 16 68 16q32 -16 41 -43l72 -113q3 -6 8 -12q4 -6 8 -10 t16 -17l-53 -29q-3 2 -6 2t-6 3t-4 6t-4 6q0 -24 -11 -37q-6 -12 -32 -23q-10 -12 -30 -12t-35 14q-16 14 -21 24q-4 9 -8 15t-7 15v24q1 7 7 18t10 18t8 12l27 28q18 18 15 26q-4 7 -9 17t-17 10q-13 8 -25 -4t-12 -20t11 -29l-50 -31q-18 14 -18 39zM505 519q0 -17 11 -24 t17 -12t13 -1t10 6t6 5t4 6t4 6v19q0 12 -4 16l-25 41q-3 -3 -4 -7q-5 -16 -16 -16q-16 -21 -16 -39zM554 741l55 35l14 -23q0 25 11 33q8 25 46 36q10 3 19 3q8 0 17 -5l18 -10q-6 23 7 42q14 19 28 26q25 20 49 8q19 -5 41 -37l96 -160l-53 -36l-92 153q-6 6 -10 11t-9 8 q-29 0 -38 -27q0 -13 12 -29l86 -145l-57 -35l-91 152q-5 5 -9 11t-9 9q-30 0 -39 -28q0 -12 12 -33l88 -142l-57 -34zM559 69q7 3 19 1t28 -4t38 -6q21 -4 45 -4h41q20 -3 46 -3t72 5q45 5 69 12q25 8 33 10l16 4q6 2 12 2t10 4q14 7 45 16q31 10 90 41q85 55 125 96 q67 60 104 122q86 146 98 274q4 41 3 95t-7 86t-8 44t-3 14v8q0 24 14 35q6 12 21 5t19 -12q5 -6 11 -9l4 -11q0 -14 11 -49q10 -87 10 -153t-21 -160q-32 -102 -81 -191q-99 -157 -277 -262q-134 -65 -191 -70q-57 -4 -91 -8t-95 3q-60 7 -86 13q-26 7 -41 11q-16 4 -28 8 q-12 6 -22 10t-24 12q-15 9 -9 11zM578 407l15 6l8 -10l-16 -7zM589 388l16 11l29 -54q4 -4 4 -8v-4q0 -2 -4 -6q-2 -1 -4 -3t-4 -1v-4h-3l-2 12q2 0 2 1v3q0 2 -2 6zM593 341l12 8l8 -16l-12 -6zM617 396v7q11 11 17 14h8q4 0 12 -8l15 -25q4 -4 4 -8h4l-11 -8h-4 q-3 -12 -12 -12l-4 -3q-4 0 -8 3h-4l-8 12v8q-4 4 4 4l12 19v4q-4 -1 -4 1t-8 -1q-7 -3 -5 -5q1 -2 5 -2v-4l-9 -4q-4 4 -4 8zM638 380l4 -8q0 -8 4 -4h4q4 0 4 4v8l-4 12q-8 0 -6 -2q3 -4 0 -6q-3 0 -4 -2t-2 -2zM650 425l16 8v-4h3v8q12 9 16 11l8 -4v8q3 3 6 10t11 -2 q4 0 12 -8l24 -39l-16 -6l-20 37q-3 0 -3 4q-10 0 -10 -8v-2q0 -1 2 -5l19 -34l-11 -7l-22 37l-4 4q-3 -3 -9 -4t5 -12l20 -33l-12 -8zM710 485l12 8l12 -21l4 8l4 5q10 5 16 1t8 -6q4 -2 10 -15q6 -12 7 -18q0 -6 -8 -14q-6 0 -6 -4q-4 0 -8 4l4 -8l-15 -8zM742 468 q0 -2 2 -6t6 -8q2 -4 3 -8q1 -3 4 -6q12 -9 12 6q1 6 -5 13t-7 10t-3 5t-4 1q-1 0 -4 -3q-8 0 -4 -4zM769 493q5 20 22 20h7l12 -8q0 -4 8 -12l4 -12q4 -1 4 -9l-4 -8l-8 -8l-12 -4h-8l-7 8l-12 12l-4 9zM783 489q-4 -4 4 -4q0 -4 4 -5l3 -8l8 -8h4q2 2 2 3t1 5t-5 12 q-6 7 -6 10q-2 5 -5 5q-4 0 -6 2l-4 -4v-8zM802 521l8 3l-4 8q-8 0 -4 4v8q4 -4 4 4q4 -4 4 4l8 4l8 -12h-4q-4 0 -4 -4v-4l4 -4l8 4l4 -8l-8 -4l25 -43l-10 -5l-27 41l-8 -4zM806 993l57 33l58 -91q0 19 6 31q6 17 24 23q65 45 135 -70q37 -61 37 -99t-50 -64q-6 -3 -16 -3 t-34 8l16 -24l-53 -31zM841 524q-10 10 0 20q0 3 2 4q2 0 5 4t11 4h8q15 -15 15 -20q8 -8 8 -12v-19l-19 -12h-12q-1 3 -3 4t-5 4t-3 6t-4 7q-3 4 -3 10zM851 528q4 -4 4 -7l8 -8q-4 -4 4 -4q0 -8 4 -4h4l3 5v3q0 8 -7 15q-6 12 -12 12q0 4 -8 4v-16zM875 565l11 8l4 -8v8 q12 12 20 12q3 -3 6 -5t5 -7l22 -33l-16 -8l-17 33l-8 4l-4 -4q-6 0 0 -9l20 -32l-12 -11zM910 608l13 8l8 -15l8 4l8 -8v8q0 7 4 7q1 3 3 4q2 0 5 4t11 4t16 -8v-4l-12 -7q-7 4 -4 7h-8l-3 -7l3 -4v-4h8l8 4h12q6 0 10 -8v-19q0 -7 -8 -7l-8 -5h-10q-5 0 -12 7v4l12 4 q0 -8 4 -4h8q0 1 2 3q1 0 2 1v8q-8 0 -4 4h-8l-8 -4h-11q-4 0 -12 8v4l-8 -4l16 -28q0 -3 2 -3h5l4 3l4 -9h-4q0 -8 -4 -4l-7 -4h-4q-4 -4 -4 4l-4 4l-20 29l-2 -4l-7 8l7 4zM948 902q6 -24 22 -48q16 -22 24 -36t22 -26q12 -12 30 2q18 12 12 33t-22 47t-26 39 q-25 39 -47 26t-15 -37zM986 628q0 6 8 14h13l-9 19l9 12l43 -68l-11 -8l-4 8l-5 -14q-10 -10 -19 -2q-8 0 -13 16q-12 17 -12 23zM1003 634q-5 -4 1 -14q6 -12 8 -14t3 -5h8q4 4 4 7l-8 16q0 6 -8 10h-8zM1031 652q0 6 4 9q0 4 8 12q7 0 11 4q0 -4 8 -4l14 -16v-4l-22 -15 v-4q2 0 2 -1t2 -1l4 -4h8l2 4v4t-2 2l10 8q4 -4 4 -12q0 -18 -22 -18h-8q-15 15 -15 18q-4 0 -4 8q-4 4 -4 10zM1043 653l3 -4v-3l16 7q0 1 -2 3q-1 0 -2 1q0 1 -2 3q-1 0 -2 1h-8v-4q-3 0 -3 -4zM1070 677v4q0 5 8 12t15 7q6 0 14 -8v-3l-12 -4l-4 4h-4l-3 -4v-8h3 q0 -3 2 -3t2 3h24q3 0 4 -3t5 -8q3 -4 3 -5v-8l-8 -4l-4 -7l-12 -4h-8q-4 -4 -4 4l-7 4v3l11 8v-4l8 -4h4q4 4 4 8v4l-4 4h-4l-12 -4h-11q-8 0 -8 8zM1070 1019q0 53 49 72q23 19 39 21t45 -5q39 -29 58 -60t27 -43t8 -26q8 -16 8 -40q0 -46 -39 -68q-66 -36 -94 -17 q-24 8 -41 35q-18 26 -27 41q-33 37 -33 90zM1076 1290q0 33 27 45h4q16 -5 41 -27q50 -28 77 -56t47 -48t30 -32q10 -14 14 -20t9 -12q4 -6 6 -10q3 -4 5 -8t20 -37t16 -53q-2 -21 -6 -21q-11 0 -27 19q-15 19 -19 25t-8 14q-20 17 -25 30l-28 35q-15 14 -31 32 q-69 78 -142 117q-7 3 -8 5t-2 2zM1095 726l12 7l8 -11l-16 -8zM1103 706l16 8l29 -49l-14 -8zM1127 1038q1 -23 9 -38t11 -24q3 -8 12 -20t21 -31q22 -34 52 -24q18 12 14 32t-28 64q-32 46 -43 53q-16 18 -33 4q-11 -6 -15 -16zM1130 714v8l8 8l8 3h1q1 0 2 -1t3 -2l-4 7 l12 8l31 -49q4 -7 4 -16q0 -10 -9 -14l-12 -6t-6 0t-6 2q-3 0 -6 3l12 8h11q4 0 4 8l-4 4l-4 7v-7q-14 -8 -23 -8l-14 19zM1146 712q0 -8 5 -14t9 -6h8v4q2 0 2 2t-2 2v4l-12 18q-2 3 -6 3t-4 -7v-6zM1168 749l11 8l4 -8q0 9 2 9t5 6q4 5 13 5q3 -3 6 -5t5 -7l22 -35l-12 -8 l-21 35l-4 4h-4q-10 -5 -4 -16l23 -31l-15 -6zM1236 741l12 8l7 -16l-11 -7zM1236 786q4 0 4 4q1 4 11 10t16 2q6 0 12 -12l-12 -8q0 4 -4 4v4h-8l-3 -4v-4q0 -10 19 -29l4 4q1 1 4 5t-4 11l12 7q8 -13 8 -19q-8 -8 -12 -16q-8 0 -12 -2q-6 -3 -27 18l-4 15q-4 4 -4 10z M1276 810q2 2 5 6t5 5t6 5t8 3h8q24 -24 24 -31v-18l-20 -11h-12l-5 7q0 3 -6 8t-6 14q-9 9 -7 12zM1295 802q1 -4 1 -8l8 -8q-6 -6 6 -6h6q4 2 4 6t-2 6q-2 4 -8 13q-6 12 -15 12v-15zM1316 837l12 8l4 -4v8q5 5 7 8l8 1l5 -1h3q-1 5 7 13t11 0q3 0 11 -8l24 -37l-16 -8 l-19 40h-10v-4q-3 -1 -1 -3t1 -5l17 -35l-9 -8l-24 39l-4 4q-5 -5 -6 -5q-1 -1 -1 -3v-3q0 -2 3 -5l20 -35l-12 -8zM1367 993v4q6 4 49 18h4l3 -8l4 -18q3 -5 5 -9t4 -9q2 -4 3 -9l-8 -16q-26 -32 -47 0q-1 2 -2 6q0 4 -2 8t-6 14q-4 8 -3 11z" />
<glyph unicode="7" horiz-adv-x="1567" d="M60 728q0 44 12 114t32 120q24 63 78 148q53 84 138 153q46 39 95 67q50 28 64 36t22 10l15 5q6 1 12 3q7 2 27 8t79 19q77 8 127 8h30q11 -3 29 -5q94 -8 168 -44q12 -6 24 -10q12 -6 17 -12q4 -6 -2 -5q-11 0 -47 8t-109 15l-56 2q-42 2 -113 -9t-108 -24 q-36 -14 -46 -18t-24 -9q-13 -5 -20 -9q-7 -5 -16 -9q-58 -29 -135 -92q-89 -83 -123 -141q-98 -162 -98 -339q0 -76 8 -113q18 -112 65 -192q45 -90 107 -152l18 -18q2 -11 6 -25t5 -22q-6 -11 -15 -11h-18q-20 0 -30 10q-76 72 -133 180t-77 226q-8 83 -8 127zM248 649 l56 36l125 -205q30 -53 18 -85q-11 -32 -51 -58q-44 -19 -56 -16q-31 8 -48 24q-17 12 -23 31l-8 12l55 33q8 -24 24 -36t33 -1q15 5 15 23l-6 15t-9 22zM380 257l16 8l25 -30l-15 37l15 12l28 -33l-16 41l24 16l25 -36h4l-18 43l14 8l31 -31l-19 39l12 5l-1 1l16 8l25 -30 l-13 38l13 7l28 -29l-16 37l12 8l19 -57l-11 -7l-32 29l16 -37l-16 -8l-35 35l18 -51l-16 -8l-27 32l15 -39l-15 -10l-41 45l19 -57l-11 -8l-32 30l16 -41l-16 -8zM396 601q0 25 2 32t8 13t15 17q9 12 32 25q31 16 68 16q32 -16 41 -43l72 -113q3 -6 8 -12q4 -6 8 -10 t16 -17l-53 -29q-3 2 -6 2t-6 3t-4 6t-4 6q0 -24 -11 -37q-6 -12 -32 -23q-10 -12 -30 -12t-35 14q-16 14 -21 24q-4 9 -8 15t-7 15v24q1 7 7 18t10 18t8 12l27 28q18 18 15 26q-4 7 -9 17t-17 10q-13 8 -25 -4t-12 -20t11 -29l-50 -31q-18 14 -18 39zM505 519q0 -17 11 -24 t17 -12t13 -1t10 6t6 5t4 6t4 6v19q0 12 -4 16l-25 41q-3 -3 -4 -7q-5 -16 -16 -16q-16 -21 -16 -39zM554 741l55 35l14 -23q0 25 11 33q8 25 46 36q10 3 19 3q8 0 17 -5l18 -10q-6 23 7 42q14 19 28 26q25 20 49 8q19 -5 41 -37l96 -160l-53 -36l-92 153q-6 6 -10 11t-9 8 q-29 0 -38 -27q0 -13 12 -29l86 -145l-57 -35l-91 152q-5 5 -9 11t-9 9q-30 0 -39 -28q0 -12 12 -33l88 -142l-57 -34zM559 69q7 3 19 1t28 -4t38 -6q21 -4 45 -4h41q20 -3 46 -3t72 5q45 5 69 12q25 8 33 10l16 4q6 2 12 2t10 4q14 7 45 16q31 10 90 41q85 55 125 96 q67 60 104 122q86 146 98 274q4 41 3 95t-7 86t-8 44t-3 14v8q0 24 14 35q6 12 21 5t19 -12q5 -6 11 -9l4 -11q0 -14 11 -49q10 -87 10 -153t-21 -160q-32 -102 -81 -191q-99 -157 -277 -262q-134 -65 -191 -70q-57 -4 -91 -8t-95 3q-60 7 -86 13q-26 7 -41 11q-16 4 -28 8 q-12 6 -22 10t-24 12q-15 9 -9 11zM578 407l15 6l8 -10l-16 -7zM589 388l16 11l29 -54q4 -4 4 -8v-4q0 -2 -4 -6q-2 -1 -4 -3t-4 -1v-4h-3l-2 12q2 0 2 1v3q0 2 -2 6zM593 341l12 8l8 -16l-12 -6zM617 396v7q11 11 17 14h8q4 0 12 -8l15 -25q4 -4 4 -8h4l-11 -8h-4 q-3 -12 -12 -12l-4 -3q-4 0 -8 3h-4l-8 12v8q-4 4 4 4l12 19v4q-4 -1 -4 1t-8 -1q-7 -3 -5 -5q1 -2 5 -2v-4l-9 -4q-4 4 -4 8zM638 380l4 -8q0 -8 4 -4h4q4 0 4 4v8l-4 12q-8 0 -6 -2q3 -4 0 -6q-3 0 -4 -2t-2 -2zM650 425l16 8v-4h3v8q12 9 16 11l8 -4v8q3 3 6 10t11 -2 q4 0 12 -8l24 -39l-16 -6l-20 37q-3 0 -3 4q-10 0 -10 -8v-2q0 -1 2 -5l19 -34l-11 -7l-22 37l-4 4q-3 -3 -9 -4t5 -12l20 -33l-12 -8zM710 485l12 8l12 -21l4 8l4 5q10 5 16 1t8 -6q4 -2 10 -15q6 -12 7 -18q0 -6 -8 -14q-6 0 -6 -4q-4 0 -8 4l4 -8l-15 -8zM742 468 q0 -2 2 -6t6 -8q2 -4 3 -8q1 -3 4 -6q12 -9 12 6q1 6 -5 13t-7 10t-3 5t-4 1q-1 0 -4 -3q-8 0 -4 -4zM769 493q5 20 22 20h7l12 -8q0 -4 8 -12l4 -12q4 -1 4 -9l-4 -8l-8 -8l-12 -4h-8l-7 8l-12 12l-4 9zM783 489q-4 -4 4 -4q0 -4 4 -5l3 -8l8 -8h4q2 2 2 3t1 5t-5 12 q-6 7 -6 10q-2 5 -5 5q-4 0 -6 2l-4 -4v-8zM802 521l8 3l-4 8q-8 0 -4 4v8q4 -4 4 4q4 -4 4 4l8 4l8 -12h-4q-4 0 -4 -4v-4l4 -4l8 4l4 -8l-8 -4l25 -43l-10 -5l-27 41l-8 -4zM806 993l57 33l58 -91q0 19 6 31q6 17 24 23q65 45 135 -70q37 -61 37 -99t-50 -64q-6 -3 -16 -3 t-34 8l16 -24l-53 -31zM841 524q-10 10 0 20q0 3 2 4q2 0 5 4t11 4h8q15 -15 15 -20q8 -8 8 -12v-19l-19 -12h-12q-1 3 -3 4t-5 4t-3 6t-4 7q-3 4 -3 10zM851 528q4 -4 4 -7l8 -8q-4 -4 4 -4q0 -8 4 -4h4l3 5v3q0 8 -7 15q-6 12 -12 12q0 4 -8 4v-16zM875 565l11 8l4 -8v8 q12 12 20 12q3 -3 6 -5t5 -7l22 -33l-16 -8l-17 33l-8 4l-4 -4q-6 0 0 -9l20 -32l-12 -11zM910 608l13 8l8 -15l8 4l8 -8v8q0 7 4 7q1 3 3 4q2 0 5 4t11 4t16 -8v-4l-12 -7q-7 4 -4 7h-8l-3 -7l3 -4v-4h8l8 4h12q6 0 10 -8v-19q0 -7 -8 -7l-8 -5h-10q-5 0 -12 7v4l12 4 q0 -8 4 -4h8q0 1 2 3q1 0 2 1v8q-8 0 -4 4h-8l-8 -4h-11q-4 0 -12 8v4l-8 -4l16 -28q0 -3 2 -3h5l4 3l4 -9h-4q0 -8 -4 -4l-7 -4h-4q-4 -4 -4 4l-4 4l-20 29l-2 -4l-7 8l7 4zM948 902q6 -24 22 -48q16 -22 24 -36t22 -26q12 -12 30 2q18 12 12 33t-22 47t-26 39 q-25 39 -47 26t-15 -37zM986 628q0 6 8 14h13l-9 19l9 12l43 -68l-11 -8l-4 8l-5 -14q-10 -10 -19 -2q-8 0 -13 16q-12 17 -12 23zM1003 634q-5 -4 1 -14q6 -12 8 -14t3 -5h8q4 4 4 7l-8 16q0 6 -8 10h-8zM1031 652q0 6 4 9q0 4 8 12q7 0 11 4q0 -4 8 -4l14 -16v-4l-22 -15 v-4q2 0 2 -1t2 -1l4 -4h8l2 4v4t-2 2l10 8q4 -4 4 -12q0 -18 -22 -18h-8q-15 15 -15 18q-4 0 -4 8q-4 4 -4 10zM1043 653l3 -4v-3l16 7q0 1 -2 3q-1 0 -2 1q0 1 -2 3q-1 0 -2 1h-8v-4q-3 0 -3 -4zM1070 677v4q0 5 8 12t15 7q6 0 14 -8v-3l-12 -4l-4 4h-4l-3 -4v-8h3 q0 -3 2 -3t2 3h24q3 0 4 -3t5 -8q3 -4 3 -5v-8l-8 -4l-4 -7l-12 -4h-8q-4 -4 -4 4l-7 4v3l11 8v-4l8 -4h4q4 4 4 8v4l-4 4h-4l-12 -4h-11q-8 0 -8 8zM1070 1019q0 53 49 72q23 19 39 21t45 -5q39 -29 58 -60t27 -43t8 -26q8 -16 8 -40q0 -46 -39 -68q-66 -36 -94 -17 q-24 8 -41 35q-18 26 -27 41q-33 37 -33 90zM1076 1290q0 33 27 45h4q16 -5 41 -27q50 -28 77 -56t47 -48t30 -32q10 -14 14 -20t9 -12q4 -6 6 -10q3 -4 5 -8t20 -37t16 -53q-2 -21 -6 -21q-11 0 -27 19q-15 19 -19 25t-8 14q-20 17 -25 30l-28 35q-15 14 -31 32 q-69 78 -142 117q-7 3 -8 5t-2 2zM1095 726l12 7l8 -11l-16 -8zM1103 706l16 8l29 -49l-14 -8zM1127 1038q1 -23 9 -38t11 -24q3 -8 12 -20t21 -31q22 -34 52 -24q18 12 14 32t-28 64q-32 46 -43 53q-16 18 -33 4q-11 -6 -15 -16zM1130 714v8l8 8l8 3h1q1 0 2 -1t3 -2l-4 7 l12 8l31 -49q4 -7 4 -16q0 -10 -9 -14l-12 -6t-6 0t-6 2q-3 0 -6 3l12 8h11q4 0 4 8l-4 4l-4 7v-7q-14 -8 -23 -8l-14 19zM1146 712q0 -8 5 -14t9 -6h8v4q2 0 2 2t-2 2v4l-12 18q-2 3 -6 3t-4 -7v-6zM1168 749l11 8l4 -8q0 9 2 9t5 6q4 5 13 5q3 -3 6 -5t5 -7l22 -35l-12 -8 l-21 35l-4 4h-4q-10 -5 -4 -16l23 -31l-15 -6zM1236 741l12 8l7 -16l-11 -7zM1236 786q4 0 4 4q1 4 11 10t16 2q6 0 12 -12l-12 -8q0 4 -4 4v4h-8l-3 -4v-4q0 -10 19 -29l4 4q1 1 4 5t-4 11l12 7q8 -13 8 -19q-8 -8 -12 -16q-8 0 -12 -2q-6 -3 -27 18l-4 15q-4 4 -4 10z M1276 810q2 2 5 6t5 5t6 5t8 3h8q24 -24 24 -31v-18l-20 -11h-12l-5 7q0 3 -6 8t-6 14q-9 9 -7 12zM1295 802q1 -4 1 -8l8 -8q-6 -6 6 -6h6q4 2 4 6t-2 6q-2 4 -8 13q-6 12 -15 12v-15zM1316 837l12 8l4 -4v8q5 5 7 8l8 1l5 -1h3q-1 5 7 13t11 0q3 0 11 -8l24 -37l-16 -8 l-19 40h-10v-4q-3 -1 -1 -3t1 -5l17 -35l-9 -8l-24 39l-4 4q-5 -5 -6 -5q-1 -1 -1 -3v-3q0 -2 3 -5l20 -35l-12 -8zM1367 993v4q6 4 49 18h4l3 -8l4 -18q3 -5 5 -9t4 -9q2 -4 3 -9l-8 -16q-26 -32 -47 0q-1 2 -2 6q0 4 -2 8t-6 14q-4 8 -3 11z" />
<glyph unicode="8" horiz-adv-x="1543" d="M35 728q0 44 12 114t32 120q24 63 78 148q53 84 138 153q46 39 95 67q50 28 64 36t22 10q8 3 14 5q6 1 13 3t27 8t79 19q77 8 127 8h30q11 -3 29 -5q95 -8 169 -44q12 -6 24 -10q12 -6 16 -12t-2 -5q-11 0 -47 8t-109 15l-56 2q-42 2 -113 -9t-108 -24q-37 -14 -47 -18 t-22 -9q-14 -5 -21 -9q-7 -5 -16 -9q-58 -29 -135 -92q-89 -83 -123 -141q-98 -162 -98 -339q0 -76 8 -113q18 -112 65 -192q45 -90 107 -152l18 -18q3 -11 7 -25t4 -22q-6 -11 -15 -11h-18q-21 0 -31 10q-76 72 -132 180q-57 108 -77 226q-8 83 -8 127zM223 649l56 36 l125 -205q30 -53 18 -85q-11 -32 -51 -58q-45 -19 -57 -16q-31 8 -47 24q-17 12 -23 31l-8 12l55 33q8 -24 24 -36t33 -1q15 5 15 23q-3 5 -7 15t-8 22zM355 257l16 8l25 -30l-15 37l15 12l28 -33l-16 41l24 16l25 -36h4l-18 43l14 8l31 -31l-19 39l12 5l-1 1l16 8l25 -30 l-13 38l13 7l28 -29l-16 37l12 8l19 -57l-11 -7l-32 29l16 -37l-16 -8l-35 35l18 -51l-16 -8l-27 32l15 -39l-15 -10l-41 45l19 -57l-11 -8l-32 30l16 -41l-16 -8zM371 601q1 25 3 32t8 13t14 17q9 12 32 25q31 16 68 16q32 -16 41 -43l72 -113q3 -6 8 -12t9 -10t15 -17 l-53 -29q-3 2 -6 2t-6 3t-4 6t-4 6q0 -24 -11 -37q-6 -12 -32 -23q-10 -12 -30 -12t-35 14q-16 14 -21 24q-5 9 -9 15t-6 15v24q0 7 6 18t10 18t9 12l27 28q18 18 15 26q-4 7 -9 17t-17 10q-13 8 -25 -4t-12 -20t11 -29l-50 -31q-18 14 -18 39zM480 519q0 -17 11 -24t17 -12 t13 -1t10 6t6 5t4 6t4 6v19q0 12 -4 16l-25 41q-3 -3 -4 -7q-5 -16 -16 -16q-16 -21 -16 -39zM529 741l55 35l14 -23q0 25 11 33q9 25 47 36q10 3 18 3t17 -5l18 -10q-6 23 7 42q14 19 28 26q25 20 49 8q19 -5 41 -37l96 -160l-53 -36l-92 153q-6 6 -10 11t-9 8 q-29 0 -38 -27q0 -13 12 -29l86 -145l-57 -35l-91 152q-4 5 -8 11t-10 9q-30 0 -39 -28q0 -12 12 -33l88 -142l-57 -34zM534 69q7 3 19 1q13 -2 29 -4t37 -6t45 -4h41q21 -3 47 -3t71 5t69 12q26 8 34 10t14 4t12 2t12 4q14 7 44 16q31 10 90 41q85 55 125 96q67 60 104 122 q85 146 97 274q4 41 4 95t-6 86t-10 44q-2 12 -2 14v8q0 24 14 35q6 12 21 5t19 -12q5 -6 11 -9l4 -11q0 -14 11 -49q10 -87 10 -153t-21 -160q-32 -102 -81 -191q-99 -157 -277 -262q-134 -65 -191 -70q-58 -4 -92 -8t-94 3t-86 13q-26 7 -41 11t-27 8q-12 6 -22 10t-25 12 q-15 9 -9 11zM553 407l15 6l8 -10l-16 -7zM564 388l16 11l29 -54q4 -4 4 -8v-4q0 -2 -4 -6q-3 -1 -5 -3t-3 -1v-4h-3l-2 12q2 0 2 1v3q0 2 -2 6zM568 341l12 8l8 -16l-12 -6zM592 396v7q11 11 17 14h8q4 0 12 -8l15 -25q4 -4 4 -8h4l-11 -8h-4q-3 -12 -12 -12l-4 -3 q-4 0 -8 3h-4l-8 12v8q-4 4 4 4l12 19v4q-5 -1 -5 1t-7 -1t-5 -5q1 -2 5 -2v-4l-9 -4q-4 4 -4 8zM613 380l4 -8q0 -8 4 -4h4q4 0 4 4v8l-4 12q-9 0 -7 -2q3 -6 1 -7q-3 1 -4 -1t-2 -2zM625 425l16 8v-4h3v8q12 9 16 11l8 -4v8q3 3 6 10t11 -2q4 0 12 -8l24 -39l-16 -6 l-20 37q-3 0 -3 4q-10 0 -10 -8v-2q0 -1 2 -5l19 -34l-11 -7l-22 37l-4 4q-3 -3 -9 -4t5 -12l20 -33l-12 -8zM685 485l12 8l12 -21l4 8l4 5q9 5 15 1t10 -6t10 -15q6 -12 6 -18t-8 -14q-6 0 -6 -4q-4 0 -8 4l4 -8l-15 -8zM717 468l3 -6l4 -8l4 -8q1 -3 4 -6q12 -9 12 6 q0 6 -6 13t-6 10q-2 3 -4 5t-3 1q-1 0 -4 -3q-8 0 -4 -4zM744 493q5 20 22 20h7l12 -8q0 -4 8 -12l4 -12q4 -1 4 -9l-4 -8l-8 -8l-12 -4h-8l-7 8l-12 12l-4 9zM758 489q-4 -4 4 -4q0 -4 4 -5l3 -8l8 -8h4q2 2 2 3t1 5q2 4 -4 12q-6 7 -7 10q-2 5 -5 5q-4 0 -6 2l-4 -4v-8z M777 521l8 3l-4 8q-8 0 -4 4v8q4 -4 4 4q4 -4 4 4l8 4l8 -12h-4q-4 0 -4 -4v-4l4 -4l8 4l4 -8l-8 -4l25 -43l-10 -5l-27 41l-8 -4zM781 993l57 33l58 -91q0 19 6 31q6 17 24 23q65 45 135 -70q37 -61 37 -99t-50 -64q-6 -3 -16 -3t-34 8l16 -24l-53 -31zM816 524 q-10 10 0 20q0 3 2 4q2 0 5 4t11 4h8q15 -15 15 -20q8 -8 8 -12v-19l-19 -12h-12q0 3 -2 4t-6 4t-4 6t-3 7t-3 10zM826 528q4 -4 4 -7l8 -8q-4 -4 4 -4q0 -8 4 -4h4l3 5v3q0 8 -7 15q-6 12 -12 12q0 4 -8 4v-16zM850 565l11 8l4 -8v8q12 12 20 12q3 -3 6 -5t5 -7l22 -33 l-16 -8l-17 33l-8 4l-4 -4q-6 0 0 -9l20 -32l-12 -11zM885 608l13 8l8 -15l8 4l8 -8v8q0 7 4 7q0 3 2 4q2 0 6 4q3 4 11 4t16 -8v-4l-12 -7q-7 4 -4 7h-8l-3 -7l3 -4v-4h8l8 4h12q6 0 10 -8v-19q1 -7 -7 -7l-9 -5h-10q-5 0 -12 7v4l12 4q0 -8 4 -4h8q0 1 2 3q1 0 2 1v8 q-8 0 -4 4h-8l-8 -4h-11q-4 0 -12 8v4l-8 -4l16 -28q0 -3 2 -3h5l4 3l4 -9h-4q0 -8 -4 -4l-7 -4h-4q-4 -4 -4 4l-4 4l-20 29l-2 -4l-7 8l7 4zM923 902q6 -24 22 -48q17 -22 25 -36t20 -26t32 2q18 12 12 33t-24 47q-16 26 -25 39q-25 39 -47 26t-15 -37zM961 628q0 6 8 14 h13l-9 19l9 12l43 -68l-11 -8l-4 8l-5 -14q-10 -10 -19 -2q-8 0 -13 16q-12 17 -12 23zM978 634q-5 -4 1 -14q7 -12 9 -14t2 -5h8q4 4 4 7l-8 16q0 6 -8 10h-8zM1006 652q0 6 4 9q0 4 8 12q7 0 11 4q0 -4 8 -4l14 -16v-4l-22 -15v-4q2 0 2 -1t2 -1l4 -4h8l2 4v4t-2 2l10 8 q4 -4 4 -12q0 -18 -22 -18h-8q-15 15 -15 18q-4 0 -4 8q-4 4 -4 10zM1018 653l3 -4v-3l16 7q0 1 -2 3q-1 0 -2 1q0 1 -2 3q-1 0 -2 1h-8v-4q-3 0 -3 -4zM1045 677v4q0 5 8 12t15 7q6 0 14 -8v-3l-12 -4l-4 4h-4l-3 -4v-8h3q0 -3 2 -3t2 3h24q3 0 4 -3t5 -8q3 -4 3 -5v-8 l-8 -4l-4 -7l-12 -4h-8q-4 -4 -4 4l-7 4v3l11 8v-4l8 -4h4q4 4 4 8v4l-4 4h-4l-12 -4h-11q-8 0 -8 8zM1045 1019q0 53 49 72q23 19 39 21t45 -5q39 -29 58 -60q18 -31 26 -43t9 -26q8 -16 8 -40q0 -46 -39 -68q-66 -36 -94 -17q-24 8 -41 35q-18 26 -27 41q-33 37 -33 90z M1051 1290q0 33 27 45h4q16 -5 41 -27q50 -28 77 -56q26 -28 46 -48t30 -32q10 -14 16 -20l8 -12t6 -10l4 -8t21 -37q18 -33 16 -53q-3 -21 -7 -21q-11 0 -26 19q-14 19 -18 25t-9 14q-20 17 -25 30l-28 35q-14 14 -30 32q-69 78 -143 117q-7 3 -8 5t-2 2zM1070 726l12 7 l8 -11l-16 -8zM1078 706l16 8l29 -49l-14 -8zM1102 1038q0 -23 8 -38t12 -24q3 -8 12 -20t21 -31q22 -34 52 -24q18 12 14 32t-28 64q-32 46 -43 53q-16 18 -33 4q-11 -6 -15 -16zM1105 714v8l8 8l8 3h1q1 0 2 -1t3 -2l-4 7l12 8l31 -49q4 -7 4 -16q0 -10 -9 -14t-13 -6 t-6 0t-5 2t-6 3l12 8h11q4 0 4 8l-4 4l-4 7v-7q-14 -8 -23 -8l-14 19zM1121 712q0 -8 5 -14t9 -6h8v4q2 0 2 2t-2 2v4l-12 18q-3 3 -7 3t-3 -7v-6zM1143 749l11 8l4 -8q0 9 2 9t5 6q4 6 13 5q3 -3 6 -5t5 -7l22 -35l-12 -8l-21 35l-4 4h-4q-10 -5 -4 -16l23 -31l-15 -6z M1211 741l12 8l7 -16l-11 -7zM1211 786q5 0 5 4q1 4 10 10q10 6 16 2q6 0 12 -12l-12 -8q0 4 -4 4v4h-8l-3 -4v-4q0 -10 19 -29l4 4q1 1 4 5t-4 11l12 7q8 -13 8 -19q-8 -8 -12 -16q-8 0 -12 -2q-6 -3 -27 18l-4 15q-4 4 -4 10zM1252 810q2 2 4 6t4 5t6 5t9 3h8 q24 -24 24 -31v-18l-20 -11h-12l-5 7q0 3 -6 8t-6 14q-8 9 -6 12zM1270 802q1 -4 1 -8l8 -8q-6 -6 6 -6h6q4 2 4 6q-1 4 -3 6q-2 4 -6 13q-6 12 -16 12v-15zM1291 837l12 8l4 -4v8q5 5 7 8l8 1l5 -1h3q0 5 8 13t10 0q3 0 11 -8l24 -37l-16 -8l-19 40h-10v-4q-4 -1 -2 -3 t2 -5l17 -35l-9 -8l-24 39l-4 4q-5 -5 -6 -5q-1 -1 -1 -3v-3q0 -2 3 -5l20 -35l-12 -8zM1342 993v4q6 4 49 18h4l3 -8l4 -18q3 -5 5 -9t4 -9q2 -4 3 -9l-8 -16q-26 -32 -47 0q-1 2 -2 6t-3 8t-4 14q-4 8 -4 11z" />
<glyph unicode="9" horiz-adv-x="1608" d="M76 728q0 44 12 114t32 120q24 63 78 148q53 84 138 153q46 39 95 67q50 28 64 36t22 10l15 5q6 1 12 3q7 2 27 8t79 19q77 8 127 8h30q11 -3 29 -5q94 -8 168 -44q12 -6 24 -10q12 -6 17 -12q4 -6 -2 -5q-11 0 -47 8t-109 15l-56 2q-42 2 -113 -9t-108 -24 q-36 -14 -46 -18t-24 -9q-13 -5 -20 -9q-7 -5 -16 -9q-58 -29 -135 -92q-89 -83 -123 -141q-98 -162 -98 -339q0 -76 8 -113q18 -112 65 -192q45 -90 107 -152l18 -18q2 -11 6 -25t5 -22q-6 -11 -15 -11h-18q-20 0 -30 10q-76 72 -133 180t-77 226q-8 83 -8 127zM264 649 l56 36l125 -205q30 -53 18 -85q-11 -32 -51 -58q-44 -19 -56 -16q-32 8 -48 24q-17 12 -23 31l-8 12l55 33q8 -24 24 -36t33 -1q15 5 15 23l-6 15t-9 22zM396 257l16 8l25 -30l-15 37l15 12l28 -33l-16 41l24 16l25 -36h4l-18 43l14 8l31 -31l-19 39l12 5l-1 1l16 8l25 -30 l-13 38l13 7l28 -29l-16 37l12 8l19 -57l-11 -7l-32 29l16 -37l-16 -8l-35 35l18 -51l-16 -8l-27 32l15 -39l-15 -10l-41 45l19 -57l-11 -8l-32 30l16 -41l-16 -8zM412 601q0 25 2 32t8 13t15 17q9 12 32 25q31 16 68 16q32 -16 41 -43l72 -113q3 -6 8 -12q4 -6 8 -10 t16 -17l-53 -29q-3 2 -6 2t-6 3t-4 6t-4 6q0 -24 -11 -37q-6 -12 -32 -23q-10 -12 -30 -12t-35 14q-16 14 -21 24q-4 9 -8 15t-7 15v24q1 7 7 18t10 18t8 12l27 28q18 18 15 26q-4 7 -9 17t-17 10q-13 8 -25 -4t-12 -20t11 -29l-50 -31q-18 14 -18 39zM521 519q0 -17 11 -24 t17 -12t13 -1t10 6t6 5t4 6t4 6v19q0 12 -4 16l-25 41q-3 -3 -4 -7q-5 -16 -16 -16q-16 -21 -16 -39zM570 741l55 35l14 -23q0 25 11 33q8 25 46 36q10 3 19 3q8 0 17 -5l18 -10q-6 23 7 42q14 19 28 26q25 20 49 8q19 -5 41 -37l96 -160l-53 -36l-92 153q-6 6 -10 11t-9 8 q-29 0 -38 -27q0 -13 12 -29l86 -145l-57 -35l-91 152q-5 5 -9 11t-9 9q-30 0 -39 -28q0 -12 12 -33l88 -142l-57 -34zM575 69q7 3 19 1t28 -4t38 -6q21 -4 45 -4h41q20 -3 46 -3t72 5q45 5 69 12q25 8 33 10l16 4q6 2 12 2t10 4q14 7 45 16q31 10 90 41q85 55 125 96 q67 60 104 122q86 146 98 274q4 41 3 95t-7 86t-8 44t-3 14v8q0 24 14 35q6 12 21 5t19 -12q5 -6 11 -9l4 -11q0 -14 11 -49q10 -87 10 -153t-21 -160q-32 -102 -81 -191q-99 -157 -277 -262q-134 -65 -191 -70q-57 -4 -91 -8t-95 3q-60 7 -86 13q-26 7 -41 11q-16 4 -28 8 q-12 6 -22 10t-24 12q-15 9 -9 11zM594 407l15 6l8 -10l-16 -7zM605 388l16 11l29 -54q4 -4 4 -8v-4q0 -2 -4 -6q-2 -1 -4 -3t-4 -1v-4h-3l-2 12q2 0 2 1v3q0 2 -2 6zM609 341l12 8l8 -16l-12 -6zM633 396v7q11 11 17 14h8q4 0 12 -8l15 -25q4 -4 4 -8h4l-11 -8h-4 q-3 -12 -12 -12l-4 -3q-4 0 -8 3h-4l-8 12v8q-4 4 4 4l12 19v4q-4 -1 -4 1t-8 -1q-7 -3 -5 -5q1 -2 5 -2v-4l-9 -4q-4 4 -4 8zM654 380l4 -8q0 -8 4 -4h4q4 0 4 4v8l-4 12q-8 0 -6 -2q3 -6 0 -7q-3 1 -4 -1t-2 -2zM666 425l16 8v-4h3v8q12 9 16 11l8 -4v8q3 3 6 10t11 -2 q4 0 12 -8l24 -39l-16 -6l-20 37q-3 0 -3 4q-10 0 -10 -8v-2q0 -1 2 -5l19 -34l-11 -7l-22 37l-4 4q-3 -3 -9 -4t5 -12l20 -33l-12 -8zM726 485l12 8l12 -21l4 8l4 5q10 5 16 1t8 -6q4 -2 10 -15q6 -12 7 -18q0 -6 -8 -14q-6 0 -6 -4q-4 0 -8 4l4 -8l-15 -8zM758 468 q0 -2 2 -6t6 -8q2 -4 3 -8q1 -3 4 -6q12 -9 12 6q1 6 -5 13t-7 10t-3 5t-4 1q-1 0 -4 -3q-8 0 -4 -4zM785 493q5 20 22 20h7l12 -8q0 -4 8 -12l4 -12q4 -1 4 -9l-4 -8l-8 -8l-12 -4h-8l-7 8l-12 12l-4 9zM799 489q-4 -4 4 -4q0 -4 4 -5l3 -8l8 -8h4q2 2 2 3t1 5t-5 12 q-6 7 -6 10q-2 5 -5 5q-4 0 -6 2l-4 -4v-8zM818 521l8 3l-4 8q-8 0 -4 4v8q4 -4 4 4q4 -4 4 4l8 4l8 -12h-4q-4 0 -4 -4v-4l4 -4l8 4l4 -8l-8 -4l25 -43l-10 -5l-27 41l-8 -4zM822 993l57 33l58 -91q0 19 6 31q6 17 24 23q65 45 135 -70q37 -61 37 -99t-50 -64q-6 -3 -16 -3 t-34 8l16 -24l-53 -31zM857 524q-10 10 0 20q0 3 2 4q2 0 5 4t11 4h8q15 -15 15 -20q8 -8 8 -12v-19l-19 -12h-12q-1 3 -3 4t-5 4t-3 6t-4 7q-3 4 -3 10zM867 528q4 -4 4 -7l8 -8q-4 -4 4 -4q0 -8 4 -4h4l3 5v3q0 8 -7 15q-6 12 -12 12q0 4 -8 4v-16zM891 565l11 8l4 -8v8 q12 12 20 12q3 -3 6 -5t5 -7l22 -33l-16 -8l-17 33l-8 4l-4 -4q-6 0 0 -9l20 -32l-12 -11zM926 608l13 8l8 -15l8 4l8 -8v8q0 7 4 7q1 3 3 4q2 0 5 4q3 3 11 4q8 0 16 -8v-4l-12 -7q-7 4 -4 7h-8l-3 -7l3 -4v-4h8l8 4h12q6 0 10 -8v-19q0 -7 -8 -7l-8 -5h-10q-5 0 -12 7v4 l12 4q0 -8 4 -4h8q0 1 2 3q1 0 2 1v8q-8 0 -4 4h-8l-8 -4h-11q-4 0 -12 8v4l-8 -4l16 -28q0 -3 2 -3h5l4 3l4 -9h-4q0 -8 -4 -4l-7 -4h-4q-4 -4 -4 4l-4 4l-20 29l-2 -4l-7 8l7 4zM964 902q6 -24 22 -48q16 -22 24 -36t22 -26q12 -12 30 2q18 12 12 33t-22 47t-26 39 q-25 39 -47 26t-15 -37zM1002 628q0 6 8 14h13l-9 19l9 12l43 -68l-11 -8l-4 8l-5 -14q-10 -10 -19 -2q-8 0 -13 16q-12 17 -12 23zM1019 634q-5 -4 1 -14q6 -12 8 -14t3 -5h8q4 4 4 7l-8 16q0 6 -8 10h-8zM1047 652q0 6 4 9q0 4 8 12q7 0 11 4q0 -4 8 -4l14 -16v-4l-22 -15 v-4q2 0 2 -1t2 -1l4 -4h8l2 4v4t-2 2l10 8q4 -4 4 -12q0 -18 -22 -18h-8q-15 15 -15 18q-4 0 -4 8q-4 4 -4 10zM1059 653l3 -4v-3l16 7q0 1 -2 3q-1 0 -2 1q0 1 -2 3q-1 0 -2 1h-8v-4q-3 0 -3 -4zM1086 677v4q0 5 8 12t15 7q6 0 14 -8v-3l-12 -4l-4 4h-4l-3 -4v-8h3 q0 -3 2 -3t2 3h24q3 0 4 -3t5 -8q3 -4 3 -5v-8l-8 -4l-4 -7l-12 -4h-8q-4 -4 -4 4l-7 4v3l11 8v-4l8 -4h4q4 4 4 8v4l-4 4h-4l-12 -4h-11q-8 0 -8 8zM1086 1019q0 53 49 72q23 19 39 21t45 -5q39 -29 58 -60t27 -43t8 -26q8 -16 8 -40q0 -46 -39 -68q-66 -36 -94 -17 q-24 8 -41 35q-18 26 -27 41q-33 37 -33 90zM1092 1290q0 33 27 45h4q16 -5 41 -27q50 -28 77 -56t47 -48t30 -32q10 -14 14 -20t9 -12q4 -6 6 -10q3 -4 5 -8q3 -4 20 -37q18 -33 16 -53q-2 -21 -6 -21q-11 0 -27 19q-15 19 -19 25t-8 14q-20 17 -25 30l-28 35 q-15 14 -31 32q-69 78 -142 117q-7 3 -8 5t-2 2zM1111 726l12 7l8 -11l-16 -8zM1119 706l16 8l29 -49l-14 -8zM1143 1038q1 -23 9 -38t11 -24t12 -20t21 -31q22 -34 52 -24q18 12 14 32t-28 64q-32 46 -43 53q-16 18 -33 4q-11 -6 -15 -16zM1146 714v8l8 8l8 3h1q1 0 2 -1 t3 -2l-4 7l12 8l31 -49q4 -7 4 -16q0 -10 -9 -14l-12 -6t-6 0t-6 2q-3 0 -6 3l12 8h11q4 0 4 8l-4 4l-4 7v-7q-14 -8 -23 -8l-14 19zM1162 712q0 -8 5 -14t9 -6h8v4q2 0 2 2t-2 2v4l-12 18q-2 3 -6 3t-4 -7v-6zM1184 749l11 8l4 -8q0 9 2 9t5 6q4 6 13 5q3 -3 6 -5t5 -7 l22 -35l-12 -8l-21 35l-4 4h-4q-10 -5 -4 -16l23 -31l-15 -6zM1252 741l12 8l7 -16l-11 -7zM1252 786q4 0 4 4q1 4 11 10t16 2q6 0 12 -12l-12 -8q0 4 -4 4v4h-8l-3 -4v-4q0 -10 19 -29l4 4q1 1 4 5t-4 11l12 7q8 -13 8 -19q-8 -8 -12 -16q-8 0 -12 -2q-6 -3 -27 18l-4 15 q-4 4 -4 10zM1292 810q2 2 5 6t5 5t6 5t8 3h8q24 -24 24 -31v-18l-20 -11h-12l-5 7q0 3 -6 8t-6 14q-9 9 -7 12zM1311 802q1 -4 1 -8l8 -8q-6 -6 6 -6h6q4 2 4 6t-2 6q-2 4 -8 13q-6 12 -15 12v-15zM1332 837l12 8l4 -4v8q5 5 7 8l8 1l5 -1h3q-1 5 7 13t11 0q3 0 11 -8 l24 -37l-16 -8l-19 40h-10v-4q-3 -1 -1 -3t1 -5l17 -35l-9 -8l-24 39l-4 4q-5 -5 -6 -5q-1 -1 -1 -3v-3q0 -2 3 -5l20 -35l-12 -8zM1383 993v4q6 4 49 18h4l3 -8l4 -18q3 -5 5 -9t4 -9q2 -4 3 -9l-8 -16q-26 -32 -47 0q-1 2 -2 6q0 4 -2 8t-6 14q-4 8 -3 11z" />
<glyph unicode=":" horiz-adv-x="401" d="M95 102q0 42 30 72q31 30 83 30t82 -30t30 -72t-30 -72t-82 -30t-83 30q-30 30 -30 72zM95 902q0 42 30 72q31 30 83 30t82 -30t30 -72t-30 -72t-82 -30t-83 30q-30 30 -30 72z" />
<glyph unicode=";" horiz-adv-x="401" d="M48 -15q0 1 1 2q0 42 29 71l101 107q30 30 72 30t72 -30q30 -31 30 -73t-30 -71l-100 -107q-31 -30 -73 -30t-72 30t-30 71zM95 902q0 42 30 72q31 30 83 30t82 -30t30 -72t-30 -72t-82 -30t-83 30q-30 30 -30 72z" />
<glyph unicode="&#x3c;" horiz-adv-x="801" d="M100 710q0 52 55 80l338 234q20 10 53 10t62.5 -29t29.5 -71t-24 -65t-44 -30l-147 -138l183 -131q56 -28 56 -80t-30 -81t-66 -29t-60 16l-340 209q-20 7 -43 30t-23 75z" />
<glyph unicode="=" horiz-adv-x="801" d="M66 492q0 42 30 72t72 30l462 1q42 0 72 -30t30 -72t-30 -72t-72 -30l-462 -1q-42 0 -72 30t-30 72zM66 892q0 42 30 72t72 30l462 1q42 0 72 -30t30 -72t-30 -72t-72 -30l-462 -1q-42 0 -72 30t-30 72z" />
<glyph unicode="&#x3e;" horiz-adv-x="801" d="M138 480q0 62 56 90l183 131l-147 138q-21 7 -44 30t-24 65q0 42 30 70q29 30 62 30t53 -10l338 -234q55 -27 55 -80q0 -52 -23 -75t-43 -30l-340 -209q-24 -16 -60 -16t-66 29q-29 29 -30 71z" />
<glyph unicode="?" horiz-adv-x="1026" d="M107 1189l10 -17q-17 66 105 188.5t295 122.5t295.5 -122.5t122.5 -295.5t-122 -295q-85 -84 -194 -110q3 -32 -13 -64t-53.5 -43.5t-81.5 4.5q-56 27 -56 90v103q0 42 28.5 104t70.5 62t53 -37q36 -87 109 28q59 68 59 158t-64 154t-153.5 64t-153.5 -64l-47 -47v-1 q-29 -60 -52.5 -80t-64.5 -20t-62 29.5t-31 88.5zM415 102q0 42 30 72t72 30t72 -30t30 -72t-30 -72t-72 -30t-72 30t-30 72zM416 386q0 40 11 65q18 36 56.5 52.5t80.5 -3.5q63 -31 59 -94v-7q-3 -53 -33 -83t-72 -30t-72 30t-30 70z" />
<glyph unicode="@" horiz-adv-x="1842" d="M58 716q34 397 240.5 609t618.5 209q406 -18 627 -251.5t196 -568.5q4 -32 -12 -64t-56 -46t-78 6q-60 31 -57 93v7q24 254 -137.5 428t-482.5 192q-329 3 -475 -149.5t-171 -469.5q9 -333 144.5 -479t1167.5 -284q42 0 72 -30t30 -72t-30 -72t-72 -30 q-1115 138 -1311 343.5t-214 628.5zM475 716q0 186 131.5 317.5t317.5 131.5q186 -1 318 -131q130 -130 131 -314v-363q0 -24 17 -45.5t60 -21.5t62 21.5t20 54.5t12 59q18 36 57.5 46.5t83.5 0.5q37 -18 47 -47t8 -45v-7q-4 -134 -78 -203.5t-202 -69.5t-197 69t-70 184v3 q-118 -89 -269 -89q-186 0 -317.5 131.5t-131.5 317.5zM717 706q0 -92 63.5 -156t155.5 -64t152 60t67 134v28q0 8 1 13q-4 81 -66 143t-154 62t-155.5 -64t-63.5 -156z" />
<glyph unicode="A" horiz-adv-x="1603" d="M100 94q0 35 15 58l593 1222q6 16 28 38t74 22t80 -56l593 -1222q17 -24 17 -60t-29 -66t-71 -30t-133 28q-196 82 -305 128t-250.5 106.5t-141.5 62.5q-28 5 -54 31t-26 66q0 43 30 72t57 29t55 -9l639 -301l-471 892l-509 -1047q-7 -14 -29 -36t-62 -22q-42 0 -71 29.5 t-29 64.5z" />
<glyph unicode="B" horiz-adv-x="1164" d="M111 102v190v11q0 30 9 52q18 37 58 47q20 5 41 5q20 0 42 -5q37 -18 47 -47t8 -45v-7l-1 -102h247q126 0 212.5 57t86.5 182q-5 193 -89.5 230t-210.5 37h-247l2 -131q1 -6 1 -13q0 -26 -13 -51q-16 -32 -56 -46q-16 -6 -33 -6q-23 0 -45 12q-57 30 -57 87v6v7l-2 760 q0 42 30 72t72 30l427 3q130 0 222.5 -92t92.5 -255v-12q0 -105 -69 -212q56 -32 116 -120t60 -306q-17 -230 -154 -335t-346 -105h-349q-42 0 -72 30t-30 72zM314 908l335 -3q47 0 80 33q25 25 25 116q0 27 -2 61q0 46 -33 79.5t-80 33.5l-325 -2v-318z" />
<glyph unicode="C" horiz-adv-x="1399" d="M100 717q0 297 210 507t507 210q261 0 477 -208l-1 -1q32 -32 32 -74t-30 -72t-72 -30t-74 32l-1 -1q-155 150 -331 150q-213 0 -363 -150.5t-150 -362.5t150 -362.5t363 -150.5q176 0 334 151l1 -1q32 32 74 32t72 -30t30 -72t-32 -74l1 -1q-219 -209 -480 -209 q-297 0 -507 210t-210 507z" />
<glyph unicode="D" horiz-adv-x="1399" d="M100 102v210q-1 8 -1 16q0 28 9 49q18 37 58 47q20 5 41 5q20 0 42 -5q37 -18 47 -47t8 -45v-128h293q26 -1 50 -1q255 0 355 144q108 158 108 370t-117 360.5t-396 152.5h-293v-632q1 -6 1 -13q0 -26 -13 -51q-16 -32 -56 -46q-16 -6 -33 -6q-23 0 -45 12q-57 30 -57 87 v6v7l-1 738q0 42 30 72t72 30h395q364 -4 540.5 -212t176.5 -505t-168 -515q-157 -203 -501 -203q-24 0 -48 1h-395q-42 0 -72 30t-30 72z" />
<glyph unicode="E" horiz-adv-x="1174" d="M100 102v1230q0 42 30 72t72 30h790q42 0 72 -30t30 -72t-30 -72t-72 -30h-688l3 -397l-3 -629h688q42 0 72 -30t30 -72t-30 -72t-72 -30h-790q-42 0 -72 30t-30 72zM422 714q-3 13 -3 25q0 26 14 51q29 50 82 50q7 0 13 -1h313q42 0 72 -30t30 -72t-30 -72t-72 -30 l-317 5q-28 -2 -60 16t-42 58z" />
<glyph unicode="F" horiz-adv-x="1195" d="M100 102v1230q0 42 30 72t72 30h790q42 0 72 -30t30 -72t-30 -72t-72 -30h-688v-1128q0 -42 -30 -72t-72 -30t-72 30t-30 72zM388 708q-6 16 -6 32q0 22 10 44q18 38 46 48t45 9h42l261 -1q42 0 72 -30t30 -72t-30 -72t-72 -30h-298q-21 1 -53.5 17.5t-46.5 54.5z" />
<glyph unicode="G" horiz-adv-x="1584" d="M100 717q0 297 210 507t507 210q261 0 455 -162l-1 -1q32 -32 32 -74t-30 -72t-72 -30t-74 32l-1 -1q-133 104 -309 104q-213 0 -363 -150.5t-150 -362.5t150 -362.5t362 -150.5t319 136q54 83 76 245q1 37 10 75q17 41 90 41q29 0 66 -6q34 -32 36 -60t1 -42v-20 q-36 -287 -168 -430t-429 -143t-507 210t-210 507zM665 654q0 42 30 72t72 30l220 -1q94 -2 111 -59q7 -26 7 -48q0 -26 -11 -46q-28 -51 -80 -51q-7 0 -15 1h-232q-42 0 -72 30t-30 72z" />
<glyph unicode="H" horiz-adv-x="1279" d="M98 102v1230q0 42 30 72t72 30t72 -30t30 -72v-1230q0 -42 -30 -72t-72 -30t-72 30t-30 72zM344 704q-6 17 -6 34q0 22 10 44q26 56 91 56h7l423 4h6q64 0 92 -57q9 -21 9 -42q0 -17 -6 -34q-14 -39 -46 -55q-26 -13 -50 -13q-6 0 -12 1l-219 -6l361 -338l-11 1034 q0 42 30 72t72 30t72 -30t30 -72v-1230q0 -42 -30 -72t-72 -30t-351.5 309.5t-349.5 338.5q-36 16 -50 56z" />
<glyph unicode="I" horiz-adv-x="436" d="M120 1317v7l1 1v30q0 42 30 72t72 30t72 -30t30 -72v-25q1 -34 -15 -66t-56 -46q-16 -6 -33 -6q-23 0 -45 12q-56 29 -56 85v8zM121 88l1 973v11q0 30 9 52q17 36 57 46q20 5 42 6q20 0 42 -5q36 -18 46 -47t9 -45v-7l-2 -984q0 -42 -30 -72t-72 -30t-72 30t-30 72z" />
<glyph unicode="J" horiz-adv-x="401" d="M-513 -298q0 42 30 72t72 30q211 1 361 151t150 362l4 688v11q0 30 9 52q18 36 57 46q21 6 42 6t42 -5q36 -18 46 -47t9 -45v-7l-5 -699q0 -297 -210 -507t-504 -210h-1q-42 0 -72 30t-30 72zM100 1267v65q0 42 30 72t72 30t72 -30t30 -72v-65q4 -29 -12 -61t-56 -46 q-16 -6 -33 -6q-23 0 -45 12q-57 30 -57 88v6v7h-1z" />
<glyph unicode="K" horiz-adv-x="1267" d="M100 102v1230q0 42 30 72t72 30t72 -30t30 -72l-4 -871l4 -359q0 -42 -30 -72t-72 -30t-72 30t-30 72zM341 686q-3 10 -3 23q0 24 13 55q43 64 107 111l553 531q28 28 69 28t70.5 -29.5t29.5 -79.5t-46 -75l-553 -533l559 -537q40 -32 40 -77t-29.5 -74t-69.5 -29t-68 26 l-576 554l-49 40q-37 36 -47 66z" />
<glyph unicode="L" d="M84 72q-5 14 -4 29q0 27 16 57q23 44 77 44h10h7l802 2q42 0 72 -30t30 -72t-30 -72t-72 -30l-801 3q-29 -5 -61 12t-46 57zM100 1332q0 42 30 72t72 30t72 -30t30 -72v-964q1 -10 1 -19q0 -90 -53 -108q-25 -8 -49 -8q-31 -1 -57 13q-44 23 -43 78v10l-1 34z" />
<glyph unicode="M" horiz-adv-x="1603" d="M100 102v1230q0 42 30 72t78 30t75 -41l517 -460l297 260q21 26 57 34q10 2 19 2q26 1 52 -15q35 -22 45 -62t-3 -61t-37 -45l-363 -321q-29 -25 -69 -25t-494 408v-1006q0 -42 -30 -72t-72 -30t-72 30t-30 72zM1300 102l4 1219q-5 29 12 61q16 32 56 46q14 5 30 4 q28 0 58 -16q44 -23 43 -77v-10v-7l1 -1220q0 -42 -30 -72t-72 -30t-72 30t-30 72z" />
<glyph unicode="N" horiz-adv-x="1399" d="M100 102v1230q0 42 30 72t82.5 30t80.5 -56l746 -1052q25 -16 38 -50q6 -15 6 -30q0 -20 -10 -42q-17 -38 -55 -53t-62 -5t-48 30l-596 839l-8 -913q0 -42 -30 -72t-72 -30t-72 30t-30 72zM1100 1332q0 42 30 72t72 30t72 -30t30 -72l2 -1221q5 -29 -12 -61 q-16 -32 -56 -46q-14 -5 -30 -4q-28 0 -58 16q-44 23 -43 77v10v7z" />
<glyph unicode="O" horiz-adv-x="1624" d="M100 717q0 297 210 507t507 210t480.5 -172t218.5 -429q5 -29 -12 -61q-16 -32 -56 -46q-14 -5 -30 -4q-28 0 -58 16q-44 23 -43 77v10v7q-42 174 -165.5 286t-335.5 112t-362 -150.5t-150 -362.5t150 -362.5t362 -150.5t339.5 110t163.5 268v10q-1 56 43 78q31 16 59 16 q15 0 29 -5q40 -13 56 -45q13 -25 13 -48q0 -7 -1 -14q-9 -179 -206.5 -376.5t-494.5 -197.5t-507 210t-210 507z" />
<glyph unicode="P" horiz-adv-x="1130" d="M116 102v1230q0 42 30 72t72 30l410 1q173 0 295.5 -122t122.5 -295t-122.5 -295.5t-295.5 -122.5l-168 -1q-7 -1 -14 -1q-24 0 -48 13q-32 17 -45 57q-5 14 -5 28q0 28 16 58q23 44 78 44h10h7l169 3q90 0 153.5 63.5t63.5 153.5t-63.5 153t-153.5 63h-308v-1132 q0 -42 -30 -72t-72 -30t-72 30t-30 72z" />
<glyph unicode="Q" horiz-adv-x="1637" d="M100 717q0 297 210 507t507 210t507 -210t210 -507q-2 -240 -70 -329q-15 -28 -47 -46q-20 -11 -43 -11q-14 0 -30 4q-40 11 -60 49q-14 26 -14 51q0 33 25 64q39 59 39 155q0 30 -4 63q0 212 -151 362.5t-363 150.5t-362 -150.5t-150 -362.5t150 -362.5t363 -150.5 q140 0 137 10q38 17 66 17q34 0 52 -25q33 -46 40 -91q-3 -41 -27 -61t-45 -26q-66 -23 -223 -28q-297 0 -507 210t-210 507zM811 570q0 42 29 72q30 29 72 29t73 -29l514 -511q29 -31 29 -73t-29 -72q-31 -29 -73 -29t-72 29l-325 326q-218 216 -218 258z" />
<glyph unicode="R" horiz-adv-x="1283" d="M100 102v1230q0 42 30 72t72 30l410 1q173 0 295.5 -122t122.5 -308t-155 -312q-94 -84 -263 -93l-164 1h-10l-54 13q-32 16 -46 56q-6 16 -6 33q0 23 12 45q29 56 85 56h8h7l168 -3q90 0 153.5 63.5t63.5 153.5t-63.5 153t-153.5 63h-308l3 -668l-3 -464q0 -42 -30 -72 t-72 -30t-72 30t-30 72zM767 464q-16 36 -16 63q0 33 26 53q46 34 90 41q65 -5 87 -72l232 -396q14 -23 14 -43q0 -66 -52 -96q-24 -14 -44 -14q-66 0 -95 51z" />
<glyph unicode="S" d="M131 336q0 41 28.5 70.5t70.5 29.5q70 0 121 -98q34 -52 79.5 -95t169.5 -43t214.5 74.5t111.5 211.5q-10 69 -39.5 111.5t-38.5 51.5q-64 45 -74 77q-4 15 -4 29q0 55 68 96q21 7 39 7t33 -7q33 -23 105 -92q94 -122 104 -286q-17 -226 -164 -349.5t-355 -123.5 t-325.5 117t-143.5 219zM285 1116q0 130 92 222t218 92t215 -80q40 -32 40 -77t-29 -74t-71 -29t-78 36l-1 -1q-31 25 -75 25t-77.5 -33.5t-33.5 -81.5t26 -75t102 -45q74 -11 107 -27q32 -16 46 -56q6 -17 6 -33q0 -23 -11 -45q-19 -38 -48 -48t-45 -9h-7q-192 23 -284 116 t-92 223z" />
<glyph unicode="T" d="M100 1336q0 42 30 72t72 30h796q42 0 72 -30t30 -72t-30 -72t-72 -30h-796q-42 0 -72 30t-30 72zM500 102v982v11q0 30 9 52q17 37 57 47q20 5 42 5q20 0 42 -5q36 -18 46 -47t9 -45v-7l-1 -993q0 -42 -30 -72t-72 -30t-72 30t-30 72z" />
<glyph unicode="U" horiz-adv-x="1259" d="M100 496v836q0 48 30 75t72 27t72 -27t30 -73v-836q0 -9 -1 -18q5 -110 89 -193t239 -83h4q16 -1 30 -1q110 0 168 47q104 73 120 231q-1 9 -1 18v469v14q0 36 9 58q17 36 57 46q20 5 42 6q20 0 42 -5q36 -18 46 -47t9 -45v-21l-1 -477q-2 -204 -146 -348 q-139 -149 -355 -149h-14h-16q-243 12 -383 152t-142 344zM951 1234l1 101q0 46 30 73t72 27t72 -27t30 -75v-93v-8q0 -33 -14 -62q-24 -46 -85 -46q-25 0 -55 7q-26 27 -45 60q-6 19 -5 35v7z" />
<glyph unicode="V" horiz-adv-x="1603" d="M100 1340q0 35 29 64.5t71 29.5t62 -22q22 -22 29 -36l595 -1219q22 -39 22 -69q0 -29 -21 -47q-43 -38 -87 -48q-65 0 -93 65l-592 1224q-15 23 -15 58zM834 331q-14 21 -14 44q0 27 20 54l468 947h1q27 58 91 58q41 0 70.5 -30t29.5 -66t-17 -60l-454 -935 q-41 -73 -91 -73q-7 0 -15 2q-59 12 -89 59z" />
<glyph unicode="W" horiz-adv-x="2210" d="M78 1336q0 32 29.5 61t70.5 29t63 -22t30 -40l450 -1022l187 376q19 43 43 58q20 10 40 10q17 0 34 -7q38 -15 68 -49q12 -24 12 -45q0 -11 -3 -21q-10 -29 -301 -609q-31 -55 -81 -55t-73 23t-30 43l-531 1219q-8 19 -8 51zM1121 674q-2 9 -2 17q0 30 20 56q25 34 67 41 q13 2 24 2q25 0 40 -11q22 -16 40 -39l191 -396l458 1029q8 18 30 40t63 22t70.5 -29.5t29.5 -61.5t-8 -50l-539 -1228q-7 -20 -30 -43t-64 -23t-63 22t-30 42l-292 577z" />
<glyph unicode="X" horiz-adv-x="1399" d="M100 100q0 42 31 73l302 385q45 56 85 56q13 0 26 -6q51 -24 78 -60q9 -19 9 -38q0 -36 -31 -73l-322 -400q-36 -37 -78 -37t-71 29t-29 71zM100 1336q0 38 29.5 68t70.5 30t71 -29q3 -4 7 -8l1000 -1234q22 -27 22 -65t-29.5 -68t-75.5 -30t-73 37l-1000 1234 q-22 27 -22 65zM768 864q-12 19 -12 41q0 30 23 65l339 422q30 42 76 42t76 -29t30 -68t-22 -66q-338 -434 -369 -453q-21 -13 -46 -13q-13 -1 -26 3q-41 10 -69 56z" />
<glyph unicode="Y" horiz-adv-x="1234" d="M54 1336q0 36 29.5 65.5t81.5 29.5t79 -55l337 -398q11 -15 46.5 -63t91.5 -153q6 -50 6 -128q0 -25 -1 -52q-2 -115 -2 -151v-11l-6 -320q0 -42 -29 -71t-71 -29t-71 29t-29 71v618l-445 556q-17 26 -17 62zM679 920q-12 25 -12 48q0 36 30 66l277 360q33 44 79 44 t75 -29t29 -69t-24 -67q-291 -389 -324 -405q-17 -8 -36 -8q-18 0 -37 6q-39 15 -57 54z" />
<glyph unicode="Z" horiz-adv-x="1229" d="M106 145q18 37 47 47t45 8h850q42 0 71 -29t29 -71t-29 -71t-71 -29l-832 -5h-11q-30 0 -52 9q-37 18 -47 58q-5 20 -5 41t5 42zM172 1334q0 42 29.5 71t70.5 29h750q42 0 71 -29t29 -69t-20 -71l-618 -934q-13 -29 -42 -49q-21 -14 -48 -14q-12 0 -24 2q-42 8 -66 44 q-18 28 -18 56q0 29 20 59l532 805h-566q-41 0 -70.5 29t-29.5 71z" />
<glyph unicode="[" horiz-adv-x="572" d="M99 -24v173q0 41 11 67q18 36 57.5 46.5t83.5 0.5q37 -18 47 -47t8 -45v-7l-3 -86l56 -1q42 0 72 -30t30 -72t-30 -72t-72 -30l-158 1q-42 0 -72 30t-30 72zM99 1449q0 42 30 72t72 30l147 -3q42 0 72 -30t30 -72t-30 -72t-72 -30l-45 3l11 -928q4 -33 -12 -65t-56 -46 t-78 6q-60 31 -57 94v7z" />
<glyph unicode="\" horiz-adv-x="998" d="M0 1388q0 65 52 96q24 14 44 14q66 0 95 -52l46 -83q37 -55 23.5 -88t-48.5 -57t-71 -24t-74 57l-53 93q-14 24 -14 44zM174 1098.5q15 32.5 50 55.5q47 25 83 24.5t72 -56.5l607 -1053q14 -23 14 -43q0 -66 -51 -96q-24 -14 -44 -14q-66 0 -96 51l-601 1041 q-49 58 -34 90.5z" />
<glyph unicode="]" horiz-adv-x="597" d="M139 -25q0 42 30 72t72 30l56 1l-3 86v7q-1 16 9 45q9 29 46 47q44 9 84 -1q39 -10 57 -46q11 -26 11 -67v-173q0 -42 -30 -72t-72 -30l-158 -1q-42 0 -72 30t-30 72zM150 1446q0 42 30 72t72 30l147 3q42 0 72 -30t30 -72l-12 -1034v-7q4 -64 -56 -94q-38 -20 -78 -6 q-39 14 -56 46q-16 32 -13 65l11 928l-45 -3q-42 0 -72 30t-30 72z" />
<glyph unicode="^" horiz-adv-x="1097" d="M206 1041q0 43 19 69l220 223q37 62 97 62h6q60 0 97 -62l193 -216q19 -27 19 -47q0 -65 -44 -95q-26 -18 -46 -18q-66 0 -96 43l-126 113l-153 -120q-30 -43 -96 -43q-20 0 -55 24t-35 67z" />
<glyph unicode="_" horiz-adv-x="998" d="M-8 -201q0 42 30 72t72 30l811 4q42 0 72 -30t30 -72t-30 -72t-72 -30l-811 -4q-42 0 -72 30t-30 72z" />
<glyph unicode="`" horiz-adv-x="662" d="M100 1294q0 20 22 58t81 37q26 0 51 -14l194 -112q52 -30 52 -89q0 -26 -22 -64t-82 -37q-26 0 -50 14l-194 112q-52 29 -52 95z" />
<glyph unicode="a" d="M100 499q0 207 146 353t353 146t297 -88v11q0 30 9 52q17 37 57 47q20 5 42 5q20 0 42 -5q36 -18 46 -47t9 -45v-7l-3 -823q0 -68 -30 -88t-72 -20t-72 20t-30 86q-128 -96 -295 -96q-207 0 -353 146t-146 353zM313 499q0 -123 86 -209.5t209 -86.5t203 80t91 180v38 q0 9 1 18q-6 111 -89 193t-206 82t-209 -86t-86 -209z" />
<glyph unicode="b" horiz-adv-x="1197" d="M93 104v1232q0 42 30 72t72 30t72 -30t30 -72l7 -434q128 96 295 96q207 0 353 -146t146 -353t-128 -351.5t-307 -147.5q-271 0 -358 140l-7 -54q2 -16 -8 -45t-47 -47q-21 -5 -42 -5q-21 -1 -41 5q-40 10 -58 47q-9 22 -9 52v11zM328 479q6 -110 90 -193t206.5 -83 t209 86.5t86.5 209.5t-86.5 210t-210 87t-203.5 -80t-91 -181v-38q0 -9 -1 -18z" />
<glyph unicode="c" horiz-adv-x="1074" d="M100 499q0 207 146 353t353 146q20 1 39 1q153 0 241 -92l-1 -1q0 -1 1 -1q29 -29 29 -71t-29 -71t-71 -29t-71 30h-1q-52 30 -156 31h-2q-103 1 -189 -85q-87 -86 -87 -209.5t87 -210.5t210 -87l84 7q57 23 99 23t72 -29.5t30 -71.5t-32 -74q-70 -46 -253 -58 q-207 0 -353 146t-146 353z" />
<glyph unicode="d" d="M100 499q0 207 146 353t353 146q167 0 295 -96l3 434q0 42 30 72t72 30t72 -30t30 -72l1 -1240v-7q2 -16 -8 -45t-47 -47q-21 -5 -42 -5t-41 6q-40 10 -58 46q-9 22 -9 52v11q-91 -107 -298 -107t-353 146t-146 353zM303 498q0 -123 86.5 -209.5t209.5 -86.5t207 83 t89 193q-1 9 -1 18v38q-12 100 -92 180t-203 80q-1 0 -1 1q-122 0 -208 -87t-87 -210z" />
<glyph unicode="e" horiz-adv-x="1097" d="M100 499q0 207 146 353t353 146q430 -34 461 -444q10 -47 10 -75q0 -16 -3 -26q-9 -27 -37 -43t-63.5 -17.5t-73.5 -3.5l-451 1q-68 0 -88 30t-20 72t20 72t86 30l429 -9q-37 210 -270 211q-123 0 -210 -86.5t-87 -209.5t87 -210t209 -87t271 52q31 31 73 31t72 -29.5 t30 -71.5t-32 -74q-131 -112 -366 -112q-23 0 -47 1q-207 0 -353 146t-146 353z" />
<glyph unicode="f" horiz-adv-x="801" d="M67 890q0 42 30 72t72 30l232 5l230 -1q42 0 72 -30t30 -72t-30 -72t-72 -30l-462 -4q-42 0 -72 30t-30 72zM299 1140v29q0 179 69 235q76 59 180 59q41 0 70.5 -28.5t29.5 -70.5t-29.5 -71.5t-60.5 -29.5t-45.5 -15t-14.5 -35l5 -71q0 -68 -30 -88t-72 -20t-72 20 t-30 86zM301 49l3 587q0 66 30 86t72 20t72 -20t30 -88l-3 -585q0 -42 -30 -72t-72 -30t-72 30t-30 72z" />
<glyph unicode="g" d="M100 499q0 207 146 353t353 146t296 -86q0 66 30 86t72 20t72 -20t30 -88v-808q0 -8 -1 -16v-20q0 -227 -66 -360q-28 -58 -102 -95t-723 -125h-4q-42 0 -72 30t-30 72t30 72t72 30q7 0 89 16q469 60 520 82t63 57q19 147 20 251q-128 -96 -296 -96q-207 0 -353 146 t-146 353zM302 500q0 -123 87 -210t210 -87t209.5 87t86.5 210t-86.5 209.5t-209.5 86.5t-210 -86.5t-87 -209.5z" />
<glyph unicode="h" horiz-adv-x="1130" d="M98 1339q0 42 30 72t72 30t72 -30t30 -72l2 -403q121 88 241 92h16h2q150 0 306 -126q120 -125 122 -366l3 -431q0 -48 -30 -73t-72 -25t-72 25t-30 71v431q0 18 -3 89t-57 131t-145 76l-28 1q-81 -1 -162 -81t-91 -183v-471q0 -46 -30 -71t-72 -25t-72 25t-30 73z" />
<glyph unicode="i" horiz-adv-x="411" d="M93 1330q0 42 30 72t72 30t72 -30t30 -72t-30 -72t-72 -30t-72 30t-30 72zM97 934q0 42 30 72t72 30t72 -30t30 -72l1 -850q0 -42 -30 -72t-72 -30t-72 30t-30 72z" />
<glyph unicode="j" horiz-adv-x="401" d="M-302 -298q0 42 30 72t72 30q7 0 14 -1q116 4 201 89t85 208l-6 828q0 42 30 72t72 30t72 -30t30 -72l6 -826q0 -210 -146 -356t-354 -146h-4q-42 0 -72 30t-30 72zM96 1331q0 42 30 72t72 30t72 -30t30 -72t-30 -72t-72 -30t-72 30t-30 72z" />
<glyph unicode="k" horiz-adv-x="1106" d="M99 1346q0 42 30 72t72 30t72 -30t30 -72l1 -1244q0 -42 -30 -72t-72 -30t-72 30t-30 72zM348 610q0 42 20 72t89 110l449 531q27 22 66 22t68 -29.5t29 -78.5t-48 -78l-464 -545l428 -429l-2 -2q36 -27 36 -73t-29.5 -75t-67.5 -29t-64 21l-1 -1l-437 449q-32 33 -52 63 t-20 72z" />
<glyph unicode="l" horiz-adv-x="424" d="M109 1371q0 42 30 72t72 30t72 -30t30 -72l1 -1269q0 -42 -30 -72t-72 -30t-72 30t-30 72z" />
<glyph unicode="m" horiz-adv-x="1909" d="M111 920q0 66 30 86t72 20t72 -20t31 -122q82 104 239 116h16q228 -14 370 -199q142 185 371 199h16q190 -12 330 -152t142 -344v-386q0 -58 -30 -88t-72 -30t-72 30t-30 86v386q0 9 1 18q-5 110 -89 193t-186 83h-4q-102 0 -186 -83t-89 -193q1 -9 1 -18v-386 q0 -56 -30 -86t-72 -30h-2q-42 0 -72 30t-30 86v386q0 9 1 18q-5 110 -89 193t-185 83h-4q-69 0 -153 -83t-89 -193q1 -9 1 -18v-386q0 -56 -30 -86t-72 -30t-72 30t-30 88z" />
<glyph unicode="n" horiz-adv-x="1192" d="M110 915q0 66 30 86t72 20t72 -20t30 -88q79 75 277 87h16q200 -12 340 -152t142 -344v-386q0 -58 -30 -88t-72 -30t-72 30t-30 86v386q0 9 1 18q-6 110 -90 193t-195 83h-4q-109 0 -193 -83t-90 -193q-2 -14 -2 -37q0 -15 1 -35l2 -332q0 -56 -30 -86t-72 -30t-72 30 t-30 88z" />
<glyph unicode="o" horiz-adv-x="1189" d="M103 499q0 207 145.5 353t343.5 146t344 -146t146 -353t-146 -353t-344 -146t-343.5 146t-145.5 353zM305 500q0 -123 86.5 -210t200.5 -87t200.5 87t86.5 210t-86.5 209.5t-200.5 86.5t-200.5 -86.5t-86.5 -209.5z" />
<glyph unicode="p" d="M90 913q0 66 30 86t72 20t72 -20t30 -88q98 87 305 87t353 -146t146 -353t-146 -353t-353 -146q-167 0 -295 96l4 -479q0 -42 -30 -72t-72 -30t-72 30t-30 72zM303 520q1 -9 1 -18v-38q12 -100 92 -180t203 -80l1 -1q122 0 208 87q87 87 87 210t-86.5 209.5t-209.5 86.5 t-207 -83t-89 -193z" />
<glyph unicode="q" d="M90 499q0 207 146 353t353 146t305 -87q0 68 30 88t72 20t72 -20t30 -86l-14 -1296q0 -42 -30 -72t-72 -30t-72 30t-30 72l4 479q-128 -96 -295 -96q-207 0 -353 146t-146 353zM293 500q0 -123 87 -210q86 -87 208 -87l1 1q123 0 203 80t92 180v38q0 9 1 18 q-5 110 -89 193t-207 83t-209.5 -86.5t-86.5 -209.5z" />
<glyph unicode="r" horiz-adv-x="801" d="M100 118l6 802q0 66 30 86t72 20t72 -20q29 -19 29 -130v-8q75 122 291 132q42 0 72 -30t30 -72t-30 -72t-72 -30h-1q-123 0 -207 -83t-89 -193q1 -9 1 -18v-386q0 -56 -30 -86t-72 -30t-72 30t-30 88z" />
<glyph unicode="s" horiz-adv-x="900" d="M100 350q0 42 29 71t71 29t71 -29t29 -81t44 -96t106 -44t105 8t57 84q3 16 3 31q0 53 -40 83q-51 38 -111 37q-72 10 -188 56.5t-124 249.5q12 177 155 247q70 34 164 35q98 0 223 -38q62 -21 72 -49q7 -18 7 -51q0 -19 -2 -42q-9 -25 -57 -43q-14 -5 -29 -5 q-39 0 -87 33q-72 28 -121 28q-36 0 -60 -16q-55 -36 -63 -98q-3 -23 -3 -41q1 -31 9 -47q14 -26 97 -48q160 -12 258.5 -94t98.5 -227q-21 -154 -96.5 -222t-267.5 -71q-145 0 -247.5 102.5t-102.5 247.5z" />
<glyph unicode="t" horiz-adv-x="801" d="M80 967q0 42 30 72t72 30h430q42 0 72 -30t30 -72t-30 -72t-72 -30h-430q-42 0 -72 30t-30 72zM298 79v624q0 66 30 86t72 20t72 -20t30 -88v-622q0 -42 -30 -72t-72 -30t-72 30t-30 72zM298 1347q0 42 30 72t72 30t72 -30t30 -72l4 -130q0 -68 -30 -88t-72 -20t-72 20 t-30 86z" />
<glyph unicode="u" d="M130 503v451q0 58 30 88t72 30t72 -30t30 -86v-451q0 -9 -1 -18q5 -110 89 -193t177 -90h4q133 2 179 80q64 86 70 196q-1 9 -1 18l-5 454q0 56 30 86t72 30t72 -30t30 -88l5 -454q-2 -204 -139 -348q-110 -132 -307 -148h-16q-181 19 -322 155q-139 144 -141 348z" />
<glyph unicode="v" d="M96 960q0 36 29.5 66t79.5 30t78 -50h1l259 -554q28 -39 28 -67q0 -11 -5 -21q-16 -32 -52 -54q-32 -20 -65 -20h-7q-36 2 -69 60l-259 549q-18 25 -18 61zM480 82q-2 7 -2 16q0 32 30 84l400 824l1 -1q29 51 79 51t79 -29.5t29 -66.5t-19 -62l-410 -843q-41 -49 -75 -49 h-4q-36 3 -68 30q-30 12 -40 46z" />
<glyph unicode="w" horiz-adv-x="1970" d="M115 918q0 36 29.5 66t79.5 30t78 -50h1l272 -639l163 352q34 63 70 67q7 1 14 0q29 0 60 -15q38 -19 56 -50q6 -11 6 -27q0 -26 -19 -63l-256 -524q-7 -21 -29 -43t-64 -22t-64 22t-30 42l-349 793q-18 25 -18 61zM896 831q-1 8 -1 16q0 61 58 83q35 24 71 24l1 1 q36 0 72 -54l278 -576l284 626l1 -1q30 51 79 51q50 0 79 -29.5t29 -66.5t-19 -62l-359 -778q-7 -21 -29 -43t-64 -22t-64 22t-30 42z" />
<glyph unicode="x" horiz-adv-x="1127" d="M117 98q0 42 30 71l176 208q43 46 75 46q4 1 10 -1q36 -8 64 -40q28 -30 34 -66q1 -4 0 -8q0 -33 -43 -73l-5 4l-168 -211q-28 -30 -71 -30t-72.5 29t-29.5 71zM117 898q0 42 29.5 71t71.5 29t70 -29l713 -799q29 -30 29 -72t-29 -70.5t-71 -28.5t-71 29l-713 799 q-29 29 -29 71zM642 664q-1 4 -1 8q0 32 42 73l176 224q29 30 71 30t71 -29.5t29 -74.5t-38 -75l-167 -221q-42 -40 -74 -40q-5 0 -10 1q-35 8 -64 38t-35 66z" />
<glyph unicode="y" horiz-adv-x="1226" d="M63 941q0 34 28.5 63t70.5 29q42 -1 65 -23t30 -43l361 -417q29 -42 29 -72q0 -10 -3 -18q-13 -34 -47 -58t-70 -25h-1q-36 0 -74 53l-377 455q-12 22 -12 56zM272 -374q0 36 13 62l656 1283q7 20 30 43t65 23t71 -29t29 -62t-10 -53l-656 -1296q-34 -67 -98 -67 q-42 0 -71 30t-29 66z" />
<glyph unicode="z" horiz-adv-x="1185" d="M100 100q3 93 97 97l803 3q41 0 70.5 -29t29.5 -71t-29.5 -71t-70.5 -29h-800q-42 0 -71 29.5t-29 70.5zM106 898q0 42 29 71t71 29l794 2q41 0 70.5 -29t29.5 -71t-30 -71l-638 -558q-63 -48 -93 -48q-3 0 -6 1q-29 6 -69 31q-12 11 -25 45q-3 9 -3 18q0 29 28 69 l495 413l-553 -2q-42 0 -71 29t-29 71z" />
<glyph unicode="{" horiz-adv-x="761" d="M148 704q0 42 22.5 64t44.5 29q26 3 55.5 32.5t29.5 70.5l-10 294q0 125 87.5 212.5t178.5 83.5q41 0 70.5 -29t29.5 -71t-30 -71t-54 -27t-53 -27t-29 -71l10 -294q0 -115 -134 -199q134 -85 134 -201l-3 -307q0 -41 29 -70.5t33 -36.5q42 0 71 -29t29 -71t-29 -71 t-71 -29q-87 7 -174.5 95t-87.5 212l3 307q0 42 -29.5 71t-55.5 38q-67 29 -67 95z" />
<glyph unicode="|" horiz-adv-x="401" d="M86 1423q0 42 30 72t72 30t72 -30t30 -72l14 -1069q5 -93 -52.5 -112.5t-95.5 0.5t-48 48q-10 29 -14 33l-4 17l2 1zM87 -94l2 156v18q-2 37 9 63q18 36 57.5 46.5t83.5 0.5q37 -18 47 -47t8 -45v-7q1 -39 1 -71v-48q0 -48 -2 -71q4 -36 -26.5 -63.5t-72.5 -27.5t-72 30 t-35 66z" />
<glyph unicode="}" horiz-adv-x="801" d="M141 -14q0 42 29 71t71 29q4 6 33 36t29 71l-3 307q0 116 134 201q-134 84 -134 199l10 294q0 42 -29 71t-53 27t-54 28q-29 30 -30 70q0 42 30 71q29 29 70 29q91 4 179 -84q87 -88 87 -212l-10 -294q0 -40 30 -70q29 -30 55 -33q22 -7 45 -29q22 -22 22 -64 q0 -66 -67 -95q-26 -9 -55 -38t-30 -71l3 -307q0 -124 -87 -212t-175 -95q-42 0 -71 30q-29 28 -29 70z" />
<glyph unicode="~" horiz-adv-x="977" d="M-33 498q-18 42 32 114q52 56 132 129q79 73 183 73t177 -73t73 -177q0 -25 18 -44q18 -18 45 -18q26 0 44 18t66 76q38 28 65 56t66 27q39 1 66 -27q28 -28 3 -102q-60 -90 -133 -163t-177 -73t-177 73t-73 177q0 25 -18 44q-18 18 -45 18q-26 0 -45 -12t-80 -59 q-29 -35 -56 -63q-28 -28 -66 -28q-81 -6 -100 34z" />
<glyph unicode="&#xa1;" horiz-adv-x="401" d="M427 636q0 42 30 72t72 30t72 -30t30 -72l4 -681q2 -93 -99 -100q-42 -1 -73 18q-31 18 -33 86zM432 -308q2 81 33 100q31 18 73 16t71 -23t26 -87l1 -2v-53q0 -42 -30 -72t-72 -30t-72 30t-30 72v49zM435 945q0 42 30 72t72 30t72 -30t30 -72t-30 -72t-72 -30t-72 30 t-30 72z" />
<glyph unicode="&#xa2;" d="M137 499q0 207 146 353t353 146q68 0 174 -44l95 162q30 52 90 52q25 0 63 -22t38 -82q0 -26 -39 -77l-99 -115q11 0 99 -83l-1 -1q0 -1 1 -1q29 -29 29 -71t-29 -71t-71 -29t-118 90l-313 -484q52 -18 93 -18q110 -1 260 168q31 31 73 31t72 -29.5t30 -71.5t-32 -74 q-208 -228 -415 -228q-98 0 -207 45l-84 -152q-30 -51 -90 -51q-25 0 -63 22t-38 82q0 25 14 49l132 141q-163 156 -163 363zM339 500q12 -94 78 -181l301 459q-11 1 -22 1q-183 17 -270 -69.5t-87 -209.5z" />
<glyph unicode="&#xa3;" horiz-adv-x="1131" d="M79 87q0 38 20 63l-3 3q17 20 31 39l-1 2q180 180 169 222q-1 31 -4 57l-57 1q-30 -16 -66 22t-36 80t26 68t38 30q-41 256 -41 376q0 166 116.5 283t282.5 117t361 -190q16 -16 30 -33l-5 -4q24 -27 24 -67t-29 -69t-71 -29t-64 22t-30 43q-134 127 -216 127t-140.5 -58 t-58.5 -136t59 -340q14 -17 25 -39l133 -6q42 0 72 -30t30 -72t-30 -72t-72 -30l-81 6q3 -29 4 -61q12 6 -30 -107q115 -11 200 -92q33 -17 72 -17q62 0 169 179l3 -3q17 8 49 8t61.5 -29t29.5 -61t-8 -50l6 -6q-30 -30 -49 -42q-149 -196 -261 -196q-140 0 -241 95 q-31 16 -68 16q-106 -10 -146 -41q-5 -8 -11 -15q-7 -17 -29 -39t-64 -22t-70.5 29.5t-28.5 67.5z" />
<glyph unicode="&#xa4;" horiz-adv-x="998" d="M56 1036q-2 52 28 81.5t71 29.5q84 -16 116 -75l26 -26q91 54 203 54t204 -54l26 26q47 63 105 69q42 0 70.5 -29.5t28.5 -79.5t-63 -103l-25 -25q54 -91 54 -204t-55 -203l26 -26q59 -47 60 -87t-28 -69t-71 -36q-46 -12 -102 50l-26 26q-91 -55 -204 -55t-203 55 l-26 -26q-45 -49 -106 -58q-41 0 -70.5 29t-29.5 71q5 53 65 100l25 25q-55 91 -55 204t55 204l-25 25q-72 55 -74 107zM266 703q11 -135 68.5 -188.5t167.5 -60.5q244 -2 246 258q-8 234 -240 228q-114 -2 -173.5 -58t-68.5 -179z" />
<glyph unicode="&#xa5;" horiz-adv-x="1316" d="M89 1340q0 36 29.5 66t81.5 30t79 -55l387 -455l368 468q33 44 79 44t75 -29t29 -69t-24 -67l-370 -446l79 -8q42 0 72 -30t30 -72t-30 -72t-72 -30l-137 2l4 -262l137 -2q42 0 72 -30t30 -72t-30 -72t-72 -30l-137 2l-1 -128q0 -42 -29 -71t-71 -29t-71 29t-29 71l1 128 l-141 -1q-42 0 -72 30t-30 72t30 72t72 30l141 1l-4 262l-141 -1q-42 0 -72 30t-30 72t30 72t72 30l74 7l-392 452q-17 25 -17 61z" />
<glyph unicode="&#xa6;" horiz-adv-x="477" d="M136 -276v741q0 42 30 72t72 30t72 -30t30 -72v-741q0 -42 -30 -72t-72 -30t-72 30t-30 72zM140 773l6 710q0 42 30 72t72 30t72 -30t30 -72l-6 -710q0 -42 -30 -72t-72 -30t-72 30t-30 72z" />
<glyph unicode="&#xa7;" horiz-adv-x="1020" d="M112 1176q0 166 117 283.5t283 117.5t236 -66.5t118 -223.5q0 -41 -29 -70.5t-71 -29.5t-71 29.5t-29 70.5q-25 75 -48 82.5t-106 7.5t-141.5 -59.5t-58.5 -141.5t87.5 -168t183.5 -86t172 -77t76 -175t-34 -143q19 -12 56 -49q59 -62 59 -228t-117 -283t-283 -117 t-236 75t-112 161t0 118.5t84 32.5t71 -29.5t29 -70.5q47 -84 71.5 -85.5t100.5 -1.5t134 59t58 141t-29.5 113.5t-125.5 31.5t-172 77t-76 175t34 143q-19 12 -56 49q-175 171 -175 337zM435 654q0 -57 40 -97t96 -40t96 40t40 97t-40 96t-96 39t-96 -39t-40 -96z" />
<glyph unicode="&#xa8;" horiz-adv-x="703" d="M83 1200q0 42 33 71t79 29t75.5 -29t29.5 -71t-29.5 -71t-75.5 -29t-79 29t-33 71zM400 1200q0 42 29.5 71t74.5 29t74 -29t29 -71t-29 -71t-74 -29t-74.5 29t-29.5 71z" />
<glyph unicode="&#xa9;" horiz-adv-x="1821" d="M100 717q0 338 239.5 577.5t577.5 239.5t577.5 -239.5t239.5 -577.5t-239.5 -577.5t-577.5 -239.5t-577.5 239.5t-239.5 577.5zM292 717q12 -253 191 -433t434 -191q253 11 433 191t191 433q-11 253 -191 433t-433 192q-255 -12 -434 -192t-191 -433zM488 698 q0 188 133 320t309 132t312 -131l-1 -1l11 -10q10 -10 9 -36q0 -26 -18.5 -45.5t-44.5 -19.5t-46 19q-1 0 -2 1v-1q-98 95 -221 95t-217.5 -95t-94.5 -229t94.5 -229t217.5 -95t223 96v-1q1 1 2 1q18 19 44 19t45.5 -19t19.5 -45t-20 -47h1q-138 -132 -314 -132t-309 132.5 t-133 320.5z" />
<glyph unicode="&#xaa;" horiz-adv-x="863" d="M102 1116q0 126 89 215.5t215 89.5t182 -53q-2 55 31.5 64t60.5 3q37 -19 33 -56v-5l-1 -502q0 -42 -18 -54t-44 -12t-44.5 12t-18.5 53q-79 -59 -193 -59t-203 89t-89 215zM103 606q0 28 30 58t72 30h443q42 0 72 -30t30 -58t-30 -58.5t-72 -30.5h-443q-42 0 -72 30.5 t-30 58.5zM232 1117q0 -75 52.5 -128t127.5 -53t124 49t56 110v34q-3 67 -54 117t-126 50.5t-127.5 -52t-52.5 -127.5z" />
<glyph unicode="&#xab;" horiz-adv-x="949" d="M100 700q0 30 16 55l200 301h1q27 44 76 44t78 -29t29 -68t-23 -66l-156 -236l162 -244q17 -25 17 -61t-29 -66t-75 -30t-80 45l-2 -1l-200 300l2 1q-16 25 -16 55zM452 700q0 30 16 55l200 301h1q27 44 76 44t78 -29t29 -68t-23 -66l-156 -236l162 -244q17 -25 17 -61 t-29 -66t-75 -30t-80 45l-2 -1l-200 300l2 1q-16 25 -16 55z" />
<glyph unicode="&#xad;" horiz-adv-x="864" d="M158 673q0 42 30 72t72 30l369 1q42 0 72 -30t30 -72t-30 -72t-72 -30l-369 -1q-42 0 -72 30t-30 72z" />
<glyph unicode="&#xae;" horiz-adv-x="1835" d="M100 717q0 338 239.5 577.5t577.5 239.5t577.5 -239.5t239.5 -577.5t-239.5 -577.5t-577.5 -239.5t-577.5 239.5t-239.5 577.5zM293 717q11 -253 190 -433t434 -190q253 10 433 190t191 433q-11 253 -191 433t-433 190q-255 -10 -434 -190t-190 -433zM578 326v788 q0 27 19.5 46t46.5 19l263 1q110 0 189 -79t79 -189t-78 -188q-12 -12 -22 -19q-60 -54 -168 -61l-106 1q-20 -1 -41 9t-29.5 35.5t5.5 50.5q18 40 58 36h5l108 -3q57 0 98 40.5t41 98.5t-41 98.5t-98 40.5h-198l2 -428l-2 -297q0 -27 -19 -46.5t-46 -19.5t-46.5 19.5 t-19.5 46.5zM997 597q6 51 73 61q27 -2 40 -17t16 -29l149 -254q9 -16 9 -28q0 -43 -34 -61q-16 -9 -28 -9q-42 0 -61 32l-155 265q-9 23 -9 40z" />
<glyph unicode="&#xaf;" horiz-adv-x="801" d="M134 1301q0 42 30 72t72 30l369 1q42 0 72 -30t30 -72t-30 -72t-72 -30l-369 -1q-42 0 -72 30t-30 72z" />
<glyph unicode="&#xb0;" horiz-adv-x="801" d="M202 1208q0 96 68 163t164 67t163.5 -67t67.5 -163t-67.5 -164.5t-163.5 -68.5t-164 68.5t-68 164.5zM308 1212q0 -48 36 -83t86 -35t86 35t36 83t-36 82.5t-86 34.5t-86 -34.5t-36 -82.5z" />
<glyph unicode="&#xb1;" horiz-adv-x="998" d="M166 694q0 42 30 72t72 30l129 2l1 150q0 42 30 72t72 30t72 -30t30 -72l-1 -150l129 -4q42 0 72 -30t30 -72t-30 -72t-72 -30l-129 4l2 -132q0 -42 -30 -72q-31 -30 -73 -30t-72 30t-29 72l-2 132l-129 -2q-42 0 -72 30t-30 72zM233 92q-1 42 29 72t73 30h304 q42 0 72 -30t30 -72t-30 -72t-72 -30h-304q-43 0 -73 30t-29 72z" />
<glyph unicode="&#xb4;" horiz-adv-x="689" d="M151 1155q0 65 52 95l217 125q24 14 44 14t47 -7q27 -8 45 -38t18 -50q0 -66 -52 -95l-217 -125q-24 -14 -44 -14q-66 0 -96 51q-14 24 -14 44z" />
<glyph unicode="&#xb5;" horiz-adv-x="1267" d="M102 976q0 48 30 73t72 25t72 -25t30 -71l-2 -511q10 -103 91 -183t234 -77h4q175 -12 259 71t90 193q-1 9 -1 18l2 480q0 57 47 83q25 17 62 17t67 -30t30 -72l-5 -893q0 -42 -30 -72t-72 -30t-72 30t-27 96q-121 -97 -344 -95h-16q-198 7 -319 95l6 -410q0 -42 -30 -72 t-72 -30t-72 30t-30 72z" />
<glyph unicode="&#xb6;" horiz-adv-x="1338" d="M85 1018q0 198 122.5 307.5t354.5 109.5l210 -1q11 0 21 -2l340 -4q10 2 21 2q42 0 72 -30t30 -72v-889q2 -99 -14 -131t-52 -46t-74 6q-60 31 -56 93l-4 194l-4 675l-178 4v-1132q0 -42 -30 -72t-72 -30t-72 30t-30 72v498h-108q-232 0 -358 110t-119 308zM286 1018 q-7 -115 89.5 -166t186.5 -51h108v433h-108q-90 0 -183 -51t-93 -165zM1050 100q-2 44 9 69q18 36 57.5 46.5t83.5 0.5q36 -18 46 -47t9 -45v-7q1 -61 -29 -91t-72 -30t-72 30t-32 74z" />
<glyph unicode="&#xb7;" horiz-adv-x="508" d="M94 622q0 36 25 61t70 25t70 -25q26 -25 26 -61t-26 -62q-25 -25 -70 -25t-70 25t-25 62z" />
<glyph unicode="&#xb8;" horiz-adv-x="521" d="M82 -344q0 31 26 53.5t58 22.5q103 19 113.5 29.5t10.5 34.5t-29 29h-6q-34 0 -55 22q-22 22 -22 41t1 26v70q2 69 23 73t53 4t57 -6t20 -71v-25q29 -14 54 -38q76 -56 76 -133q0 -172 -296 -206q-32 0 -58 21.5t-26 52.5z" />
<glyph unicode="&#xba;" horiz-adv-x="863" d="M104 639q0 21 30 51t72 30h447q41 0 71 -30t30 -51t-30 -51t-71 -30h-447q-42 0 -72 30t-30 51zM141 1150q0 118 83.5 202t196.5 84t196.5 -84t83.5 -202t-83.5 -201.5t-196.5 -83.5t-196.5 83.5t-83.5 201.5zM257 1152q0 -70 49.5 -120.5t114.5 -50.5t114.5 50.5 t49.5 120.5t-49.5 119t-114.5 49t-114.5 -49t-49.5 -119z" />
<glyph unicode="&#xbb;" horiz-adv-x="949" d="M100 396q0 36 17 61l162 244l-156 236q-23 27 -23 66t29 68t78 29t76 -44h1l200 -301q16 -25 16 -55t-16 -55l2 -1l-200 -300l-2 1q-34 -45 -80 -45t-75 30t-29 66zM452 396q0 36 17 61l162 244l-156 236q-23 27 -23 66t29 68t78 29t76 -44h1l200 -301q16 -25 16 -55 t-16 -55l2 -1l-200 -300l-2 1q-34 -45 -80 -45t-75 30t-29 66z" />
<glyph unicode="&#xbf;" horiz-adv-x="1026" d="M100 -41q0 173 122 295q85 84 194 110q-4 32 13 65q16 32 54 43q37 11 81 -5q56 -27 56 -90v-103q0 -42 -28 -104t-70 -62q-41 0 -54 37q-36 87 -109 -28q-59 -68 -59 -158t64 -154t154 -64t154 64l46 47v1q29 60 53 80q23 20 64 20t62 -29t31 -89l-10 17 q17 -66 -105 -188t-295 -123q-173 0 -295 123q-122 122 -123 295zM412 618v7q3 53 33 83t73 30q42 0 72 -30q29 -30 29 -69t-11 -66q-18 -36 -56 -53t-80 4q-63 31 -60 94zM416 922q0 42 30 72t72 30t72 -30t30 -72t-30 -72t-72 -30t-72 30t-30 72z" />
<glyph unicode="&#xc0;" horiz-adv-x="1603" d="M100 94q0 35 15 58l593 1222q6 16 28 38t74 22t80 -56l593 -1222q17 -24 17 -60t-30 -66q-28 -30 -70 -30t-133 28q-196 82 -305 128q-110 46 -172 74q-220 93 -220 95q-28 5 -54 31t-26 68t30 70q30 29 57 29t55 -9l639 -301l-471 892l-509 -1047q-7 -14 -29 -36 t-62 -22q-42 0 -71 30t-29 64zM584 1704q0 20 22 58t81 37q26 0 51 -14l194 -112q52 -30 52 -89q0 -26 -22 -64t-82 -37q-26 0 -50 14l-194 112q-52 29 -52 95z" />
<glyph unicode="&#xc1;" horiz-adv-x="1603" d="M100 94q0 35 15 58l593 1222q6 16 28 38t74 22t80 -56l593 -1222q17 -24 17 -60t-30 -66q-28 -30 -70 -30t-133 28q-196 82 -305 128q-110 46 -172 74q-220 93 -220 95q-28 5 -54 31t-26 68t30 70q30 29 57 29t55 -9l639 -301l-471 892l-509 -1047q-7 -14 -29 -36 t-62 -22q-42 0 -71 30t-29 64zM603 1565q0 65 52 95l217 125q24 14 44 14t47 -7q27 -8 45 -38t18 -50q0 -66 -52 -95l-217 -125q-24 -14 -44 -14q-66 0 -96 51q-14 24 -14 44z" />
<glyph unicode="&#xc2;" horiz-adv-x="1603" d="M100 94q0 35 15 58l593 1222q6 16 28 38t74 22t80 -56l593 -1222q17 -24 17 -60t-30 -66q-28 -30 -70 -30t-133 28q-196 82 -305 128q-110 46 -172 74q-220 93 -220 95q-28 5 -54 31t-26 68t30 70q30 29 57 29t55 -9l639 -301l-471 892l-509 -1047q-7 -14 -29 -36 t-62 -22q-42 0 -71 30t-29 64zM502 1580l1 1q0 42 30 72l176 128q73 45 126 25q22 -8 67 -34l147 -112q30 -30 30 -72t-30 -73q-30 -30 -71 -30l-1 1q-42 0 -72 30l-104 50l-124 -57q-31 -30 -73 -30t-72 30t-30 71z" />
<glyph unicode="&#xc3;" horiz-adv-x="1603" d="M100 94q0 35 15 58l593 1222q6 16 28 38t74 22t80 -56l593 -1222q17 -24 17 -60t-30 -66q-28 -30 -70 -30t-133 28q-196 82 -305 128q-110 46 -172 74q-220 93 -220 95q-28 5 -54 31t-26 68t30 70q30 29 57 29t55 -9l639 -301l-471 892l-509 -1047q-7 -14 -29 -36 t-62 -22q-42 0 -71 30t-29 64zM398 1558q-14 32 25 90q41 46 105 104t147 58t141 -58t59 -142q1 -20 15 -35t35 -15t35 15t53 61q30 22 52 44t53 22t53 -22t2 -81q-49 -73 -107 -131t-141 -58t-141 58t-59 142q-1 20 -15 35t-35 15t-37 -10t-63 -47q-23 -29 -45 -51t-53 -22 q-65 -4 -79 28z" />
<glyph unicode="&#xc4;" horiz-adv-x="1603" d="M100 94q0 35 15 58l593 1222q6 16 28 38t74 22t80 -56l593 -1222q17 -24 17 -60t-30 -66q-28 -30 -70 -30t-133 28q-196 82 -305 128q-110 46 -172 74q-220 93 -220 95q-28 5 -54 31t-26 68t30 70q30 29 57 29t55 -9l639 -301l-471 892l-509 -1047q-7 -14 -29 -36 t-62 -22q-42 0 -71 30t-29 64zM533 1610q0 42 33 71t79 29q45 0 75 -29t30 -71t-30 -70q-30 -30 -75 -30q-46 0 -79 30t-33 70zM850 1610q0 42 30 71t74 29q45 0 74 -29t29 -71t-29 -70q-29 -30 -74 -30q-44 0 -74 30t-30 70z" />
<glyph unicode="&#xc5;" horiz-adv-x="1603" d="M100 94q0 35 15 58l593 1222q20 46 69 57q-58 11 -112 65q-53 53 -53 139q0 87 60 147t143 60t143 -60t60 -147q0 -86 -57 -143t-129 -63q39 -13 58 -51l593 -1222q17 -24 17 -60t-30 -66q-28 -30 -70 -30t-133 28q-196 82 -305 128q-110 46 -172 74q-220 93 -220 95 q-28 5 -54 31t-26 68t30 70q30 29 57 29t55 -9l639 -301l-471 892l-509 -1047q-7 -14 -29 -36t-62 -22q-42 0 -71 30t-29 64zM696 1636q0 -50 36 -87q36 -36 83 -36t83 36q36 37 35 87q1 50 -35 86t-83 36t-83 -36t-36 -86z" />
<glyph unicode="&#xc6;" horiz-adv-x="2299" d="M81 96q0 35 15 58l1179 1250q7 16 29 38t63 22l741 -12q42 0 72 -30t30 -72t-30 -72t-72 -30h-688l3 -397l-3 -629h688q42 0 72 -30t30 -72t-30 -72t-72 -30l-727 -11q-53 0 -370 101.5t-317 104.5q-28 5 -54 31t-25.5 67.5t29.5 70.5q30 29 57 29t55 -9l496 -168v839 l-980 -1013q-6 -14 -28 -36t-64 -22t-70.5 29.5t-28.5 64.5zM1538 732q-10 40 11 76q33 56 95 49h313q42 0 72 -30t30 -72t-30 -72t-72 -30l-317 5q-28 -2 -60 16t-42 58z" />
<glyph unicode="&#xc7;" horiz-adv-x="1424" d="M84 703q0 297 230.5 514t527.5 201q261 16 508 -221l-1 -1q32 -32 32 -74t-30 -72t-72 -30t-74 32l-1 -1q-186 179 -362 163q-213 16 -383.5 -141.5t-170.5 -369.5t170.5 -355.5t383.5 -143.5q176 0 357 150l1 -1q32 32 74 32t72 -30t30 -72t-32 -74l1 -1 q-229 -197 -468 -207q2 -8 2 -17v-25q29 -14 54 -38q54 -55 54 -133t-54.5 -132.5t-132.5 -54.5q-161 -22 -182.5 -0.5t-21.5 52.5t21.5 53.5t182.5 44.5q37 0 37 34.5t-29 39.5h-6q-34 0 -55 22q-22 22 -22 41t1 26v70q0 13 3 24q-225 33 -394 202q-251 196 -251 493z" />
<glyph unicode="&#xc8;" horiz-adv-x="1174" d="M100 102v1230q0 42 30 72t72 30h790q42 0 72 -30t30 -72t-30 -72t-72 -30h-688l3 -397l-3 -629h688q42 0 72 -30t30 -72t-30 -72t-72 -30h-790q-42 0 -72 30t-30 72zM281 1704q0 20 22 58t81 37q26 0 51 -14l194 -112q52 -30 52 -89q0 -26 -22 -64t-82 -37q-26 0 -50 14 l-194 112q-52 29 -52 95zM422 714q-10 40 11 76q33 56 95 49h313q42 0 72 -30t30 -72t-30 -72t-72 -30l-317 5q-28 -2 -60 16t-42 58z" />
<glyph unicode="&#xc9;" horiz-adv-x="1174" d="M100 102v1230q0 42 30 72t72 30h790q42 0 72 -30t30 -72t-30 -72t-72 -30h-688l3 -397l-3 -629h688q42 0 72 -30t30 -72t-30 -72t-72 -30h-790q-42 0 -72 30t-30 72zM422 714q-10 40 11 76q33 56 95 49h313q42 0 72 -30t30 -72t-30 -72t-72 -30l-317 5q-28 -2 -60 16 t-42 58zM490 1565q0 65 52 95l217 125q25 14 45 14t46 -7q27 -8 45 -38t18 -50q0 -66 -52 -95l-217 -125q-24 -14 -44 -14q-66 0 -96 51q-14 24 -14 44z" />
<glyph unicode="&#xca;" horiz-adv-x="1174" d="M100 102v1230q0 42 30 72t72 30h790q42 0 72 -30t30 -72t-30 -72t-72 -30h-688l3 -397l-3 -629h688q42 0 72 -30t30 -72t-30 -72t-72 -30h-790q-42 0 -72 30t-30 72zM299 1580l1 1q0 42 30 72l176 128q73 45 126 25q22 -8 67 -34l147 -112q30 -30 30 -72t-30 -73 q-30 -30 -71 -30l-1 1q-42 0 -72 30l-104 50l-124 -57q-30 -30 -72 -30t-73 30q-30 30 -30 71zM422 714q-10 40 11 76q33 56 95 49h313q42 0 72 -30t30 -72t-30 -72t-72 -30l-317 5q-28 -2 -60 16t-42 58z" />
<glyph unicode="&#xcb;" horiz-adv-x="1174" d="M100 102v1230q0 42 30 72t72 30h790q42 0 72 -30t30 -72t-30 -72t-72 -30h-688l3 -397l-3 -629h688q42 0 72 -30t30 -72t-30 -72t-72 -30h-790q-42 0 -72 30t-30 72zM330 1610q0 42 33 71t79 29t76 -29t29 -71q1 -42 -29 -70q-30 -30 -76 -30t-79 30t-33 70zM422 714 q-10 40 11 76q33 56 95 49h313q42 0 72 -30t30 -72t-30 -72t-72 -30l-317 5q-28 -2 -60 16t-42 58zM647 1610q-1 42 29 71t75 29t74 -29t29 -71t-29 -70q-29 -30 -74 -30t-75 30t-29 70z" />
<glyph unicode="&#xcc;" horiz-adv-x="401" d="M-113 1704q0 20 22 58t81 37q26 0 51 -14l194 -112q52 -30 52 -89q0 -26 -22 -64t-82 -37q-26 0 -50 14l-194 112q-52 29 -52 95zM100 1317v7l1 1v30q0 42 30 72t72 30t72 -30t30 -72v-25q1 -34 -15 -66t-56 -46t-78 6q-60 31 -56 93zM101 88l1 973q-2 37 9 63 q17 36 57 46t84 1q36 -18 46 -47t9 -45v-7l-2 -984q0 -42 -30 -72t-72 -30t-72 30t-30 72z" />
<glyph unicode="&#xcd;" horiz-adv-x="401" d="M96 1565q0 65 52 95l217 125q25 14 45 14t46 -7q27 -8 45 -38t18 -50q0 -66 -52 -95l-217 -125q-24 -14 -44 -14q-66 0 -96 51q-14 24 -14 44zM100 1317v7l1 1v30q0 42 30 72t72 30t72 -30t30 -72v-25q1 -34 -15 -66t-56 -46t-78 6q-60 31 -56 93zM101 88l1 973 q-2 37 9 63q17 36 57 46t84 1q36 -18 46 -47t9 -45v-7l-2 -984q0 -42 -30 -72t-72 -30t-72 30t-30 72z" />
<glyph unicode="&#xce;" horiz-adv-x="401" d="M-95 1580l1 1q0 42 30 72l176 128q73 45 126 25q22 -8 67 -34l147 -112q30 -30 30 -72t-30 -73q-30 -30 -71 -30l-1 1q-42 0 -72 30l-104 50l-124 -57q-30 -30 -72 -30t-73 30q-30 30 -30 71zM101 1317v7l1 1v30q0 42 30 72t72 30t72 -30t30 -72v-25q2 -34 -14 -66 t-56 -46t-78 6q-60 31 -57 93zM102 88l1 973q-2 37 9 63q18 36 58 46t83 1q37 -18 47 -47t8 -45v-7l-2 -984q0 -42 -30 -72t-72 -30t-72 30t-30 72z" />
<glyph unicode="&#xcf;" horiz-adv-x="401" d="M-64 1610q0 42 33 71t79 29t76 -29t29 -71q1 -42 -29 -70q-30 -30 -76 -30t-79 30t-33 70zM100 1317v7l1 1v30q0 42 30 72t72 30t72 -30t30 -72v-25q1 -34 -15 -66t-56 -46t-78 6q-60 31 -56 93zM101 88l1 973q-2 37 9 63q17 36 57 46t84 1q36 -18 46 -47t9 -45v-7 l-2 -984q0 -42 -30 -72t-72 -30t-72 30t-30 72zM253 1610q-1 42 29 71t75 29t74 -29t29 -71t-29 -70q-29 -30 -74 -30t-75 30t-29 70z" />
<glyph unicode="&#xd0;" horiz-adv-x="1618" d="M44 701q0 42 30 72t72 30l154 1v528q0 42 30 72t72 30h395q340 0 520 -210t180 -507t-171.5 -510.5t-528.5 -206.5h-395q-42 0 -72 30t-30 72l-4 103q2 45 13 71q18 36 57.5 46.5t83.5 0.5q36 -18 46 -47t9 -45l-1 -27h293q272 -7 384 147t112 366t-120.5 362.5 t-375.5 150.5h-293v-426l475 1q42 0 72 -30t30 -72t-30 -72t-72 -30l-475 -1v-121q4 -33 -12 -65t-56 -46t-78 6q-60 31 -57 94v7l-1 125l-154 -1q-42 0 -72 30t-30 72z" />
<glyph unicode="&#xd1;" horiz-adv-x="1399" d="M100 102v1230q0 42 30 72t82 30t81 -56l746 -1052q25 -16 38 -50t-3 -72t-56 -53q-38 -15 -62 -5t-48 30l-596 839l-8 -913q0 -42 -30 -72t-72 -30t-72 30t-30 72zM300 1558q-14 32 25 90q41 46 105 104t147 58t141 -58t59 -142q1 -20 15 -35t35 -15t35 15t53 61 q30 22 52 44t53 22t53 -22t2 -81q-49 -73 -107 -131t-141 -58t-141 58t-59 142q-1 20 -15 35t-35 15t-37 -10t-63 -47q-23 -29 -45 -51t-53 -22q-65 -4 -79 28zM1100 1332q0 42 30 72t72 30t72 -30t30 -72l2 -1221q5 -29 -12 -61q-16 -32 -56 -46q-40 -13 -77 6 q-58 30 -54 93v7z" />
<glyph unicode="&#xd2;" horiz-adv-x="1652" d="M100 717q0 297 210 507t507 210t481 -172t218 -429q5 -29 -12 -61q-16 -32 -56 -46q-40 -13 -77 6q-58 30 -54 93v7q-42 174 -165 286q-124 112 -336 112t-362 -150t-150 -363t150 -363t362 -150t340 110q127 110 163 268q-4 63 54 93q37 19 77 6t56 -45q17 -32 12 -62 q-8 -178 -206 -376t-495 -198t-507 210t-210 507zM501 1704q0 20 22 58t81 37q26 0 51 -14l194 -112q52 -30 52 -89q0 -26 -22 -64t-82 -37q-26 0 -50 14l-194 112q-52 29 -52 95z" />
<glyph unicode="&#xd3;" horiz-adv-x="1652" d="M100 717q0 297 210 507t507 210t481 -172t218 -429q5 -29 -12 -61q-16 -32 -56 -46q-40 -13 -77 6q-58 30 -54 93v7q-42 174 -165 286q-124 112 -336 112t-362 -150t-150 -363t150 -363t362 -150t340 110q127 110 163 268q-4 63 54 93q37 19 77 6t56 -45q17 -32 12 -62 q-8 -178 -206 -376t-495 -198t-507 210t-210 507zM710 1565q0 65 52 95l217 125q25 14 45 14t46 -7q27 -8 45 -38t18 -50q0 -66 -52 -95l-217 -125q-24 -14 -44 -14q-66 0 -96 51q-14 24 -14 44z" />
<glyph unicode="&#xd4;" horiz-adv-x="1652" d="M100 717q0 297 210 507t507 210t481 -172t218 -429q5 -29 -12 -61q-16 -32 -56 -46q-40 -13 -77 6q-58 30 -54 93v7q-42 174 -165 286q-124 112 -336 112t-362 -150t-150 -363t150 -363t362 -150t340 110q127 110 163 268q-4 63 54 93q37 19 77 6t56 -45q17 -32 12 -62 q-8 -178 -206 -376t-495 -198t-507 210t-210 507zM519 1580l1 1q0 42 30 72l176 128q73 45 126 25q22 -8 67 -34l147 -112q30 -30 30 -72t-30 -73q-30 -30 -71 -30l-1 1q-42 0 -72 30l-104 50l-124 -57q-30 -30 -72 -30t-73 30q-30 30 -30 71z" />
<glyph unicode="&#xd5;" horiz-adv-x="1652" d="M100 717q0 297 210 507t507 210t481 -172t218 -429q5 -29 -12 -61q-16 -32 -56 -46q-40 -13 -77 6q-58 30 -54 93v7q-42 174 -165 286q-124 112 -336 112t-362 -150t-150 -363t150 -363t362 -150t340 110q127 110 163 268q-4 63 54 93q37 19 77 6t56 -45q17 -32 12 -62 q-8 -178 -206 -376t-495 -198t-507 210t-210 507zM422 1580q-14 32 25 90q41 46 105 104t147 58t141 -58t59 -142q1 -20 15 -35t35 -15t35 15t53 61q30 22 52 44t53 22t53 -22t2 -81q-49 -73 -107 -131t-141 -58t-141 58t-59 142q-1 20 -15 35t-35 15t-37 -10t-63 -47 q-23 -29 -45 -51t-53 -22q-65 -4 -79 28z" />
<glyph unicode="&#xd6;" horiz-adv-x="1652" d="M100 717q0 297 210 507t507 210t481 -172t218 -429q5 -29 -12 -61q-16 -32 -56 -46q-40 -13 -77 6q-58 30 -54 93v7q-42 174 -165 286q-124 112 -336 112t-362 -150t-150 -363t150 -363t362 -150t340 110q127 110 163 268q-4 63 54 93q37 19 77 6t56 -45q17 -32 12 -62 q-8 -178 -206 -376t-495 -198t-507 210t-210 507zM550 1610q0 42 33 71t79 29t76 -29t29 -71q1 -42 -29 -70q-30 -30 -76 -30t-79 30t-33 70zM867 1610q-1 42 29 71t75 29t74 -29t29 -71t-29 -70q-29 -30 -74 -30t-75 30t-29 70z" />
<glyph unicode="&#xd7;" horiz-adv-x="798" d="M97 905q0 41 30 71q31 30 73 30t72 -29l126 -136l122 134q30 29 72 29t72 -30t30 -72t-30 -72l-122 -133l128 -115q30 -30 30 -72t-30 -72.5t-71 -30.5l-1 1q-42 0 -72 29l-128 116l-124 -139q-30 -30 -72 -30l-1 1q-42 0 -72 29q-29 30 -29 72l-1 1q0 42 30 72l125 138 l-127 135q-29 30 -29 72z" />
<glyph unicode="&#xd8;" horiz-adv-x="1652" d="M100 717q0 297 210 507t507 210q147 0 272 -51l37 63q30 52 90 52q25 0 63 -22t38 -82q0 -26 -14 -50l-38 -66q269 -224 269 -541t-210 -527t-507 -210q-141 0 -263 47l-46 -80q-30 -51 -90 -51q-26 0 -64 22t-37 82q0 25 14 49l47 81q-35 27 -68 60q-210 210 -210 507z M304 710.5q0 -218.5 177 -382.5q31 64 54 80q35 21 74 8t70 -45q21 -35 13 -65t-17 -42l-17 -36q75 -24 159 -24q212 0 362.5 150.5t150.5 362.5t-150 363q-10 9 -19 18l-344 -631q-13 -29 -45 -47t-72.5 -8t-62.5 50q-22 35 -15 61t22 51l342 629q-79 27 -169 27 q-213 0 -363 -150.5t-150 -369z" />
<glyph unicode="&#xd9;" d="M100 496v836q0 48 30 75t72 27t72 -27t30 -73v-836q0 -9 -1 -18q5 -110 89 -193t239 -83h4q133 -7 198 46q104 73 120 231q-1 9 -1 18v469q-2 46 9 72q17 36 57 46t84 1q36 -18 46 -47t9 -45v-21l-1 -477q-2 -204 -146 -348q-143 -154 -369 -149h-16q-243 12 -383 152 t-142 344zM285 1704q0 20 22 58q22 37 81 37q26 0 51 -14l194 -112q52 -30 52 -89q0 -26 -22 -64t-82 -37q-26 0 -50 14l-194 112q-52 29 -52 95zM951 1234l1 101q0 46 30 73t72 27t72 -27t30 -75v-93q2 -38 -14 -70q-33 -65 -140 -39q-26 27 -45 60q-6 19 -5 35v7z" />
<glyph unicode="&#xda;" d="M100 496v836q0 48 30 75t72 27t72 -27t30 -73v-836q0 -9 -1 -18q5 -110 89 -193t239 -83h4q133 -7 198 46q104 73 120 231q-1 9 -1 18v469q-2 46 9 72q17 36 57 46t84 1q36 -18 46 -47t9 -45v-21l-1 -477q-2 -204 -146 -348q-143 -154 -369 -149h-16q-243 12 -383 152 t-142 344zM494 1565q0 65 52 95l217 125q25 14 45 14t46 -7q27 -8 45 -38t18 -50q0 -66 -52 -95l-217 -125q-24 -14 -44 -14q-66 0 -96 51q-14 24 -14 44zM951 1234l1 101q0 46 30 73t72 27t72 -27t30 -75v-93q2 -38 -14 -70q-33 -65 -140 -39q-26 27 -45 60q-6 19 -5 35v7z " />
<glyph unicode="&#xdb;" d="M100 496v836q0 48 30 75t72 27t72 -27t30 -73v-836q0 -9 -1 -18q5 -110 89 -193t239 -83h4q133 -7 198 46q104 73 120 231q-1 9 -1 18v469q-2 46 9 72q17 36 57 46t84 1q36 -18 46 -47t9 -45v-21l-1 -477q-2 -204 -146 -348q-143 -154 -369 -149h-16q-243 12 -383 152 t-142 344zM303 1580l1 1q0 42 30 72l176 128q73 45 126 25q22 -8 67 -34l147 -112q30 -30 30 -72t-30 -73q-30 -30 -71 -30l-1 1q-42 0 -72 30l-104 50l-124 -57q-30 -30 -72 -30t-73 30q-30 30 -30 71zM951 1234l1 101q0 46 30 73t72 27t72 -27t30 -75v-93q2 -38 -14 -70 q-33 -65 -140 -39q-26 27 -45 60q-6 19 -5 35v7z" />
<glyph unicode="&#xdc;" d="M100 496v836q0 48 30 75t72 27t72 -27t30 -73v-836q0 -9 -1 -18q5 -110 89 -193t239 -83h4q133 -7 198 46q104 73 120 231q-1 9 -1 18v469q-2 46 9 72q17 36 57 46t84 1q36 -18 46 -47t9 -45v-21l-1 -477q-2 -204 -146 -348q-143 -154 -369 -149h-16q-243 12 -383 152 t-142 344zM334 1610q0 42 33 71t79 29t76 -29t29 -71q1 -42 -29 -70q-30 -30 -76 -30t-79 30t-33 70zM651 1610q-1 42 29 71t75 29t74 -29t29 -71t-29 -70q-29 -30 -74 -30t-75 30t-29 70zM951 1234l1 101q0 46 30 73t72 27t72 -27t30 -75v-93q2 -38 -14 -70 q-33 -65 -140 -39q-26 27 -45 60q-6 19 -5 35v7z" />
<glyph unicode="&#xdd;" d="M39 1336q-1 36 29 66t82 29q52 0 79 -55l337 -398q11 -14 24 -32q58 -78 114 -184q8 -65 6 -180q-3 -115 -3 -151v-43l-6 -288q0 -42 -29 -71q-28 -29 -70 -29t-72 29t-29 71v618l-445 556q-17 26 -17 62zM493 1565q0 65 52 95l217 125q24 14 44 14t47 -7q27 -8 45 -38 t18 -50q0 -66 -52 -95l-217 -125q-24 -14 -44 -14q-66 0 -96 51q-14 24 -14 44zM664 920q-30 66 18 114l277 360q33 44 79 44t75 -30q29 -28 29 -68t-24 -67q-291 -389 -324 -405q-32 -16 -72 -1q-40 14 -58 53z" />
<glyph unicode="&#xdf;" horiz-adv-x="1106" d="M97 246q-2 45 9 71q18 36 57.5 46.5t83.5 0.5q37 -18 47 -47t8 -45v-7l2 -163q0 -42 -30 -72t-72 -30t-72 30t-30 72zM100 1084q0 145 102.5 247.5t247.5 102.5h15q124 0 212 -88t88 -212t-107.5 -241t-107.5 -137t14.5 -34.5t35.5 -14.5q145 0 284.5 -102t139.5 -247 t-139.5 -248t-397.5 -118q-42 0 -71 29t-29 71t29 71t71 29q175 15 256 59.5t81 106.5t-81 105.5t-143 43.5q-104 0 -177 73.5t-73 175.5t68 173l117 134q30 29 30 71t-29.5 71t-70.5 29h-15q-62 0 -106 -44t-44 -106l10 -564q4 -32 -12 -64t-56 -46t-78 6q-60 31 -57 93v7z " />
<glyph unicode="&#xe0;" d="M100 499q0 207 146 353t353 146t297 -88q-2 37 9 63q17 37 57 47t84 0q36 -18 46 -47t9 -45v-7l-3 -823q0 -68 -30 -88t-72 -20t-72 20t-30 86q-128 -96 -295 -96q-207 0 -353 146t-146 353zM283 1294q0 20 22 58t81 37q26 0 51 -14l194 -112q52 -30 52 -89 q0 -26 -22 -64t-82 -37q-26 0 -50 14l-194 112q-52 29 -52 95zM313 499q0 -123 86 -209t209 -87q123 0 203 80t91 180v38q0 9 1 18q-6 111 -89 193t-206 82t-209 -86t-86 -209z" />
<glyph unicode="&#xe1;" d="M100 499q0 207 146 353t353 146t297 -88q-2 37 9 63q17 37 57 47t84 0q36 -18 46 -47t9 -45v-7l-3 -823q0 -68 -30 -88t-72 -20t-72 20t-30 86q-128 -96 -295 -96q-207 0 -353 146t-146 353zM313 499q0 -123 86 -209t209 -87q123 0 203 80t91 180v38q0 9 1 18 q-6 111 -89 193t-206 82t-209 -86t-86 -209zM492 1155q0 65 52 95l217 125q25 14 45 14t46 -7q27 -8 45 -38t18 -50q0 -66 -52 -95l-217 -125q-24 -14 -44 -14q-66 0 -96 51q-14 24 -14 44z" />
<glyph unicode="&#xe2;" d="M100 499q0 207 146 353t353 146t297 -88q-2 37 9 63q17 37 57 47t84 0q36 -18 46 -47t9 -45v-7l-3 -823q0 -68 -30 -88t-72 -20t-72 20t-30 86q-128 -96 -295 -96q-207 0 -353 146t-146 353zM301 1170l1 1q0 42 30 72l176 128q73 45 126 25q22 -8 67 -34l147 -112 q30 -30 30 -72t-30 -73q-30 -30 -71 -30l-1 1q-42 0 -72 30l-104 50l-124 -57q-30 -30 -72 -30t-73 30q-30 30 -30 71zM313 499q0 -123 86 -209t209 -87q123 0 203 80t91 180v38q0 9 1 18q-6 111 -89 193t-206 82t-209 -86t-86 -209z" />
<glyph unicode="&#xe3;" d="M100 499q0 207 146 353t353 146t297 -88q-2 37 9 63q17 37 57 47t84 0q36 -18 46 -47t9 -45v-7l-3 -823q0 -68 -30 -88t-72 -20t-72 20t-30 86q-128 -96 -295 -96q-207 0 -353 146t-146 353zM196 1148q-14 32 26 90q42 46 106 104t146 58q84 0 142 -58t58 -142 q0 -20 14 -35t36 -15t36 15t52 61q30 22 52 44t53 22t53 -22t2 -81q-48 -73 -106 -131t-142 -58t-142 58t-58 142q0 20 -14 35t-36 15q-20 0 -36 -10t-64 -47q-23 -29 -45 -51t-53 -22q-66 -4 -80 28zM313 499q0 -123 86 -209t209 -87q123 0 203 80t91 180v38q0 9 1 18 q-6 111 -89 193t-206 82t-209 -86t-86 -209z" />
<glyph unicode="&#xe4;" d="M100 499q0 207 146 353t353 146t297 -88q-2 37 9 63q17 37 57 47t84 0q36 -18 46 -47t9 -45v-7l-3 -823q0 -68 -30 -88t-72 -20t-72 20t-30 86q-128 -96 -295 -96q-207 0 -353 146t-146 353zM313 499q0 -123 86 -209t209 -87q123 0 203 80t91 180v38q0 9 1 18 q-6 111 -89 193t-206 82t-209 -86t-86 -209zM332 1200q0 42 33 71t79 29t76 -29t29 -71q1 -42 -29 -70q-30 -30 -76 -30t-79 30t-33 70zM649 1200q-1 42 29 71t75 29t74 -29t29 -71t-29 -70q-29 -30 -74 -30t-75 30t-29 70z" />
<glyph unicode="&#xe5;" d="M100 499q0 207 146 353t353 146t297 -88q-2 37 9 63q17 37 57 47t84 0q36 -18 46 -47t9 -45v-7l-3 -823q0 -68 -30 -88t-72 -20t-72 20t-30 86q-128 -96 -295 -96q-207 0 -353 146t-146 353zM313 499q0 -123 86 -209t209 -87q123 0 203 80t91 180v38q0 9 1 18 q-6 111 -89 193t-206 82t-209 -86t-86 -209zM411 1225q1 87 61 147t142 60t142 -60t61 -147q-1 -87 -61 -147t-142 -60t-142 60t-61 147zM495 1226q0 -50 36 -87q36 -36 83 -36q46 0 82 36q36 37 36 87t-36 86t-82 36q-47 0 -83 -36t-36 -86z" />
<glyph unicode="&#xe7;" horiz-adv-x="1160" d="M111 501q18 205 164 351t353 146t411 -183l-1 -1q0 -1 1 -1q29 -29 29 -71t-29 -71t-71 -29t-71 30h-1q-145 124 -268 124t-210 -86.5t-105 -207.5q18 -125 105.5 -212t209.5 -87t272 121q31 31 73 31t72 -29.5t30 -71.5t-32 -74q-189 -161 -362 -178q2 -8 2 -18v-25 q29 -14 54 -38q54 -55 54 -133t-54.5 -132.5t-296.5 -76.5q-32 0 -53.5 21.5t-21.5 52.5t21.5 53.5t53.5 22.5q180 22 190.5 32.5t10.5 34.5t-29 29h-6q-34 0 -55 22q-22 22 -22 41t1 26v70q0 13 4 24q-148 27 -259 138q-146 146 -164 355z" />
<glyph unicode="&#xe8;" horiz-adv-x="1097" d="M100 499q0 207 146 353t353 146q430 -34 461 -444q16 -74 7 -101t-37 -43t-64 -18t-73 -3l-451 1q-68 0 -88 30t-20 72t20 72t86 30l429 -9q-37 210 -270 211q-123 0 -210 -86t-87 -210q0 -123 87 -210t209 -87t271 52q31 31 73 31t72 -30t30 -71q0 -42 -32 -74 q-144 -123 -413 -111q-207 0 -353 146t-146 353zM226 1294q0 20 22 58t81 37q26 0 51 -14l194 -112q52 -30 52 -89q0 -26 -22 -64t-82 -37q-26 0 -50 14l-194 112q-52 29 -52 95z" />
<glyph unicode="&#xe9;" horiz-adv-x="1097" d="M100 499q0 207 146 353t353 146q430 -34 461 -444q16 -74 7 -101t-37 -43t-64 -18t-73 -3l-451 1q-68 0 -88 30t-20 72t20 72t86 30l429 -9q-37 210 -270 211q-123 0 -210 -86t-87 -210q0 -123 87 -210t209 -87t271 52q31 31 73 31t72 -30t30 -71q0 -42 -32 -74 q-144 -123 -413 -111q-207 0 -353 146t-146 353zM435 1155q0 65 52 95l217 125q24 14 44 14t47 -7q27 -8 45 -38t18 -50q0 -66 -52 -95l-217 -125q-24 -14 -44 -14q-66 0 -96 51q-14 24 -14 44z" />
<glyph unicode="&#xea;" horiz-adv-x="1097" d="M100 499q0 207 146 353t353 146q430 -34 461 -444q16 -74 7 -101t-37 -43t-64 -18t-73 -3l-451 1q-68 0 -88 30t-20 72t20 72t86 30l429 -9q-37 210 -270 211q-123 0 -210 -86t-87 -210q0 -123 87 -210t209 -87t271 52q31 31 73 31t72 -30t30 -71q0 -42 -32 -74 q-144 -123 -413 -111q-207 0 -353 146t-146 353zM243 1170l1 1q0 42 30 72l176 128q73 45 126 25q22 -8 67 -34l147 -112q30 -30 30 -72t-30 -73q-30 -30 -71 -30l-1 1q-42 0 -72 30l-104 50l-124 -57q-30 -30 -72 -30t-73 30q-30 30 -30 71z" />
<glyph unicode="&#xeb;" horiz-adv-x="1097" d="M100 499q0 207 146 353t353 146q430 -34 461 -444q16 -74 7 -101t-37 -43t-64 -18t-73 -3l-451 1q-68 0 -88 30t-20 72t20 72t86 30l429 -9q-37 210 -270 211q-123 0 -210 -86t-87 -210q0 -123 87 -210t209 -87t271 52q31 31 73 31t72 -30t30 -71q0 -42 -32 -74 q-144 -123 -413 -111q-207 0 -353 146t-146 353zM275 1200q0 42 33 71t79 29q45 0 75 -29t30 -71t-30 -70q-30 -30 -75 -30q-46 0 -79 30t-33 70zM592 1200q0 42 30 71t74 29q45 0 74 -29t29 -71t-29 -70q-29 -30 -74 -30q-44 0 -74 30t-30 70z" />
<glyph unicode="&#xec;" horiz-adv-x="401" d="M-113 1289q0 25 22 63t81 37q26 0 51 -14l194 -112q52 -30 52 -81q0 -52 -34 -83q52 -30 52 -89l2 -987q0 -42 -30 -72t-72 -30t-72 30t-30 72l-2 987q0 45 34 76q-1 1 -2 1l-194 112q-52 30 -52 90z" />
<glyph unicode="&#xed;" horiz-adv-x="401" d="M96 1167q0 53 52 83l217 125q25 14 45 14t46 -7q27 -8 45 -38t18 -50q0 -66 -52 -95l-196 -113q34 -31 34 -76l2 -987q0 -42 -30 -72t-72 -30t-72 30t-30 72l-2 987q0 43 32 74q-37 30 -37 83z" />
<glyph unicode="&#xee;" horiz-adv-x="401" d="M-95 1170l1 1q0 42 30 72l176 128q73 45 126 25q22 -8 67 -34l147 -112q30 -30 30 -72t-30 -73q-30 -30 -71 -30l-1 1q-42 0 -72 30l-104 50l-124 -57q-30 -30 -72 -30t-73 30q-30 30 -30 71zM102 1010q0 42 30 72t72 30t72 -30t30 -72l2 -987q0 -42 -30 -72t-72 -30 t-72 30t-30 72z" />
<glyph unicode="&#xef;" horiz-adv-x="401" d="M-64 1200q0 42 33 71t79 29t76 -29t29 -71q1 -42 -29 -70q-30 -30 -76 -30t-79 30t-33 70zM101 1010q0 42 30 72t72 30t72 -30t30 -72l2 -987q0 -42 -30 -72t-72 -30t-72 30t-30 72zM253 1200q-1 42 29 71t75 29t74 -29t29 -71t-29 -70q-29 -30 -74 -30t-75 30t-29 70z " />
<glyph unicode="&#xf1;" d="M110 915q0 66 30 86t72 20t72 -20t30 -88q79 75 277 87h16q200 -12 340 -152t142 -344v-386q0 -58 -30 -88t-72 -30t-72 30t-30 86v386q0 9 1 18q-6 110 -90 193t-195 83h-4q-109 0 -193 -83t-90 -193q-3 -24 -1 -72l2 -332q0 -56 -30 -86t-72 -30t-72 30t-30 88z M198 1148q-14 32 26 90q42 46 106 104t146 58q84 0 142 -58t58 -142q0 -20 14 -35t36 -15t36 15t52 61q30 22 52 44t53 22t53 -22t2 -81q-48 -73 -106 -131t-142 -58t-142 58t-58 142q0 20 -14 35t-36 15q-20 0 -36 -10t-64 -47q-23 -29 -45 -51t-53 -22q-66 -4 -80 28z" />
<glyph unicode="&#xf2;" d="M103 499q0 207 146 353q145 146 343 146t344 -146t146 -353t-146 -353t-344 -146t-343 146q-146 146 -146 353zM283 1294q0 20 22 58t81 37q26 0 51 -14l194 -112q52 -30 52 -89q0 -26 -22 -64t-82 -37q-26 0 -50 14l-194 112q-52 29 -52 95zM305 500q0 -123 87 -210 q86 -87 200 -87t200 87t87 210q-1 124 -87 210t-200 86t-200 -86q-87 -86 -87 -210z" />
<glyph unicode="&#xf3;" d="M103 499q0 207 146 353q145 146 343 146t344 -146t146 -353t-146 -353t-344 -146t-343 146q-146 146 -146 353zM305 500q0 -123 87 -210q86 -87 200 -87t200 87t87 210q-1 124 -87 210t-200 86t-200 -86q-87 -86 -87 -210zM492 1155q0 65 52 95l217 125q25 14 45 14 t46 -7q27 -8 45 -38t18 -50q0 -66 -52 -95l-217 -125q-24 -14 -44 -14q-66 0 -96 51q-14 24 -14 44z" />
<glyph unicode="&#xf4;" d="M103 499q0 207 146 353q145 146 343 146t344 -146t146 -353t-146 -353t-344 -146t-343 146q-146 146 -146 353zM301 1170l1 1q0 42 30 72l176 128q73 45 126 25q22 -8 67 -34l147 -112q30 -30 30 -72t-30 -73q-30 -30 -71 -30l-1 1q-42 0 -72 30l-104 50l-124 -57 q-30 -30 -72 -30t-73 30q-30 30 -30 71zM305 500q0 -123 87 -210q86 -87 200 -87t200 87t87 210q-1 124 -87 210t-200 86t-200 -86q-87 -86 -87 -210z" />
<glyph unicode="&#xf5;" d="M103 499q0 207 146 353q145 146 343 146t344 -146t146 -353t-146 -353t-344 -146t-343 146q-146 146 -146 353zM196 1148q-14 32 26 90q42 46 106 104t146 58q84 0 142 -58t58 -142q0 -20 14 -35t36 -15t36 15t52 61q30 22 52 44t53 22t53 -22t2 -81q-48 -73 -106 -131 t-142 -58t-142 58t-58 142q0 20 -14 35t-36 15q-20 0 -36 -10t-64 -47q-23 -29 -45 -51t-53 -22q-66 -4 -80 28zM305 500q0 -123 87 -210q86 -87 200 -87t200 87t87 210q-1 124 -87 210t-200 86t-200 -86q-87 -86 -87 -210z" />
<glyph unicode="&#xf6;" d="M103 499q0 207 146 353q145 146 343 146t344 -146t146 -353t-146 -353t-344 -146t-343 146q-146 146 -146 353zM305 500q0 -123 87 -210q86 -87 200 -87t200 87t87 210q-1 124 -87 210t-200 86t-200 -86q-87 -86 -87 -210zM332 1200q0 42 33 71t79 29t76 -29t29 -71 q1 -42 -29 -70q-30 -30 -76 -30t-79 30t-33 70zM649 1200q-1 42 29 71t75 29t74 -29t29 -71t-29 -70q-29 -30 -74 -30t-75 30t-29 70z" />
<glyph unicode="&#xf7;" horiz-adv-x="926" d="M80 703q0 42 29.5 72t72.5 30l556 -2q42 0 72 -30t30 -72t-30 -72t-72 -30l-556 2q-43 0 -72.5 30t-29.5 72zM353 1000q0 42 30.5 72t80.5 30t80 -30t30 -72t-30 -72t-91 -28t-80.5 30t-19.5 70zM354 400q0 42 34 72t76 30t76 -30t34 -72t-34 -72t-76 -30t-76 30t-34 72z " />
<glyph unicode="&#xf8;" horiz-adv-x="1238" d="M117 491q0 213 146 359t343 146q85 0 160 -27q36 62 73.5 62.5t84.5 -24.5q35 -23 50 -55.5t-34 -90.5v-1q156 -149 156 -359.5t-146 -356.5t-344 -146q-79 0 -151 24l-116 -202q-30 -51 -90 -51q-25 0 -63 22t-38 82q0 25 14 49l118 205q-163 151 -163 364zM319 506 q0 -115 67 -196l276 479q-27 5 -56 5q-113 0 -200 -86.5t-87 -201.5zM561 205q22 -4 45 -4q114 0 200.5 87t86.5 199t-59 190zM887.5 1128.5q-13.5 32.5 23.5 87.5l46 83q29 52 95 52q20 0 58 -22t38 -82q0 -26 -14 -50l-53 -93q-38 -57 -74 -56.5t-71 24.5t-48.5 56.5z" />
<glyph unicode="&#xf9;" d="M130 503v451q0 58 30 88t72 30t72 -30t30 -86v-451q0 -9 -1 -18q5 -110 89 -193t177 -90h4q133 2 179 80q64 86 70 196q-1 9 -1 18l-5 454q0 56 30 86t72 30t72 -30t30 -88l5 -454q-2 -204 -139 -348q-110 -132 -307 -148h-16q-181 19 -322 155q-139 144 -141 348z M285 1294q0 20 22 58t81 37q26 0 51 -14l194 -112q52 -30 52 -89q0 -26 -22 -64t-82 -37q-26 0 -50 14l-194 112q-52 29 -52 95z" />
<glyph unicode="&#xfa;" d="M130 503v451q0 58 30 88t72 30t72 -30t30 -86v-451q0 -9 -1 -18q5 -110 89 -193t177 -90h4q133 2 179 80q64 86 70 196q-1 9 -1 18l-5 454q0 56 30 86t72 30t72 -30t30 -88l5 -454q-2 -204 -139 -348q-110 -132 -307 -148h-16q-181 19 -322 155q-139 144 -141 348z M494 1155q0 65 52 95l217 125q25 14 45 14t46 -7q27 -8 45 -38t18 -50q0 -66 -52 -95l-217 -125q-24 -14 -44 -14q-66 0 -96 51q-14 24 -14 44z" />
<glyph unicode="&#xfb;" d="M130 503v451q0 58 30 88t72 30t72 -30t30 -86v-451q0 -9 -1 -18q5 -110 89 -193t177 -90h4q133 2 179 80q64 86 70 196q-1 9 -1 18l-5 454q0 56 30 86t72 30t72 -30t30 -88l5 -454q-2 -204 -139 -348q-110 -132 -307 -148h-16q-181 19 -322 155q-139 144 -141 348z M303 1170l1 1q0 42 30 72l176 128q73 45 126 25q22 -8 67 -34l147 -112q30 -30 30 -72t-30 -73q-30 -30 -71 -30l-1 1q-42 0 -72 30l-104 50l-124 -57q-30 -30 -72 -30t-73 30q-30 30 -30 71z" />
<glyph unicode="&#xfc;" d="M130 503v451q0 58 30 88t72 30t72 -30t30 -86v-451q0 -9 -1 -18q5 -110 89 -193t177 -90h4q133 2 179 80q64 86 70 196q-1 9 -1 18l-5 454q0 56 30 86t72 30t72 -30t30 -88l5 -454q-2 -204 -139 -348q-110 -132 -307 -148h-16q-181 19 -322 155q-139 144 -141 348z M334 1200q0 42 33 71t79 29t76 -29t29 -71q1 -42 -29 -70q-30 -30 -76 -30t-79 30t-33 70zM651 1200q-1 42 29 71t75 29t74 -29t29 -71t-29 -70q-29 -30 -74 -30t-75 30t-29 70z" />
<glyph unicode="&#xfd;" d="M56 941q0 34 29 63t71 29q42 -1 64 -23q23 -22 30 -43l361 -417q39 -56 26 -90t-47 -58t-70 -25t-75 53l-377 455q-12 22 -12 56zM265 -374q0 36 13 62l656 1283q7 20 30 43q22 23 64 23t72 -29t29 -62q0 -33 -10 -53l-656 -1296q-34 -67 -98 -67q-42 0 -71 30t-29 66z M493 1155q0 65 52 95l217 125q24 14 44 14t47 -7q27 -8 45 -38t18 -50q0 -66 -52 -95l-217 -125q-24 -14 -44 -14q-66 0 -96 51q-14 24 -14 44z" />
<glyph unicode="&#xff;" d="M56 941q0 34 29 63t71 29q42 -1 64 -23q23 -22 30 -43l361 -417q39 -56 26 -90t-47 -58t-70 -25t-75 53l-377 455q-12 22 -12 56zM265 -374q0 36 13 62l656 1283q7 20 30 43q22 23 64 23t72 -29t29 -62q0 -33 -10 -53l-656 -1296q-34 -67 -98 -67q-42 0 -71 30t-29 66z M333 1200q0 42 33 71t79 29q45 0 75 -29t30 -71t-30 -70q-30 -30 -75 -30q-46 0 -79 30t-33 70zM650 1200q0 42 30 71t74 29q45 0 74 -29t29 -71t-29 -70q-29 -30 -74 -30q-44 0 -74 30t-30 70z" />
<glyph unicode="&#x152;" horiz-adv-x="1707" />
<glyph unicode="&#x153;" horiz-adv-x="1707" />
<glyph unicode="&#x178;" horiz-adv-x="703" d="M83 1200q0 42 33 71t79 29q45 0 75 -29t30 -71t-30 -70q-30 -30 -75 -30q-46 0 -79 30t-33 70zM400 1200q0 42 30 71t74 29q45 0 74 -29t29 -71t-29 -70q-29 -30 -74 -30q-44 0 -74 30t-30 70z" />
<glyph unicode="&#x2c6;" horiz-adv-x="696" d="M52 1170l1 1q0 42 30 72l176 128q73 45 126 25q22 -8 67 -34l147 -112q30 -30 30 -72t-30 -73q-30 -30 -71 -30l-1 1q-42 0 -72 30l-104 50l-124 -57q-31 -30 -73 -30t-72 30t-30 71z" />
<glyph unicode="&#x2dc;" horiz-adv-x="911" d="M47.5 1147.5q-14.5 32.5 25.5 90.5q42 45 105.5 103.5t146.5 58.5t141.5 -58.5t58.5 -141.5q0 -20 14.5 -35t35.5 -15t35.5 15t52.5 61q30 22 52 44t53 22t53 -22t2 -81q-48 -72 -106.5 -130.5t-141.5 -58.5t-141.5 58.5t-58.5 141.5q0 20 -14.5 35t-35.5 15t-36.5 -10 t-63.5 -47q-23 -29 -45 -51t-53 -22q-65 -5 -79.5 27.5z" />
<glyph unicode="&#x2000;" horiz-adv-x="921" />
<glyph unicode="&#x2001;" horiz-adv-x="1842" />
<glyph unicode="&#x2002;" horiz-adv-x="921" />
<glyph unicode="&#x2003;" horiz-adv-x="1842" />
<glyph unicode="&#x2004;" horiz-adv-x="614" />
<glyph unicode="&#x2005;" horiz-adv-x="460" />
<glyph unicode="&#x2006;" horiz-adv-x="307" />
<glyph unicode="&#x2007;" horiz-adv-x="307" />
<glyph unicode="&#x2008;" horiz-adv-x="230" />
<glyph unicode="&#x2009;" horiz-adv-x="368" />
<glyph unicode="&#x200a;" horiz-adv-x="102" />
<glyph unicode="&#x2010;" horiz-adv-x="864" d="M158 673q0 42 30 72t72 30l369 1q42 0 72 -30t30 -72t-30 -72t-72 -30l-369 -1q-42 0 -72 30t-30 72z" />
<glyph unicode="&#x2011;" horiz-adv-x="864" d="M158 673q0 42 30 72t72 30l369 1q42 0 72 -30t30 -72t-30 -72t-72 -30l-369 -1q-42 0 -72 30t-30 72z" />
<glyph unicode="&#x2012;" horiz-adv-x="864" d="M158 673q0 42 30 72t72 30l369 1q42 0 72 -30t30 -72t-30 -72t-72 -30l-369 -1q-42 0 -72 30t-30 72z" />
<glyph unicode="&#x2013;" horiz-adv-x="1237" d="M138 502q0 42 30 72t72 30h757q42 0 72 -30t30 -72t-30 -72t-72 -30h-757q-42 0 -72 30t-30 72z" />
<glyph unicode="&#x2014;" horiz-adv-x="2003" d="M152 499q0 42 30 72t72 30l1495 4q42 0 72 -30t30 -72t-30 -72t-72 -30l-1495 -4q-42 0 -72 30t-30 72z" />
<glyph unicode="&#x2018;" horiz-adv-x="499" d="M68 1292q0 36 29 65t71 29t64 -23q24 -23 35 -38l161 -191q13 -24 13 -58t-29.5 -63.5t-71.5 -29.5q-42 1 -64 23t-36 42l-157 185q-15 23 -15 59z" />
<glyph unicode="&#x2019;" horiz-adv-x="557" d="M59 1076q0 34 13 58l161 191q11 15 35 38q23 23 65 23q41 0 70 -29t29 -65t-15 -59l-157 -185q-14 -20 -36 -42q-23 -22 -64 -23t-71 29q-29 30 -30 64z" />
<glyph unicode="&#x201a;" horiz-adv-x="557" d="M59 -122q0 34 13 57l161 191q11 15 35 38q23 23 65 23q41 0 70 -29t29 -65t-15 -59l-157 -185q-14 -21 -36 -43q-23 -22 -64 -22t-71 30q-29 30 -30 64z" />
<glyph unicode="&#x201c;" horiz-adv-x="919" d="M68 1292q0 36 29 65t71 29t64 -23q24 -23 35 -38l161 -191q13 -24 13 -58q1 -34 -29 -64t-72 -29t-64 23t-36 42l-157 185q-15 23 -15 59zM488 1292q0 36 29 65t71 29t64 -23q24 -23 35 -38l161 -191q13 -24 13 -58q1 -34 -29 -64t-72 -29t-64 23t-36 42l-157 185 q-15 23 -15 59z" />
<glyph unicode="&#x201d;" horiz-adv-x="977" d="M59 1076q0 34 13 58l161 191q11 15 35 38q23 23 65 23q41 0 70 -29t29 -65t-15 -59l-157 -185q-14 -20 -36 -42q-23 -22 -64 -23t-71 29q-29 30 -30 64zM479 1076q0 34 13 58l161 191q11 15 35 38q23 23 65 23q41 0 70 -29t29 -65t-15 -59l-157 -185q-14 -20 -36 -42 q-23 -22 -64 -23t-71 29q-29 30 -30 64z" />
<glyph unicode="&#x201e;" horiz-adv-x="977" d="M59 -122q0 34 13 57l161 191q11 15 35 38q23 23 65 23q41 0 70 -29t29 -65t-15 -59l-157 -185q-14 -21 -36 -43q-23 -22 -64 -22t-71 30q-29 30 -30 64zM479 -122q0 34 13 57l161 191q11 15 35 38q23 23 65 23q41 0 70 -29t29 -65t-15 -59l-157 -185q-14 -21 -36 -43 q-23 -22 -64 -22t-71 30q-29 30 -30 64z" />
<glyph unicode="&#x2022;" horiz-adv-x="654" d="M84 612q0 100 70.5 170t170.5 70t170.5 -70t70.5 -170t-70.5 -171t-170.5 -71t-170.5 71t-70.5 171z" />
<glyph unicode="&#x2026;" d="M95 102q0 42 30 72q31 30 83 30t82 -30t30 -72t-30 -72t-82 -30t-83 30q-30 30 -30 72zM488 102q0 42 30 72t82 30t83 -30q30 -30 30 -72t-30 -72q-31 -30 -83 -30t-82 30t-30 72zM891 102q0 42 30 72q31 30 83 30t82 -30t30 -72t-30 -72t-82 -30t-83 30q-30 30 -30 72z " />
<glyph unicode="&#x202f;" horiz-adv-x="368" />
<glyph unicode="&#x2039;" horiz-adv-x="597" d="M100 700q0 30 16 55l200 301h1q27 44 76 44t78 -29t29 -68t-23 -66l-156 -236l162 -244q17 -25 17 -61t-29 -66t-75 -30t-80 45l-2 -1l-200 300l2 1q-16 25 -16 55z" />
<glyph unicode="&#x203a;" horiz-adv-x="597" d="M100 396q0 36 17 61l162 244l-156 236q-23 27 -23 66t29 68t78 29t76 -44h1l200 -301q16 -25 16 -55t-16 -55l2 -1l-200 -300l-2 1q-34 -45 -80 -45t-75 30t-29 66z" />
<glyph unicode="&#x205f;" horiz-adv-x="460" />
<glyph unicode="&#x20ac;" d="M-12 559q0 42 30 72t72 30l213 1q-5 37 -3 99h-123q-42 0 -72 30t-30 72t30 72t72 30h171q16 53 53 156q42 81 96.5 67t88.5 -45q35 -51 3 -107l-7 -8q-14 -37 -14 -63l452 -3q42 0 72 -30t30 -72t-30 -72t-72 -30l-525 3l-2 -44q0 -28 6 -55h368q42 0 72 -30t30 -72 t-30 -72t-72 -30h-286q20 -81 40 -103q127 -151 301 -151t335 139l1 -1q32 32 76 32t69 -30t25 -74t-28 -72l1 -1q-212 -197 -478 -197t-444 210q-75 88 -123 248l-266 -1q-42 0 -72 30t-30 72zM556 1234q-4 36 12 62t29 35l38 28q91 75 274 75q302 0 464 -189l-1 -1 q28 -28 28 -72t-25 -74t-69 -30t-76 32l-1 -1q-110 131 -320 131q-89 0 -173 -47q-22 -25 -58 -33t-77 20t-45 64z" />
<glyph unicode="&#x2122;" horiz-adv-x="1362" d="M134 1388q0 16 12 28.5t28 12.5h316q16 0 28 -12.5t12 -28.5t-12 -28t-28 -12h-316q-16 0 -28 12t-12 28zM292 900v389q0 56 60 43q22 -11 22 -36v-3l-1 -393q0 -16 -12.5 -28t-28.5 -12t-28 12t-12 28zM576 896v487q0 17 12 28.5t31 11.5t30 -16l204 -182l118 103 q21 26 57.5 4.5t-4.5 -62.5l-144 -127q-12 -10 -28 -10t-195 161v-398q0 -16 -12.5 -28t-28.5 -12t-28 12t-12 28zM1051 896l2 483q-6 32 18.5 39.5t42.5 -1.5q18 -10 18 -35v-486q0 -16 -12 -28t-28 -12t-28.5 12t-12.5 28z" />
<glyph unicode="&#x25fc;" horiz-adv-x="1000" d="M0 0v1000h1000v-1000h-1000z" />
</font>
</defs>
</svg>
